<?xml version="1.0" encoding="UTF-8" standalone="no"?>
<!-- Created with Inkscape (http://www.inkscape.org/) -->

<svg
   xmlns:dc="http://purl.org/dc/elements/1.1/"
   xmlns:cc="http://creativecommons.org/ns#"
   xmlns:rdf="http://www.w3.org/1999/02/22-rdf-syntax-ns#"
   xmlns:svg="http://www.w3.org/2000/svg"
   xmlns="http://www.w3.org/2000/svg"
   xmlns:sodipodi="http://sodipodi.sourceforge.net/DTD/sodipodi-0.dtd"
   xmlns:inkscape="http://www.inkscape.org/namespaces/inkscape"
   width="1740.2788"
   height="2060.6262"
   id="svg2"
   version="1.1"
   inkscape:version="0.48.4 r9939"
   sodipodi:docname="New document 1">
  <defs
     id="defs4">
    <symbol
       id="*Paper_Space0" />
    <symbol
       id="*Paper_Space" />
    <symbol
       id="*Model_Space" />
    <pattern
       id="Hatch"
       x="0"
       y="0"
       patternUnits="userSpaceOnUse"
       width="8"
       height="8">
      <path
         id="path2995"
         d="M8 4 l-4,4"
         stroke-width="0.25"
         stroke="#000000"
         linecap="square" />
      <path
         id="path2997"
         d="M6 2 l-4,4"
         stroke-width="0.25"
         stroke="#000000"
         linecap="square" />
      <path
         id="path2999"
         d="M4 0 l-4,4"
         stroke-width="0.25"
         stroke="#000000"
         linecap="square" />
    </pattern>
    <marker
       orient="auto"
       id="DistanceX"
       style="overflow:visible"
       refX="0"
       refY="0">
      <path
         id="path2992"
         d="M 3,-3 -3,3 M 0,-5 0,5"
         style="stroke:#000000;stroke-width:0.5"
         inkscape:connector-curvature="0" />
    </marker>
  </defs>
  <sodipodi:namedview
     id="base"
     pagecolor="#ffffff"
     bordercolor="#666666"
     borderopacity="1.0"
     inkscape:pageopacity="0.0"
     inkscape:pageshadow="2"
     inkscape:zoom="0.12374369"
     inkscape:cx="760.10233"
     inkscape:cy="1851.1705"
     inkscape:document-units="px"
     inkscape:current-layer="layer1"
     showgrid="false"
     fit-margin-top="20"
     fit-margin-right="20"
     fit-margin-bottom="20"
     fit-margin-left="20"
     inkscape:window-width="1120"
     inkscape:window-height="734"
     inkscape:window-x="175"
     inkscape:window-y="175"
     inkscape:window-maximized="0" />
  <metadata
     id="metadata7">
    <rdf:RDF>
      <cc:Work
         rdf:about="">
        <dc:format>image/svg+xml</dc:format>
        <dc:type
           rdf:resource="http://purl.org/dc/dcmitype/StillImage" />
        <dc:title></dc:title>
      </cc:Work>
    </rdf:RDF>
  </metadata>
  <g
     inkscape:label="Layer 1"
     inkscape:groupmode="layer"
     id="layer1"
     transform="translate(-21.259558,205.58773)">
    <g
       id="g3400">
      <path
         id="path3006"
         d="m 78.166071,794.13273 a 5.4,5.4 0 1 0 -10.8,0 5.4,5.4 0 0 0 10.8,0 z"
         style="fill:none;stroke:#000000;stroke-linecap:round"
         inkscape:connector-curvature="0" />
      <path
         id="path3008"
         d="m 141.10938,1274.7327 a 8.4375,8.4375 0 1 0 -16.875,0 8.4375,8.4375 0 0 0 16.875,0 z"
         style="fill:none;stroke:#000000;stroke-linecap:round"
         inkscape:connector-curvature="0" />
      <path
         id="path3010"
         d="m 78.166071,1379.1327 a 5.4,5.4 0 1 0 -10.8,0 5.4,5.4 0 0 0 10.8,0 z"
         style="fill:none;stroke:#000000;stroke-linecap:round"
         inkscape:connector-curvature="0" />
      <path
         id="path3012"
         d="m 1715.4911,794.13273 a 5.4,5.4 0 1 0 -10.8,0 5.4,5.4 0 1 0 10.8,0 z"
         style="fill:none;stroke:#000000;stroke-linecap:round"
         inkscape:connector-curvature="0" />
      <path
         id="path3014"
         d="m 1715.4911,299.13272 a 5.4,5.4 0 1 0 -10.8,0 5.4,5.4 0 1 0 10.8,0 z"
         style="fill:none;stroke:#000000;stroke-linecap:round"
         inkscape:connector-curvature="0" />
      <path
         id="path3016"
         d="m 141.10938,1387.2327 a 8.4375,8.4375 0 1 0 -16.875,0 8.4375,8.4375 0 0 0 16.875,0 z"
         style="fill:none;stroke:#000000;stroke-linecap:round"
         inkscape:connector-curvature="0" />
      <path
         id="path3018"
         d="m 236.50938,1387.2327 a 8.4375,8.4375 0 1 0 -16.875,0 8.4375,8.4375 0 0 0 16.875,0 z"
         style="fill:none;stroke:#000000;stroke-linecap:round"
         inkscape:connector-curvature="0" />
      <path
         id="path3020"
         d="m 236.50938,1274.7327 a 8.4375,8.4375 0 1 0 -16.875,0 8.4375,8.4375 0 0 0 16.875,0 z"
         style="fill:none;stroke:#000000;stroke-linecap:round"
         inkscape:connector-curvature="0" />
      <path
         id="path3022"
         d="m 236.50938,352.23273 a 8.4375,8.4375 0 1 0 -16.875,0 8.4375,8.4375 0 0 0 16.875,0 z"
         style="fill:none;stroke:#000000;stroke-linecap:round"
         inkscape:connector-curvature="0" />
      <path
         id="path3024"
         d="m 78.166071,299.13272 a 5.4,5.4 0 1 0 -10.8,0 5.4,5.4 0 0 0 10.8,0 z"
         style="fill:none;stroke:#000000;stroke-linecap:round"
         inkscape:connector-curvature="0" />
      <path
         id="path3026"
         d="m 1517.942,869.73273 a 9,9 0 1 0 -18,0 9,9 0 0 0 18,0 z"
         style="fill:none;stroke:#000000;stroke-linecap:round"
         inkscape:connector-curvature="0" />
      <path
         id="path3028"
         d="m 1715.4911,1379.1327 a 5.4,5.4 0 1 0 -10.8,0 5.4,5.4 0 1 0 10.8,0 z"
         style="fill:none;stroke:#000000;stroke-linecap:round"
         inkscape:connector-curvature="0" />
      <path
         id="path3030"
         d="m 141.10938,352.23273 a 8.4375,8.4375 0 1 0 -16.875,0 8.4375,8.4375 0 0 0 16.875,0 z"
         style="fill:none;stroke:#000000;stroke-linecap:round"
         inkscape:connector-curvature="0" />
      <path
         id="path3032"
         d="m 141.10938,464.73273 a 8.4375,8.4375 0 1 0 -16.875,0 8.4375,8.4375 0 0 0 16.875,0 z"
         style="fill:none;stroke:#000000;stroke-linecap:round"
         inkscape:connector-curvature="0" />
      <path
         id="path3034"
         d="m 236.50938,464.73273 a 8.4375,8.4375 0 1 0 -16.875,0 8.4375,8.4375 0 0 0 16.875,0 z"
         style="fill:none;stroke:#000000;stroke-linecap:round"
         inkscape:connector-curvature="0" />
      <path
         id="path3036"
         d="m 64.328571,1283.7327 16.875,0"
         style="fill:none;stroke:#000000;stroke-linecap:round"
         inkscape:connector-curvature="0" />
      <path
         id="path3038"
         d="m 261.42857,-162.56727 45,0"
         style="fill:none;stroke:#000000;stroke-linecap:round"
         inkscape:connector-curvature="0" />
      <path
         id="path3040"
         d="m 1718.5286,934.53272 -16.875,0"
         style="fill:none;stroke:#000000;stroke-linecap:round"
         inkscape:connector-curvature="0" />
      <path
         id="path3042"
         d="m 1718.5286,1474.5327 -16.875,0"
         style="fill:none;stroke:#000000;stroke-linecap:round"
         inkscape:connector-curvature="0" />
      <path
         id="path3044"
         d="m 176.82857,-5.06727 1429.20003,0"
         style="fill:none;stroke:#000000;stroke-linecap:round"
         inkscape:connector-curvature="0" />
      <path
         id="path3046"
         d="m 41.828571,1834.5327 0,-2019.59997"
         style="fill:none;stroke:#000000;stroke-linecap:round"
         inkscape:connector-curvature="0" />
      <path
         id="path3048"
         d="m 81.203571,158.73272 0,45"
         style="fill:none;stroke:#000000;stroke-linecap:round"
         inkscape:connector-curvature="0" />
      <path
         id="path3050"
         d="m 1476.4286,-162.56727 0,16.875"
         style="fill:none;stroke:#000000;stroke-linecap:round"
         inkscape:connector-curvature="0" />
      <path
         id="path3052"
         d="m 1701.6536,1238.7327 0,45"
         style="fill:none;stroke:#000000;stroke-linecap:round"
         inkscape:connector-curvature="0" />
      <path
         id="path3054"
         d="m 64.328571,1238.7327 16.875,0"
         style="fill:none;stroke:#000000;stroke-linecap:round"
         inkscape:connector-curvature="0" />
      <path
         id="path3056"
         d="m 64.328571,394.53273 0,45"
         style="fill:none;stroke:#000000;stroke-linecap:round"
         inkscape:connector-curvature="0" />
      <path
         id="path3058"
         d="m 1718.5286,394.53273 0,45"
         style="fill:none;stroke:#000000;stroke-linecap:round"
         inkscape:connector-curvature="0" />
      <path
         id="path3060"
         d="m 81.203571,889.53273 0,44.99999"
         style="fill:none;stroke:#000000;stroke-linecap:round"
         inkscape:connector-curvature="0" />
      <path
         id="path3062"
         d="m 64.328571,653.73273 16.875,0"
         style="fill:none;stroke:#000000;stroke-linecap:round"
         inkscape:connector-curvature="0" />
      <path
         id="path3064"
         d="m 1071.4286,-162.56727 0,16.875"
         style="fill:none;stroke:#000000;stroke-linecap:round"
         inkscape:connector-curvature="0" />
      <path
         id="path3066"
         d="m 1718.5286,889.53273 -16.875,0"
         style="fill:none;stroke:#000000;stroke-linecap:round"
         inkscape:connector-curvature="0" />
      <path
         id="path3068"
         d="m 176.82857,1744.5327 1429.20003,0"
         style="fill:none;stroke:#000000;stroke-linecap:round"
         inkscape:connector-curvature="0" />
      <path
         id="path3070"
         d="m 41.828571,-185.06727 1699.200029,0"
         style="fill:none;stroke:#000000;stroke-linecap:round"
         inkscape:connector-curvature="0" />
      <path
         id="path3072"
         d="m 64.328571,653.73273 0,44.99999"
         style="fill:none;stroke:#000000;stroke-linecap:round"
         inkscape:connector-curvature="0" />
      <path
         id="path3074"
         d="m 1718.5286,203.73272 -16.875,0"
         style="fill:none;stroke:#000000;stroke-linecap:round"
         inkscape:connector-curvature="0" />
      <path
         id="path3076"
         d="m 1718.5286,1238.7327 -16.875,0"
         style="fill:none;stroke:#000000;stroke-linecap:round"
         inkscape:connector-curvature="0" />
      <path
         id="path3078"
         d="m 81.203571,1238.7327 0,45"
         style="fill:none;stroke:#000000;stroke-linecap:round"
         inkscape:connector-curvature="0" />
      <path
         id="path3080"
         d="m 64.328571,698.73273 16.875,0"
         style="fill:none;stroke:#000000;stroke-linecap:round"
         inkscape:connector-curvature="0" />
      <path
         id="path3082"
         d="m 1701.6536,889.53273 0,44.99999"
         style="fill:none;stroke:#000000;stroke-linecap:round"
         inkscape:connector-curvature="0" />
      <path
         id="path3084"
         d="m 1606.0286,-5.06727 0,1749.59997"
         style="fill:none;stroke:#000000;stroke-linecap:round"
         inkscape:connector-curvature="0" />
      <path
         id="path3086"
         d="m 64.328571,394.53273 16.875,0"
         style="fill:none;stroke:#000000;stroke-linecap:round"
         inkscape:connector-curvature="0" />
      <path
         id="path3088"
         d="m 64.328571,439.53273 16.875,0"
         style="fill:none;stroke:#000000;stroke-linecap:round"
         inkscape:connector-curvature="0" />
      <path
         id="path3090"
         d="m 1521.4286,-145.69227 -45,0"
         style="fill:none;stroke:#000000;stroke-linecap:round"
         inkscape:connector-curvature="0" />
      <path
         id="path3092"
         d="m 1718.5286,1283.7327 -16.875,0"
         style="fill:none;stroke:#000000;stroke-linecap:round"
         inkscape:connector-curvature="0" />
      <path
         id="path3094"
         d="m 1741.0286,1834.5327 0,-2019.59997"
         style="fill:none;stroke:#000000;stroke-linecap:round"
         inkscape:connector-curvature="0" />
      <path
         id="path3096"
         d="m 81.203571,394.53273 0,45"
         style="fill:none;stroke:#000000;stroke-linecap:round"
         inkscape:connector-curvature="0" />
      <path
         id="path3098"
         d="m 1116.4286,-145.69227 -45,0"
         style="fill:none;stroke:#000000;stroke-linecap:round"
         inkscape:connector-curvature="0" />
      <path
         id="path3100"
         d="m 1718.5286,698.73273 -16.875,0"
         style="fill:none;stroke:#000000;stroke-linecap:round"
         inkscape:connector-curvature="0" />
      <path
         id="path3102"
         d="m 1718.5286,1519.5327 -16.875,0"
         style="fill:none;stroke:#000000;stroke-linecap:round"
         inkscape:connector-curvature="0" />
      <path
         id="path3104"
         d="m 81.203571,653.73273 0,44.99999"
         style="fill:none;stroke:#000000;stroke-linecap:round"
         inkscape:connector-curvature="0" />
      <path
         id="path3106"
         d="m 666.42857,-162.56727 45,0"
         style="fill:none;stroke:#000000;stroke-linecap:round"
         inkscape:connector-curvature="0" />
      <path
         id="path3108"
         d="m 711.42857,-162.56727 0,16.875"
         style="fill:none;stroke:#000000;stroke-linecap:round"
         inkscape:connector-curvature="0" />
      <path
         id="path3110"
         d="m 1701.6536,394.53273 0,45"
         style="fill:none;stroke:#000000;stroke-linecap:round"
         inkscape:connector-curvature="0" />
      <path
         id="path3112"
         d="m 176.82857,-5.06727 0,1749.59997"
         style="fill:none;stroke:#000000;stroke-linecap:round"
         inkscape:connector-curvature="0" />
      <path
         id="path3114"
         d="m 64.328571,1474.5327 16.875,0"
         style="fill:none;stroke:#000000;stroke-linecap:round"
         inkscape:connector-curvature="0" />
      <path
         id="path3116"
         d="m 64.328571,158.73272 16.875,0"
         style="fill:none;stroke:#000000;stroke-linecap:round"
         inkscape:connector-curvature="0" />
      <path
         id="path3118"
         d="m 1718.5286,158.73272 0,45"
         style="fill:none;stroke:#000000;stroke-linecap:round"
         inkscape:connector-curvature="0" />
      <path
         id="path3120"
         d="m 1701.6536,653.73273 0,44.99999"
         style="fill:none;stroke:#000000;stroke-linecap:round"
         inkscape:connector-curvature="0" />
      <path
         id="path3122"
         d="m 81.203571,1474.5327 0,45"
         style="fill:none;stroke:#000000;stroke-linecap:round"
         inkscape:connector-curvature="0" />
      <path
         id="path3124"
         d="m 64.328571,889.53273 16.875,0"
         style="fill:none;stroke:#000000;stroke-linecap:round"
         inkscape:connector-curvature="0" />
      <path
         id="path3126"
         d="m 666.42857,-145.69227 45,0"
         style="fill:none;stroke:#000000;stroke-linecap:round"
         inkscape:connector-curvature="0" />
      <path
         id="path3128"
         d="m 1718.5286,889.53273 0,44.99999"
         style="fill:none;stroke:#000000;stroke-linecap:round"
         inkscape:connector-curvature="0" />
      <path
         id="path3130"
         d="m 1718.5286,1474.5327 0,45"
         style="fill:none;stroke:#000000;stroke-linecap:round"
         inkscape:connector-curvature="0" />
      <path
         id="path3132"
         d="m 1598.942,2.01934 0,1735.42676"
         style="fill:none;stroke:#000000;stroke-linecap:round"
         inkscape:connector-curvature="0" />
      <path
         id="path3134"
         d="m 64.328571,889.53273 0,44.99999"
         style="fill:none;stroke:#000000;stroke-linecap:round"
         inkscape:connector-curvature="0" />
      <path
         id="path3136"
         d="m 261.42857,-162.56727 0,16.875"
         style="fill:none;stroke:#000000;stroke-linecap:round"
         inkscape:connector-curvature="0" />
      <path
         id="path3138"
         d="m 1521.4286,-162.56727 0,16.875"
         style="fill:none;stroke:#000000;stroke-linecap:round"
         inkscape:connector-curvature="0" />
      <path
         id="path3140"
         d="m 1701.6536,158.73272 0,45"
         style="fill:none;stroke:#000000;stroke-linecap:round"
         inkscape:connector-curvature="0" />
      <path
         id="path3142"
         d="m 64.328571,1238.7327 0,45"
         style="fill:none;stroke:#000000;stroke-linecap:round"
         inkscape:connector-curvature="0" />
      <path
         id="path3144"
         d="m 261.42857,-145.69227 45,0"
         style="fill:none;stroke:#000000;stroke-linecap:round"
         inkscape:connector-curvature="0" />
      <path
         id="path3146"
         d="m 1521.4286,-162.56727 -45,0"
         style="fill:none;stroke:#000000;stroke-linecap:round"
         inkscape:connector-curvature="0" />
      <path
         id="path3148"
         d="m 1718.5286,158.73272 -16.875,0"
         style="fill:none;stroke:#000000;stroke-linecap:round"
         inkscape:connector-curvature="0" />
      <path
         id="path3150"
         d="m 1701.6536,1474.5327 0,45"
         style="fill:none;stroke:#000000;stroke-linecap:round"
         inkscape:connector-curvature="0" />
      <path
         id="path3152"
         d="m 64.328571,158.73272 0,45"
         style="fill:none;stroke:#000000;stroke-linecap:round"
         inkscape:connector-curvature="0" />
      <path
         id="path3154"
         d="m 666.42857,-162.56727 0,16.875"
         style="fill:none;stroke:#000000;stroke-linecap:round"
         inkscape:connector-curvature="0" />
      <path
         id="path3156"
         d="m 1116.4286,-162.56727 -45,0"
         style="fill:none;stroke:#000000;stroke-linecap:round"
         inkscape:connector-curvature="0" />
      <path
         id="path3158"
         d="m 1718.5286,394.53273 -16.875,0"
         style="fill:none;stroke:#000000;stroke-linecap:round"
         inkscape:connector-curvature="0" />
      <path
         id="path3160"
         d="m 183.91518,2.01934 1415.02682,0"
         style="fill:none;stroke:#000000;stroke-linecap:round"
         inkscape:connector-curvature="0" />
      <path
         id="path3162"
         d="m 64.328571,1519.5327 16.875,0"
         style="fill:none;stroke:#000000;stroke-linecap:round"
         inkscape:connector-curvature="0" />
      <path
         id="path3164"
         d="m 64.328571,203.73272 16.875,0"
         style="fill:none;stroke:#000000;stroke-linecap:round"
         inkscape:connector-curvature="0" />
      <path
         id="path3166"
         d="m 1718.5286,653.73273 -16.875,0"
         style="fill:none;stroke:#000000;stroke-linecap:round"
         inkscape:connector-curvature="0" />
      <path
         id="path3168"
         d="m 183.91518,2.01934 0,1735.42676"
         style="fill:none;stroke:#000000;stroke-linecap:round"
         inkscape:connector-curvature="0" />
      <path
         id="path3170"
         d="m 64.328571,934.53272 16.875,0"
         style="fill:none;stroke:#000000;stroke-linecap:round"
         inkscape:connector-curvature="0" />
      <path
         id="path3172"
         d="m 306.42857,-162.56727 0,16.875"
         style="fill:none;stroke:#000000;stroke-linecap:round"
         inkscape:connector-curvature="0" />
      <path
         id="path3174"
         d="m 1116.4286,-162.56727 0,16.875"
         style="fill:none;stroke:#000000;stroke-linecap:round"
         inkscape:connector-curvature="0" />
      <path
         id="path3176"
         d="m 1718.5286,653.73273 0,44.99999"
         style="fill:none;stroke:#000000;stroke-linecap:round"
         inkscape:connector-curvature="0" />
      <path
         id="path3178"
         d="m 41.828571,1834.5327 1699.200029,0"
         style="fill:none;stroke:#000000;stroke-linecap:round"
         inkscape:connector-curvature="0" />
      <path
         id="path3180"
         d="m 64.328571,1474.5327 0,45"
         style="fill:none;stroke:#000000;stroke-linecap:round"
         inkscape:connector-curvature="0" />
      <path
         id="path3182"
         d="m 1718.5286,439.53273 -16.875,0"
         style="fill:none;stroke:#000000;stroke-linecap:round"
         inkscape:connector-curvature="0" />
      <path
         id="path3184"
         d="m 1718.5286,1238.7327 0,45"
         style="fill:none;stroke:#000000;stroke-linecap:round"
         inkscape:connector-curvature="0" />
      <path
         id="path3186"
         d="m 183.91518,1737.4461 1415.02682,0"
         style="fill:none;stroke:#000000;stroke-linecap:round"
         inkscape:connector-curvature="0" />
    </g>
  </g>
</svg>
