solid OpenSCAD_Model
  facet normal -1 0 0
    outer loop
      vertex -18.5 2.3 0
      vertex -18.5 2.3 9
      vertex -18.5 7.3 0
    endloop
  endfacet
  facet normal -1 0 0
    outer loop
      vertex -18.5 7.3 0
      vertex -18.5 2.3 9
      vertex -18.5 7.3 9
    endloop
  endfacet
  facet normal 0 -1 0
    outer loop
      vertex -15.5 2.3 3
      vertex -18.5 2.3 0
      vertex -10.2326 2.3 0
    endloop
  endfacet
  facet normal 0 -1 0
    outer loop
      vertex -18.5 2.3 9
      vertex -18.5 2.3 0
      vertex -15.5 2.3 3
    endloop
  endfacet
  facet normal 0 -1 0
    outer loop
      vertex -16 2.3 4.5
      vertex -15.9235 2.3 5.22769
      vertex -18.5 2.3 9
    endloop
  endfacet
  facet normal 0 -1 0
    outer loop
      vertex -16 2.3 4.5
      vertex -15.5 2.3 3
      vertex -15.5 2.3 4.5
    endloop
  endfacet
  facet normal 0 -1 0
    outer loop
      vertex -15.3316 2.3 6.55725
      vertex -14.842 2.3 7.10101
      vertex -18.5 2.3 9
    endloop
  endfacet
  facet normal 0 -1 0
    outer loop
      vertex -18.5 2.3 9
      vertex -15.5 2.3 3
      vertex -16 2.3 4.5
    endloop
  endfacet
  facet normal 0 -1 0
    outer loop
      vertex -18.5 2.3 9
      vertex -15.9235 2.3 5.22769
      vertex -15.6974 2.3 5.92358
    endloop
  endfacet
  facet normal 0 -1 0
    outer loop
      vertex -14.25 2.3 7.53109
      vertex -18.5 2.3 9
      vertex -14.842 2.3 7.10101
    endloop
  endfacet
  facet normal 0 -1 0
    outer loop
      vertex -13.5816 2.3 7.8287
      vertex -18.5 2.3 9
      vertex -14.25 2.3 7.53109
    endloop
  endfacet
  facet normal 0 -1 0
    outer loop
      vertex -12.8659 2.3 7.98083
      vertex -18.5 2.3 9
      vertex -13.5816 2.3 7.8287
    endloop
  endfacet
  facet normal 0 -1 0
    outer loop
      vertex -12.1341 2.3 7.98083
      vertex -18.5 2.3 9
      vertex -12.8659 2.3 7.98083
    endloop
  endfacet
  facet normal 0 -1 0
    outer loop
      vertex -10.2326 2.3 9
      vertex -18.5 2.3 9
      vertex -12.1341 2.3 7.98083
    endloop
  endfacet
  facet normal 0 -1 0
    outer loop
      vertex -10.2326 2.3 9
      vertex -12.1341 2.3 7.98083
      vertex -11.4184 2.3 7.8287
    endloop
  endfacet
  facet normal 0 -1 0
    outer loop
      vertex -10.2326 2.3 9
      vertex -11.4184 2.3 7.8287
      vertex -10.75 2.3 7.53109
    endloop
  endfacet
  facet normal 0 -1 0
    outer loop
      vertex -10.2326 2.3 9
      vertex -10.75 2.3 7.53109
      vertex -10.2326 2.3 7.15515
    endloop
  endfacet
  facet normal 0 -1 0
    outer loop
      vertex -15.6974 2.3 5.92358
      vertex -15.3316 2.3 6.55725
      vertex -18.5 2.3 9
    endloop
  endfacet
  facet normal 0 -1 0
    outer loop
      vertex -10.2326 2.3 3
      vertex -15.5 2.3 3
      vertex -10.2326 2.3 0
    endloop
  endfacet
  facet normal 0 0 -1
    outer loop
      vertex -18.5 2.3 0
      vertex -18.5 7.3 0
      vertex -10.2326 2.3 0
    endloop
  endfacet
  facet normal 0 0 -1
    outer loop
      vertex -10.2326 2.3 0
      vertex -18.5 7.3 0
      vertex -9 7.3 0
    endloop
  endfacet
  facet normal 0 0 -1
    outer loop
      vertex -10.2326 2.3 0
      vertex -9 7.3 0
      vertex -6 7.3 0
    endloop
  endfacet
  facet normal 0 0 -1
    outer loop
      vertex -10.2326 2.3 0
      vertex -6 7.3 0
      vertex -6 4.4835 0
    endloop
  endfacet
  facet normal 0 0 -1
    outer loop
      vertex -10.2326 2.3 0
      vertex -6 4.4835 0
      vertex -6.06763 4.40839 0
    endloop
  endfacet
  facet normal 0 0 -1
    outer loop
      vertex -10.2326 2.3 0
      vertex -6.06763 4.40839 0
      vertex -6.85159 3.05052 0
    endloop
  endfacet
  facet normal 0 0 -1
    outer loop
      vertex -6.85159 3.05052 0
      vertex -7.33611 1.55934 0
      vertex -10.2326 2.3 0
    endloop
  endfacet
  facet normal 0 0 -1
    outer loop
      vertex -10.2706 2.18307 0
      vertex -7.33611 1.55934 0
      vertex -7.5 0 0
    endloop
  endfacet
  facet normal 0 0 -1
    outer loop
      vertex -10.2706 2.18307 0
      vertex -7.5 0 0
      vertex -10.5 0 0
    endloop
  endfacet
  facet normal 0 0 -1
    outer loop
      vertex -10.5 0 0
      vertex -7.33611 -1.55934 0
      vertex -6.85159 -3.05052 0
    endloop
  endfacet
  facet normal 0 0 -1
    outer loop
      vertex -10.5 0 0
      vertex -6.85159 -3.05052 0
      vertex -6.06763 -4.40839 0
    endloop
  endfacet
  facet normal 0 0 -1
    outer loop
      vertex 7.5 0 0
      vertex 9 7.3 0
      vertex 7.33611 -1.55934 0
    endloop
  endfacet
  facet normal 0 0 -1
    outer loop
      vertex 6.85159 3.05052 0
      vertex 6 7.3 0
      vertex 7.33611 1.55934 0
    endloop
  endfacet
  facet normal 0 0 -1
    outer loop
      vertex 6.06763 4.40839 0
      vertex 6 4.4835 0
      vertex 6 7.3 0
    endloop
  endfacet
  facet normal 0 0 -1
    outer loop
      vertex 6.06763 4.40839 0
      vertex 6 7.3 0
      vertex 6.85159 3.05052 0
    endloop
  endfacet
  facet normal 0 0 -1
    outer loop
      vertex 7.33611 1.55934 0
      vertex 6 7.3 0
      vertex 9 7.3 0
    endloop
  endfacet
  facet normal 0 0 -1
    outer loop
      vertex 7.33611 1.55934 0
      vertex 9 7.3 0
      vertex 7.5 0 0
    endloop
  endfacet
  facet normal 0 0 -1
    outer loop
      vertex 10.2326 2.3 0
      vertex 9 7.3 0
      vertex 18.5 7.3 0
    endloop
  endfacet
  facet normal 0 0 -1
    outer loop
      vertex 7.33611 -1.55934 0
      vertex 9 7.3 0
      vertex 10.2326 2.3 0
    endloop
  endfacet
  facet normal 0 0 -1
    outer loop
      vertex 10.2706 -2.18307 0
      vertex 6.06763 -4.40839 0
      vertex 10.5 0 0
    endloop
  endfacet
  facet normal 0 0 -1
    outer loop
      vertex 7.33611 -1.55934 0
      vertex 10.2326 2.3 0
      vertex 10.2706 2.18307 0
    endloop
  endfacet
  facet normal 0 0 -1
    outer loop
      vertex -10.2706 -2.18307 0
      vertex -1.09755 -10.4425 0
      vertex -9.59223 -4.27074 0
    endloop
  endfacet
  facet normal 0 0 -1
    outer loop
      vertex 6.85159 -3.05052 0
      vertex 10.5 0 0
      vertex 6.06763 -4.40839 0
    endloop
  endfacet
  facet normal 0 0 -1
    outer loop
      vertex -10.2706 -2.18307 0
      vertex 1.09755 -10.4425 0
      vertex -1.09755 -10.4425 0
    endloop
  endfacet
  facet normal 0 0 -1
    outer loop
      vertex -8.49468 -6.17174 0
      vertex -5.25 -9.09327 0
      vertex -7.02587 -7.80302 0
    endloop
  endfacet
  facet normal 0 0 -1
    outer loop
      vertex 3.75 -6.49519 0
      vertex 9.59223 -4.27074 0
      vertex 2.31763 -7.13292 0
    endloop
  endfacet
  facet normal 0 0 -1
    outer loop
      vertex 2.31763 -7.13292 0
      vertex 9.59223 -4.27074 0
      vertex 8.49468 -6.17174 0
    endloop
  endfacet
  facet normal 0 0 -1
    outer loop
      vertex 2.31763 -7.13292 0
      vertex 8.49468 -6.17174 0
      vertex 0.783963 -7.45891 0
    endloop
  endfacet
  facet normal 0 0 -1
    outer loop
      vertex 0.783963 -7.45891 0
      vertex 8.49468 -6.17174 0
      vertex 7.02587 -7.80302 0
    endloop
  endfacet
  facet normal 0 0 -1
    outer loop
      vertex 0.783963 -7.45891 0
      vertex 7.02587 -7.80302 0
      vertex -0.783963 -7.45891 0
    endloop
  endfacet
  facet normal 0 0 -1
    outer loop
      vertex -0.783963 -7.45891 0
      vertex 7.02587 -7.80302 0
      vertex 5.25 -9.09327 0
    endloop
  endfacet
  facet normal 0 0 -1
    outer loop
      vertex -0.783963 -7.45891 0
      vertex 5.25 -9.09327 0
      vertex -2.31763 -7.13292 0
    endloop
  endfacet
  facet normal 0 0 -1
    outer loop
      vertex -2.31763 -7.13292 0
      vertex 5.25 -9.09327 0
      vertex 3.24468 -9.98609 0
    endloop
  endfacet
  facet normal 0 0 -1
    outer loop
      vertex -2.31763 -7.13292 0
      vertex 3.24468 -9.98609 0
      vertex -3.75 -6.49519 0
    endloop
  endfacet
  facet normal 0 0 -1
    outer loop
      vertex -3.75 -6.49519 0
      vertex 3.24468 -9.98609 0
      vertex 1.09755 -10.4425 0
    endloop
  endfacet
  facet normal 0 0 -1
    outer loop
      vertex -10.5 0 0
      vertex -6.06763 -4.40839 0
      vertex -10.2706 -2.18307 0
    endloop
  endfacet
  facet normal 0 0 -1
    outer loop
      vertex -10.2706 -2.18307 0
      vertex -5.01848 -5.57359 0
      vertex -3.75 -6.49519 0
    endloop
  endfacet
  facet normal 0 0 -1
    outer loop
      vertex -9.59223 -4.27074 0
      vertex -3.24468 -9.98609 0
      vertex -8.49468 -6.17174 0
    endloop
  endfacet
  facet normal 0 0 -1
    outer loop
      vertex -3.24468 -9.98609 0
      vertex -5.25 -9.09327 0
      vertex -8.49468 -6.17174 0
    endloop
  endfacet
  facet normal 0 0 -1
    outer loop
      vertex -10.2706 -2.18307 0
      vertex -3.75 -6.49519 0
      vertex 1.09755 -10.4425 0
    endloop
  endfacet
  facet normal 0 0 -1
    outer loop
      vertex -1.09755 -10.4425 0
      vertex -3.24468 -9.98609 0
      vertex -9.59223 -4.27074 0
    endloop
  endfacet
  facet normal 0 0 -1
    outer loop
      vertex -6.06763 -4.40839 0
      vertex -5.01848 -5.57359 0
      vertex -10.2706 -2.18307 0
    endloop
  endfacet
  facet normal 0 0 -1
    outer loop
      vertex -7.5 0 0
      vertex -7.33611 -1.55934 0
      vertex -10.5 0 0
    endloop
  endfacet
  facet normal 0 0 -1
    outer loop
      vertex -10.2326 2.3 0
      vertex -7.33611 1.55934 0
      vertex -10.2706 2.18307 0
    endloop
  endfacet
  facet normal 0 0 -1
    outer loop
      vertex 10.2326 2.3 0
      vertex 18.5 7.3 0
      vertex 18.5 2.3 0
    endloop
  endfacet
  facet normal 0 0 -1
    outer loop
      vertex 10.2706 -2.18307 0
      vertex 5.01848 -5.57359 0
      vertex 6.06763 -4.40839 0
    endloop
  endfacet
  facet normal 0 0 -1
    outer loop
      vertex 9.59223 -4.27074 0
      vertex 3.75 -6.49519 0
      vertex 5.01848 -5.57359 0
    endloop
  endfacet
  facet normal 0 0 -1
    outer loop
      vertex 9.59223 -4.27074 0
      vertex 5.01848 -5.57359 0
      vertex 10.2706 -2.18307 0
    endloop
  endfacet
  facet normal 0 0 -1
    outer loop
      vertex 10.5 0 0
      vertex 6.85159 -3.05052 0
      vertex 7.33611 -1.55934 0
    endloop
  endfacet
  facet normal 0 0 -1
    outer loop
      vertex 10.5 0 0
      vertex 7.33611 -1.55934 0
      vertex 10.2706 2.18307 0
    endloop
  endfacet
  facet normal 0 1 0
    outer loop
      vertex -9.5 7.3 3
      vertex -9 7.3 0
      vertex -15.5 7.3 3
    endloop
  endfacet
  facet normal 0 1 0
    outer loop
      vertex -9.5 7.3 6
      vertex -18.5 7.3 9
      vertex -9 7.3 9
    endloop
  endfacet
  facet normal 0 1 0
    outer loop
      vertex -18.5 7.3 0
      vertex -18.5 7.3 9
      vertex -15.5 7.3 6
    endloop
  endfacet
  facet normal 0 1 0
    outer loop
      vertex -18.5 7.3 0
      vertex -15.5 7.3 6
      vertex -15.5 7.3 3
    endloop
  endfacet
  facet normal 0 1 0
    outer loop
      vertex -18.5 7.3 0
      vertex -15.5 7.3 3
      vertex -9 7.3 0
    endloop
  endfacet
  facet normal 0 1 0
    outer loop
      vertex -9 7.3 0
      vertex -9.5 7.3 3
      vertex -9 7.3 9
    endloop
  endfacet
  facet normal 0 1 0
    outer loop
      vertex -9.5 7.3 3
      vertex -9.5 7.3 6
      vertex -9 7.3 9
    endloop
  endfacet
  facet normal 0 1 0
    outer loop
      vertex -15.5 7.3 6
      vertex -18.5 7.3 9
      vertex -9.5 7.3 6
    endloop
  endfacet
  facet normal 0 0 1
    outer loop
      vertex -10.2706 2.18307 9
      vertex -10.5 0 9
      vertex -10.2326 2.3 9
    endloop
  endfacet
  facet normal 0 0 1
    outer loop
      vertex -18.5 7.3 9
      vertex -18.5 2.3 9
      vertex -10.2326 2.3 9
    endloop
  endfacet
  facet normal 0 0 1
    outer loop
      vertex 3.75 -6.49519 9
      vertex 2.31763 -7.13292 9
      vertex 5.25 -9.09327 9
    endloop
  endfacet
  facet normal 0 0 1
    outer loop
      vertex -10.5 0 9
      vertex -10.2706 -2.18307 9
      vertex -10.2326 2.3 9
    endloop
  endfacet
  facet normal 0 0 1
    outer loop
      vertex -10.2706 -2.18307 9
      vertex -9.59223 -4.27074 9
      vertex -10.2326 2.3 9
    endloop
  endfacet
  facet normal 0 0 1
    outer loop
      vertex -9.59223 -4.27074 9
      vertex -8.49468 -6.17174 9
      vertex -10.2326 2.3 9
    endloop
  endfacet
  facet normal 0 0 1
    outer loop
      vertex -8.49468 -6.17174 9
      vertex -7.02587 -7.80302 9
      vertex -10.2326 2.3 9
    endloop
  endfacet
  facet normal 0 0 1
    outer loop
      vertex -7.02587 -7.80302 9
      vertex -5.25 -9.09327 9
      vertex -10.2326 2.3 9
    endloop
  endfacet
  facet normal 0 0 1
    outer loop
      vertex -5.25 -9.09327 9
      vertex -3.24468 -9.98609 9
      vertex -10.2326 2.3 9
    endloop
  endfacet
  facet normal 0 0 1
    outer loop
      vertex -7.33611 1.55934 9
      vertex -6.85159 3.05052 9
      vertex -18.5 7.3 9
    endloop
  endfacet
  facet normal 0 0 1
    outer loop
      vertex -6.85159 3.05052 9
      vertex -6.06763 4.40839 9
      vertex -18.5 7.3 9
    endloop
  endfacet
  facet normal 0 0 1
    outer loop
      vertex 18.5 2.3 9
      vertex 18.5 7.3 9
      vertex 9 7.3 9
    endloop
  endfacet
  facet normal 0 0 1
    outer loop
      vertex 18.5 2.3 9
      vertex 9 7.3 9
      vertex 6 7.3 9
    endloop
  endfacet
  facet normal 0 0 1
    outer loop
      vertex 18.5 2.3 9
      vertex 6 7.3 9
      vertex 6 4.4835 9
    endloop
  endfacet
  facet normal 0 0 1
    outer loop
      vertex 6.85159 3.05052 9
      vertex 10.2706 2.18307 9
      vertex 10.2326 2.3 9
    endloop
  endfacet
  facet normal 0 0 1
    outer loop
      vertex 18.5 2.3 9
      vertex 6 4.4835 9
      vertex 6.06763 4.40839 9
    endloop
  endfacet
  facet normal 0 0 1
    outer loop
      vertex 7.33611 1.55934 9
      vertex 7.5 0 9
      vertex 10.5 0 9
    endloop
  endfacet
  facet normal 0 0 1
    outer loop
      vertex 10.2326 2.3 9
      vertex 18.5 2.3 9
      vertex 6.85159 3.05052 9
    endloop
  endfacet
  facet normal 0 0 1
    outer loop
      vertex 10.5 0 9
      vertex 10.2706 2.18307 9
      vertex 7.33611 1.55934 9
    endloop
  endfacet
  facet normal 0 0 1
    outer loop
      vertex 6.85159 -3.05052 9
      vertex 6.06763 -4.40839 9
      vertex 9.59223 -4.27074 9
    endloop
  endfacet
  facet normal 0 0 1
    outer loop
      vertex 10.2706 -2.18307 9
      vertex 10.5 0 9
      vertex 7.5 0 9
    endloop
  endfacet
  facet normal 0 0 1
    outer loop
      vertex 9.59223 -4.27074 9
      vertex 10.2706 -2.18307 9
      vertex 7.33611 -1.55934 9
    endloop
  endfacet
  facet normal 0 0 1
    outer loop
      vertex 9.59223 -4.27074 9
      vertex 7.33611 -1.55934 9
      vertex 6.85159 -3.05052 9
    endloop
  endfacet
  facet normal 0 0 1
    outer loop
      vertex 5.01848 -5.57359 9
      vertex 3.75 -6.49519 9
      vertex 7.02587 -7.80302 9
    endloop
  endfacet
  facet normal 0 0 1
    outer loop
      vertex 8.49468 -6.17174 9
      vertex 9.59223 -4.27074 9
      vertex 6.06763 -4.40839 9
    endloop
  endfacet
  facet normal 0 0 1
    outer loop
      vertex -6.85159 -3.05052 9
      vertex -7.33611 -1.55934 9
      vertex -10.2326 2.3 9
    endloop
  endfacet
  facet normal 0 0 1
    outer loop
      vertex 7.02587 -7.80302 9
      vertex 8.49468 -6.17174 9
      vertex 5.01848 -5.57359 9
    endloop
  endfacet
  facet normal 0 0 1
    outer loop
      vertex 0.783963 -7.45891 9
      vertex -0.783963 -7.45891 9
      vertex 3.24468 -9.98609 9
    endloop
  endfacet
  facet normal 0 0 1
    outer loop
      vertex 5.25 -9.09327 9
      vertex 7.02587 -7.80302 9
      vertex 3.75 -6.49519 9
    endloop
  endfacet
  facet normal 0 0 1
    outer loop
      vertex -6 4.4835 9
      vertex -9 7.3 9
      vertex -18.5 7.3 9
    endloop
  endfacet
  facet normal 0 0 1
    outer loop
      vertex 3.24468 -9.98609 9
      vertex 5.25 -9.09327 9
      vertex 2.31763 -7.13292 9
    endloop
  endfacet
  facet normal 0 0 1
    outer loop
      vertex -0.783963 -7.45891 9
      vertex -2.31763 -7.13292 9
      vertex 1.09755 -10.4425 9
    endloop
  endfacet
  facet normal 0 0 1
    outer loop
      vertex 3.24468 -9.98609 9
      vertex 2.31763 -7.13292 9
      vertex 0.783963 -7.45891 9
    endloop
  endfacet
  facet normal 0 0 1
    outer loop
      vertex -3.75 -6.49519 9
      vertex -5.01848 -5.57359 9
      vertex -1.09755 -10.4425 9
    endloop
  endfacet
  facet normal 0 0 1
    outer loop
      vertex 1.09755 -10.4425 9
      vertex 3.24468 -9.98609 9
      vertex -0.783963 -7.45891 9
    endloop
  endfacet
  facet normal 0 0 1
    outer loop
      vertex -10.2326 2.3 9
      vertex -7.33611 1.55934 9
      vertex -18.5 7.3 9
    endloop
  endfacet
  facet normal 0 0 1
    outer loop
      vertex -1.09755 -10.4425 9
      vertex 1.09755 -10.4425 9
      vertex -2.31763 -7.13292 9
    endloop
  endfacet
  facet normal 0 0 1
    outer loop
      vertex -1.09755 -10.4425 9
      vertex -2.31763 -7.13292 9
      vertex -3.75 -6.49519 9
    endloop
  endfacet
  facet normal 0 0 1
    outer loop
      vertex -3.24468 -9.98609 9
      vertex -1.09755 -10.4425 9
      vertex -5.01848 -5.57359 9
    endloop
  endfacet
  facet normal 0 0 1
    outer loop
      vertex -3.24468 -9.98609 9
      vertex -6.06763 -4.40839 9
      vertex -10.2326 2.3 9
    endloop
  endfacet
  facet normal 0 0 1
    outer loop
      vertex -3.24468 -9.98609 9
      vertex -5.01848 -5.57359 9
      vertex -6.06763 -4.40839 9
    endloop
  endfacet
  facet normal 0 0 1
    outer loop
      vertex -6.06763 -4.40839 9
      vertex -6.85159 -3.05052 9
      vertex -10.2326 2.3 9
    endloop
  endfacet
  facet normal 0 0 1
    outer loop
      vertex 7.5 0 9
      vertex 7.33611 -1.55934 9
      vertex 10.2706 -2.18307 9
    endloop
  endfacet
  facet normal 0 0 1
    outer loop
      vertex 6.06763 -4.40839 9
      vertex 5.01848 -5.57359 9
      vertex 8.49468 -6.17174 9
    endloop
  endfacet
  facet normal 0 0 1
    outer loop
      vertex -6.06763 4.40839 9
      vertex -6 4.4835 9
      vertex -18.5 7.3 9
    endloop
  endfacet
  facet normal 0 0 1
    outer loop
      vertex 6.06763 4.40839 9
      vertex 6.85159 3.05052 9
      vertex 18.5 2.3 9
    endloop
  endfacet
  facet normal 0 0 1
    outer loop
      vertex 6.85159 3.05052 9
      vertex 7.33611 1.55934 9
      vertex 10.2706 2.18307 9
    endloop
  endfacet
  facet normal 0 0 1
    outer loop
      vertex -7.33611 -1.55934 9
      vertex -7.5 0 9
      vertex -10.2326 2.3 9
    endloop
  endfacet
  facet normal 0 0 1
    outer loop
      vertex -7.5 0 9
      vertex -7.33611 1.55934 9
      vertex -10.2326 2.3 9
    endloop
  endfacet
  facet normal 0 0 1
    outer loop
      vertex -6 4.4835 9
      vertex -6 7.3 9
      vertex -9 7.3 9
    endloop
  endfacet
  facet normal -0.951056 0.309017 0
    outer loop
      vertex -10.2706 2.18307 7.18275
      vertex -10.2706 2.18307 9
      vertex -10.2326 2.3 7.15515
    endloop
  endfacet
  facet normal -0.951056 0.309017 0
    outer loop
      vertex -10.2326 2.3 7.15515
      vertex -10.2706 2.18307 9
      vertex -10.2326 2.3 9
    endloop
  endfacet
  facet normal -0.587785 -1.79638e-016 -0.809017
    outer loop
      vertex -10.2326 2.3 7.15515
      vertex -10.75 2.3 7.53109
      vertex -10.158 2.3 7.10101
    endloop
  endfacet
  facet normal -0.587785 -1.79638e-016 -0.809017
    outer loop
      vertex -10.2326 2.3 7.15515
      vertex -10.158 2.3 7.10101
      vertex -10.158 -2.52933 7.10101
    endloop
  endfacet
  facet normal -0.587785 -1.79638e-016 -0.809017
    outer loop
      vertex -10.158 -2.52933 7.10101
      vertex -10.2706 -2.18307 7.18275
      vertex -10.5 0 7.34945
    endloop
  endfacet
  facet normal -0.587785 -1.79638e-016 -0.809017
    outer loop
      vertex -10.2326 2.3 7.15515
      vertex -10.158 -2.52933 7.10101
      vertex -10.2706 2.18307 7.18275
    endloop
  endfacet
  facet normal -0.587785 -1.79638e-016 -0.809017
    outer loop
      vertex -10.2706 2.18307 7.18275
      vertex -10.158 -2.52933 7.10101
      vertex -10.5 0 7.34945
    endloop
  endfacet
  facet normal 0 -1 2.22045e-016
    outer loop
      vertex -10.2326 2.3 3
      vertex -10.2326 2.3 1.84485
      vertex -9.5 2.3 3
    endloop
  endfacet
  facet normal 0 -1 2.22045e-016
    outer loop
      vertex -15.9235 2.3 5.22769
      vertex -16 2.3 4.5
      vertex -15.5 2.3 4.5
    endloop
  endfacet
  facet normal 0 -1 2.22045e-016
    outer loop
      vertex -15.3316 2.3 6.55725
      vertex -15.9235 2.3 5.22769
      vertex -15.5 2.3 6
    endloop
  endfacet
  facet normal 0 -1 2.22045e-016
    outer loop
      vertex -15.5 2.3 6
      vertex -15.9235 2.3 5.22769
      vertex -15.5 2.3 4.5
    endloop
  endfacet
  facet normal 0 -1 2.22045e-016
    outer loop
      vertex -9.66844 2.3 6.55725
      vertex -15.5 2.3 6
      vertex -9.5 2.3 6
    endloop
  endfacet
  facet normal 0 -1 2.22045e-016
    outer loop
      vertex -9.30259 2.3 3.07642
      vertex -9.5 2.3 6
      vertex -9.5 2.3 3
    endloop
  endfacet
  facet normal 0 -1 2.22045e-016
    outer loop
      vertex -10.2326 2.3 1.84485
      vertex -10.158 2.3 1.89899
      vertex -9.5 2.3 3
    endloop
  endfacet
  facet normal 0 -1 2.22045e-016
    outer loop
      vertex -10.158 2.3 1.89899
      vertex -9.66844 2.3 2.44275
      vertex -9.5 2.3 3
    endloop
  endfacet
  facet normal 0 -1 2.22045e-016
    outer loop
      vertex -9.66844 2.3 2.44275
      vertex -9.30259 2.3 3.07642
      vertex -9.5 2.3 3
    endloop
  endfacet
  facet normal 0 -1 2.22045e-016
    outer loop
      vertex -9.30259 2.3 3.07642
      vertex -9.07648 2.3 3.77231
      vertex -9.5 2.3 6
    endloop
  endfacet
  facet normal 0 -1 2.22045e-016
    outer loop
      vertex -9.07648 2.3 3.77231
      vertex -9 2.3 4.5
      vertex -9.5 2.3 6
    endloop
  endfacet
  facet normal 0 -1 2.22045e-016
    outer loop
      vertex -9 2.3 4.5
      vertex -9.07648 2.3 5.22769
      vertex -9.5 2.3 6
    endloop
  endfacet
  facet normal 0 -1 2.22045e-016
    outer loop
      vertex -9.07648 2.3 5.22769
      vertex -9.30259 2.3 5.92358
      vertex -9.5 2.3 6
    endloop
  endfacet
  facet normal 0 -1 2.22045e-016
    outer loop
      vertex -9.30259 2.3 5.92358
      vertex -9.66844 2.3 6.55725
      vertex -9.5 2.3 6
    endloop
  endfacet
  facet normal 0 -1 2.22045e-016
    outer loop
      vertex -9.66844 2.3 6.55725
      vertex -10.158 2.3 7.10101
      vertex -15.5 2.3 6
    endloop
  endfacet
  facet normal 0 -1 2.22045e-016
    outer loop
      vertex -10.158 2.3 7.10101
      vertex -10.75 2.3 7.53109
      vertex -15.5 2.3 6
    endloop
  endfacet
  facet normal 0 -1 2.22045e-016
    outer loop
      vertex -10.75 2.3 7.53109
      vertex -11.4184 2.3 7.8287
      vertex -15.5 2.3 6
    endloop
  endfacet
  facet normal 0 -1 2.22045e-016
    outer loop
      vertex -11.4184 2.3 7.8287
      vertex -12.1341 2.3 7.98083
      vertex -15.5 2.3 6
    endloop
  endfacet
  facet normal 0 -1 2.22045e-016
    outer loop
      vertex -12.1341 2.3 7.98083
      vertex -12.8659 2.3 7.98083
      vertex -15.5 2.3 6
    endloop
  endfacet
  facet normal 0 -1 2.22045e-016
    outer loop
      vertex -12.8659 2.3 7.98083
      vertex -13.5816 2.3 7.8287
      vertex -15.5 2.3 6
    endloop
  endfacet
  facet normal 0 -1 2.22045e-016
    outer loop
      vertex -13.5816 2.3 7.8287
      vertex -14.25 2.3 7.53109
      vertex -15.5 2.3 6
    endloop
  endfacet
  facet normal 0 -1 2.22045e-016
    outer loop
      vertex -14.25 2.3 7.53109
      vertex -14.842 2.3 7.10101
      vertex -15.5 2.3 6
    endloop
  endfacet
  facet normal 0 -1 2.22045e-016
    outer loop
      vertex -14.842 2.3 7.10101
      vertex -15.3316 2.3 6.55725
      vertex -15.5 2.3 6
    endloop
  endfacet
  facet normal 0 -1 2.22045e-016
    outer loop
      vertex -15.3316 2.3 6.55725
      vertex -15.6974 2.3 5.92358
      vertex -15.9235 2.3 5.22769
    endloop
  endfacet
  facet normal 1 0 0
    outer loop
      vertex -15.5 2.3 4.5
      vertex -15.5 2.3 3
      vertex -15.5 7.3 3
    endloop
  endfacet
  facet normal 1 0 0
    outer loop
      vertex -15.5 2.3 6
      vertex -15.5 2.3 4.5
      vertex -15.5 7.3 6
    endloop
  endfacet
  facet normal 1 0 0
    outer loop
      vertex -15.5 7.3 6
      vertex -15.5 2.3 4.5
      vertex -15.5 7.3 3
    endloop
  endfacet
  facet normal 0 0 1
    outer loop
      vertex -15.5 7.3 3
      vertex -15.5 2.3 3
      vertex -10.2326 2.3 3
    endloop
  endfacet
  facet normal 0 0 1
    outer loop
      vertex -9.5 2.3 3
      vertex -15.5 7.3 3
      vertex -10.2326 2.3 3
    endloop
  endfacet
  facet normal 0 0 1
    outer loop
      vertex -9.5 2.3 3
      vertex -9.5 7.3 3
      vertex -15.5 7.3 3
    endloop
  endfacet
  facet normal -0.951056 0.309017 0
    outer loop
      vertex -10.2706 2.18307 0
      vertex -10.2706 2.18307 1.81725
      vertex -10.2326 2.3 0
    endloop
  endfacet
  facet normal -0.951056 0.309017 0
    outer loop
      vertex -10.2326 2.3 0
      vertex -10.2706 2.18307 1.81725
      vertex -10.2326 2.3 1.84485
    endloop
  endfacet
  facet normal -0.951056 0.309017 0
    outer loop
      vertex -10.2326 2.3 0
      vertex -10.2326 2.3 1.84485
      vertex -10.2326 2.3 3
    endloop
  endfacet
  facet normal -0.994522 0.104528 0
    outer loop
      vertex -10.5 0 0
      vertex -10.5 0 1.65055
      vertex -10.2706 2.18307 0
    endloop
  endfacet
  facet normal -0.994522 0.104528 0
    outer loop
      vertex -10.2706 2.18307 0
      vertex -10.5 0 1.65055
      vertex -10.2706 2.18307 1.81725
    endloop
  endfacet
  facet normal -0.994522 -0.104528 0
    outer loop
      vertex -10.5 0 0
      vertex -10.2706 -2.18307 0
      vertex -10.5 0 1.65055
    endloop
  endfacet
  facet normal -0.994522 -0.104528 0
    outer loop
      vertex -10.5 0 1.65055
      vertex -10.2706 -2.18307 0
      vertex -10.2706 -2.18307 1.81725
    endloop
  endfacet
  facet normal -0.951056 -0.309017 0
    outer loop
      vertex -10.2706 -2.18307 0
      vertex -9.59223 -4.27074 0
      vertex -10.2706 -2.18307 1.81725
    endloop
  endfacet
  facet normal -0.951056 -0.309017 0
    outer loop
      vertex -9.66844 -4.03617 2.44275
      vertex -9.59223 -4.27074 0
      vertex -9.59223 -4.27074 2.57476
    endloop
  endfacet
  facet normal -0.951056 -0.309017 0
    outer loop
      vertex -10.158 -2.52933 1.89899
      vertex -9.59223 -4.27074 0
      vertex -9.66844 -4.03617 2.44275
    endloop
  endfacet
  facet normal -0.951056 -0.309017 0
    outer loop
      vertex -10.2706 -2.18307 1.81725
      vertex -9.59223 -4.27074 0
      vertex -10.158 -2.52933 1.89899
    endloop
  endfacet
  facet normal -0.866025 -0.5 0
    outer loop
      vertex -9.59223 -4.27074 0
      vertex -8.49468 -6.17174 0
      vertex -9.59223 -4.27074 2.57476
    endloop
  endfacet
  facet normal -0.866025 -0.5 0
    outer loop
      vertex -9.07648 -5.16403 5.22769
      vertex -8.49468 -6.17174 0
      vertex -8.49468 -6.17174 9
    endloop
  endfacet
  facet normal -0.866025 -0.5 0
    outer loop
      vertex -9.59223 -4.27074 6.42524
      vertex -8.49468 -6.17174 9
      vertex -9.59223 -4.27074 9
    endloop
  endfacet
  facet normal -0.866025 -0.5 0
    outer loop
      vertex -9.30259 -4.7724 5.92358
      vertex -8.49468 -6.17174 9
      vertex -9.59223 -4.27074 6.42524
    endloop
  endfacet
  facet normal -0.866025 -0.5 0
    outer loop
      vertex -9 -5.2965 4.5
      vertex -8.49468 -6.17174 0
      vertex -9.07648 -5.16403 5.22769
    endloop
  endfacet
  facet normal -0.866025 -0.5 0
    outer loop
      vertex -9.07648 -5.16403 3.77231
      vertex -8.49468 -6.17174 0
      vertex -9 -5.2965 4.5
    endloop
  endfacet
  facet normal -0.866025 -0.5 0
    outer loop
      vertex -9.30259 -4.7724 3.07642
      vertex -8.49468 -6.17174 0
      vertex -9.07648 -5.16403 3.77231
    endloop
  endfacet
  facet normal -0.866025 -0.5 0
    outer loop
      vertex -9.59223 -4.27074 2.57476
      vertex -8.49468 -6.17174 0
      vertex -9.30259 -4.7724 3.07642
    endloop
  endfacet
  facet normal -0.866025 -0.5 0
    outer loop
      vertex -9.07648 -5.16403 5.22769
      vertex -8.49468 -6.17174 9
      vertex -9.30259 -4.7724 5.92358
    endloop
  endfacet
  facet normal -0.743145 -0.66913 0
    outer loop
      vertex -8.49468 -6.17174 0
      vertex -7.02587 -7.80302 0
      vertex -8.49468 -6.17174 9
    endloop
  endfacet
  facet normal -0.743145 -0.66913 0
    outer loop
      vertex -8.49468 -6.17174 9
      vertex -7.02587 -7.80302 0
      vertex -7.02587 -7.80302 9
    endloop
  endfacet
  facet normal -0.587785 -0.809017 0
    outer loop
      vertex -7.02587 -7.80302 9
      vertex -7.02587 -7.80302 0
      vertex -5.25 -9.09327 0
    endloop
  endfacet
  facet normal -0.587785 -0.809017 0
    outer loop
      vertex -5.25 -9.09327 9
      vertex -7.02587 -7.80302 9
      vertex -5.25 -9.09327 0
    endloop
  endfacet
  facet normal -0.406736 -0.913546 0
    outer loop
      vertex -5.25 -9.09327 9
      vertex -5.25 -9.09327 0
      vertex -3.24468 -9.98609 0
    endloop
  endfacet
  facet normal -0.406736 -0.913546 0
    outer loop
      vertex -3.24468 -9.98609 9
      vertex -5.25 -9.09327 9
      vertex -3.24468 -9.98609 0
    endloop
  endfacet
  facet normal -0.207912 -0.978148 0
    outer loop
      vertex -3.24468 -9.98609 9
      vertex -3.24468 -9.98609 0
      vertex -1.09755 -10.4425 0
    endloop
  endfacet
  facet normal -0.207912 -0.978148 0
    outer loop
      vertex -1.09755 -10.4425 9
      vertex -3.24468 -9.98609 9
      vertex -1.09755 -10.4425 0
    endloop
  endfacet
  facet normal 0 -1 0
    outer loop
      vertex -1.09755 -10.4425 9
      vertex -1.09755 -10.4425 0
      vertex 1.09755 -10.4425 0
    endloop
  endfacet
  facet normal 0 -1 0
    outer loop
      vertex 1.09755 -10.4425 9
      vertex -1.09755 -10.4425 9
      vertex 1.09755 -10.4425 0
    endloop
  endfacet
  facet normal 0.207912 -0.978148 0
    outer loop
      vertex 1.09755 -10.4425 9
      vertex 1.09755 -10.4425 0
      vertex 3.24468 -9.98609 0
    endloop
  endfacet
  facet normal 0.207912 -0.978148 0
    outer loop
      vertex 3.24468 -9.98609 9
      vertex 1.09755 -10.4425 9
      vertex 3.24468 -9.98609 0
    endloop
  endfacet
  facet normal 0.406736 -0.913546 0
    outer loop
      vertex 3.24468 -9.98609 9
      vertex 3.24468 -9.98609 0
      vertex 5.25 -9.09327 0
    endloop
  endfacet
  facet normal 0.406736 -0.913546 0
    outer loop
      vertex 5.25 -9.09327 9
      vertex 3.24468 -9.98609 9
      vertex 5.25 -9.09327 0
    endloop
  endfacet
  facet normal 0.587785 -0.809017 0
    outer loop
      vertex 5.25 -9.09327 9
      vertex 5.25 -9.09327 0
      vertex 7.02587 -7.80302 0
    endloop
  endfacet
  facet normal 0.587785 -0.809017 0
    outer loop
      vertex 7.02587 -7.80302 9
      vertex 5.25 -9.09327 9
      vertex 7.02587 -7.80302 0
    endloop
  endfacet
  facet normal 0.743145 -0.66913 0
    outer loop
      vertex 7.02587 -7.80302 9
      vertex 7.02587 -7.80302 0
      vertex 8.49468 -6.17174 0
    endloop
  endfacet
  facet normal 0.743145 -0.66913 0
    outer loop
      vertex 8.49468 -6.17174 9
      vertex 7.02587 -7.80302 9
      vertex 8.49468 -6.17174 0
    endloop
  endfacet
  facet normal 0.866025 -0.5 0
    outer loop
      vertex 9.07648 -5.16403 3.77231
      vertex 8.49468 -6.17174 0
      vertex 9.59223 -4.27074 0
    endloop
  endfacet
  facet normal 0.866025 -0.5 0
    outer loop
      vertex 9.59223 -4.27074 2.57476
      vertex 9.30259 -4.7724 3.07642
      vertex 9.59223 -4.27074 0
    endloop
  endfacet
  facet normal 0.866025 -0.5 0
    outer loop
      vertex 8.49468 -6.17174 9
      vertex 8.49468 -6.17174 0
      vertex 9.07648 -5.16403 3.77231
    endloop
  endfacet
  facet normal 0.866025 -0.5 0
    outer loop
      vertex 9 -5.2965 4.5
      vertex 9.07648 -5.16403 5.22769
      vertex 8.49468 -6.17174 9
    endloop
  endfacet
  facet normal 0.866025 -0.5 0
    outer loop
      vertex 8.49468 -6.17174 9
      vertex 9.07648 -5.16403 3.77231
      vertex 9 -5.2965 4.5
    endloop
  endfacet
  facet normal 0.866025 -0.5 0
    outer loop
      vertex 9.59223 -4.27074 6.42524
      vertex 8.49468 -6.17174 9
      vertex 9.30259 -4.7724 5.92358
    endloop
  endfacet
  facet normal 0.866025 -0.5 0
    outer loop
      vertex 9.59223 -4.27074 9
      vertex 8.49468 -6.17174 9
      vertex 9.59223 -4.27074 6.42524
    endloop
  endfacet
  facet normal 0.866025 -0.5 0
    outer loop
      vertex 9.07648 -5.16403 5.22769
      vertex 9.30259 -4.7724 5.92358
      vertex 8.49468 -6.17174 9
    endloop
  endfacet
  facet normal 0.866025 -0.5 0
    outer loop
      vertex 9.30259 -4.7724 3.07642
      vertex 9.07648 -5.16403 3.77231
      vertex 9.59223 -4.27074 0
    endloop
  endfacet
  facet normal 0.951056 -0.309017 0
    outer loop
      vertex 9.59223 -4.27074 2.57476
      vertex 9.59223 -4.27074 0
      vertex 10.2706 -2.18307 0
    endloop
  endfacet
  facet normal 0.951056 -0.309017 0
    outer loop
      vertex 9.66844 -4.03617 2.44275
      vertex 9.59223 -4.27074 2.57476
      vertex 10.2706 -2.18307 0
    endloop
  endfacet
  facet normal 0.951056 -0.309017 0
    outer loop
      vertex 10.2706 -2.18307 1.81725
      vertex 10.158 -2.52933 1.89899
      vertex 10.2706 -2.18307 0
    endloop
  endfacet
  facet normal 0.951056 -0.309017 0
    outer loop
      vertex 10.158 -2.52933 1.89899
      vertex 9.66844 -4.03617 2.44275
      vertex 10.2706 -2.18307 0
    endloop
  endfacet
  facet normal 0.994522 -0.104528 0
    outer loop
      vertex 10.2706 -2.18307 1.81725
      vertex 10.2706 -2.18307 0
      vertex 10.5 0 0
    endloop
  endfacet
  facet normal 0.994522 -0.104528 0
    outer loop
      vertex 10.5 0 1.65055
      vertex 10.2706 -2.18307 1.81725
      vertex 10.5 0 0
    endloop
  endfacet
  facet normal 0.994522 0.104528 0
    outer loop
      vertex 10.5 0 0
      vertex 10.2706 2.18307 0
      vertex 10.2706 2.18307 1.81725
    endloop
  endfacet
  facet normal 0.994522 0.104528 0
    outer loop
      vertex 10.5 0 1.65055
      vertex 10.5 0 0
      vertex 10.2706 2.18307 1.81725
    endloop
  endfacet
  facet normal 0.951056 0.309017 0
    outer loop
      vertex 10.2326 2.3 1.84485
      vertex 10.2326 2.3 0
      vertex 10.2326 2.3 3
    endloop
  endfacet
  facet normal 0.951056 0.309017 0
    outer loop
      vertex 10.2326 2.3 1.84485
      vertex 10.2706 2.18307 1.81725
      vertex 10.2706 2.18307 0
    endloop
  endfacet
  facet normal 0.951056 0.309017 0
    outer loop
      vertex 10.2706 2.18307 0
      vertex 10.2326 2.3 0
      vertex 10.2326 2.3 1.84485
    endloop
  endfacet
  facet normal 0 -1 0
    outer loop
      vertex 10.2326 2.3 3
      vertex 10.2326 2.3 0
      vertex 18.5 2.3 0
    endloop
  endfacet
  facet normal 0 -1 0
    outer loop
      vertex 15.6974 2.3 5.92358
      vertex 15.9235 2.3 5.22769
      vertex 18.5 2.3 0
    endloop
  endfacet
  facet normal 0 -1 0
    outer loop
      vertex 15.5 2.3 3
      vertex 10.2326 2.3 3
      vertex 18.5 2.3 0
    endloop
  endfacet
  facet normal 0 -1 0
    outer loop
      vertex 14.842 2.3 7.10101
      vertex 15.3316 2.3 6.55725
      vertex 18.5 2.3 9
    endloop
  endfacet
  facet normal 0 -1 0
    outer loop
      vertex 10.2326 2.3 9
      vertex 10.2326 2.3 7.15515
      vertex 10.75 2.3 7.53109
    endloop
  endfacet
  facet normal 0 -1 0
    outer loop
      vertex 10.2326 2.3 9
      vertex 10.75 2.3 7.53109
      vertex 11.4184 2.3 7.8287
    endloop
  endfacet
  facet normal 0 -1 0
    outer loop
      vertex 10.2326 2.3 9
      vertex 12.1341 2.3 7.98083
      vertex 18.5 2.3 9
    endloop
  endfacet
  facet normal 0 -1 0
    outer loop
      vertex 10.2326 2.3 9
      vertex 11.4184 2.3 7.8287
      vertex 12.1341 2.3 7.98083
    endloop
  endfacet
  facet normal 0 -1 0
    outer loop
      vertex 13.5816 2.3 7.8287
      vertex 14.25 2.3 7.53109
      vertex 18.5 2.3 9
    endloop
  endfacet
  facet normal 0 -1 0
    outer loop
      vertex 14.25 2.3 7.53109
      vertex 14.842 2.3 7.10101
      vertex 18.5 2.3 9
    endloop
  endfacet
  facet normal 0 -1 0
    outer loop
      vertex 15.5 2.3 4.5
      vertex 15.5 2.3 3
      vertex 16 2.3 4.5
    endloop
  endfacet
  facet normal 0 -1 0
    outer loop
      vertex 18.5 2.3 9
      vertex 15.6974 2.3 5.92358
      vertex 18.5 2.3 0
    endloop
  endfacet
  facet normal 0 -1 0
    outer loop
      vertex 18.5 2.3 9
      vertex 15.3316 2.3 6.55725
      vertex 15.6974 2.3 5.92358
    endloop
  endfacet
  facet normal 0 -1 0
    outer loop
      vertex 15.9235 2.3 5.22769
      vertex 16 2.3 4.5
      vertex 18.5 2.3 0
    endloop
  endfacet
  facet normal 0 -1 0
    outer loop
      vertex 16 2.3 4.5
      vertex 15.5 2.3 3
      vertex 18.5 2.3 0
    endloop
  endfacet
  facet normal 0 -1 0
    outer loop
      vertex 12.1341 2.3 7.98083
      vertex 12.8659 2.3 7.98083
      vertex 18.5 2.3 9
    endloop
  endfacet
  facet normal 0 -1 0
    outer loop
      vertex 12.8659 2.3 7.98083
      vertex 13.5816 2.3 7.8287
      vertex 18.5 2.3 9
    endloop
  endfacet
  facet normal 1 0 0
    outer loop
      vertex 18.5 2.3 9
      vertex 18.5 2.3 0
      vertex 18.5 7.3 0
    endloop
  endfacet
  facet normal 1 0 0
    outer loop
      vertex 18.5 7.3 9
      vertex 18.5 2.3 9
      vertex 18.5 7.3 0
    endloop
  endfacet
  facet normal 0 1 0
    outer loop
      vertex 15.5 7.3 3
      vertex 18.5 7.3 0
      vertex 9.5 7.3 3
    endloop
  endfacet
  facet normal 0 1 0
    outer loop
      vertex 15.5 7.3 6
      vertex 9 7.3 9
      vertex 18.5 7.3 9
    endloop
  endfacet
  facet normal 0 1 0
    outer loop
      vertex 9 7.3 0
      vertex 9 7.3 9
      vertex 9.5 7.3 6
    endloop
  endfacet
  facet normal 0 1 0
    outer loop
      vertex 9 7.3 0
      vertex 9.5 7.3 6
      vertex 9.5 7.3 3
    endloop
  endfacet
  facet normal 0 1 0
    outer loop
      vertex 9 7.3 0
      vertex 9.5 7.3 3
      vertex 18.5 7.3 0
    endloop
  endfacet
  facet normal 0 1 0
    outer loop
      vertex 18.5 7.3 0
      vertex 15.5 7.3 3
      vertex 18.5 7.3 9
    endloop
  endfacet
  facet normal 0 1 0
    outer loop
      vertex 15.5 7.3 3
      vertex 15.5 7.3 6
      vertex 18.5 7.3 9
    endloop
  endfacet
  facet normal 0 1 0
    outer loop
      vertex 9.5 7.3 6
      vertex 9 7.3 9
      vertex 15.5 7.3 6
    endloop
  endfacet
  facet normal 0 1 0
    outer loop
      vertex 6 7.3 0
      vertex 6 7.3 9
      vertex 9 7.3 0
    endloop
  endfacet
  facet normal 0 1 0
    outer loop
      vertex 9 7.3 0
      vertex 6 7.3 9
      vertex 9 7.3 9
    endloop
  endfacet
  facet normal -1 0 0
    outer loop
      vertex 6 7.3 9
      vertex 6 7.3 0
      vertex 6 4.4835 9
    endloop
  endfacet
  facet normal -1 0 0
    outer loop
      vertex 6 4.4835 9
      vertex 6 7.3 0
      vertex 6 4.4835 0
    endloop
  endfacet
  facet normal -0.743145 -0.66913 0
    outer loop
      vertex 6.06763 4.40839 9
      vertex 6 4.4835 9
      vertex 6.06763 4.40839 0
    endloop
  endfacet
  facet normal -0.743145 -0.66913 0
    outer loop
      vertex 6.06763 4.40839 0
      vertex 6 4.4835 9
      vertex 6 4.4835 0
    endloop
  endfacet
  facet normal -0.866025 -0.5 0
    outer loop
      vertex 6.85159 3.05052 9
      vertex 6.06763 4.40839 9
      vertex 6.85159 3.05052 0
    endloop
  endfacet
  facet normal -0.866025 -0.5 0
    outer loop
      vertex 6.85159 3.05052 0
      vertex 6.06763 4.40839 9
      vertex 6.06763 4.40839 0
    endloop
  endfacet
  facet normal -0.951057 -0.309017 0
    outer loop
      vertex 7.33611 1.55934 9
      vertex 6.85159 3.05052 9
      vertex 7.33611 1.55934 0
    endloop
  endfacet
  facet normal -0.951057 -0.309017 0
    outer loop
      vertex 7.33611 1.55934 0
      vertex 6.85159 3.05052 9
      vertex 6.85159 3.05052 0
    endloop
  endfacet
  facet normal -0.994522 -0.104528 0
    outer loop
      vertex 7.5 0 9
      vertex 7.33611 1.55934 9
      vertex 7.5 0 0
    endloop
  endfacet
  facet normal -0.994522 -0.104528 0
    outer loop
      vertex 7.5 0 0
      vertex 7.33611 1.55934 9
      vertex 7.33611 1.55934 0
    endloop
  endfacet
  facet normal -0.994522 0.104528 0
    outer loop
      vertex 7.5 0 9
      vertex 7.5 0 0
      vertex 7.33611 -1.55934 9
    endloop
  endfacet
  facet normal -0.994522 0.104528 0
    outer loop
      vertex 7.33611 -1.55934 9
      vertex 7.5 0 0
      vertex 7.33611 -1.55934 0
    endloop
  endfacet
  facet normal -0.951057 0.309017 0
    outer loop
      vertex 7.33611 -1.55934 9
      vertex 7.33611 -1.55934 0
      vertex 6.85159 -3.05052 9
    endloop
  endfacet
  facet normal -0.951057 0.309017 0
    outer loop
      vertex 6.85159 -3.05052 9
      vertex 7.33611 -1.55934 0
      vertex 6.85159 -3.05052 0
    endloop
  endfacet
  facet normal -0.866025 0.5 0
    outer loop
      vertex 6.85159 -3.05052 9
      vertex 6.85159 -3.05052 0
      vertex 6.06763 -4.40839 9
    endloop
  endfacet
  facet normal -0.866025 0.5 0
    outer loop
      vertex 6.06763 -4.40839 9
      vertex 6.85159 -3.05052 0
      vertex 6.06763 -4.40839 0
    endloop
  endfacet
  facet normal -0.743145 0.66913 0
    outer loop
      vertex 6.06763 -4.40839 9
      vertex 6.06763 -4.40839 0
      vertex 5.01848 -5.57359 9
    endloop
  endfacet
  facet normal -0.743145 0.66913 0
    outer loop
      vertex 5.01848 -5.57359 9
      vertex 6.06763 -4.40839 0
      vertex 5.01848 -5.57359 0
    endloop
  endfacet
  facet normal -0.587785 0.809017 0
    outer loop
      vertex 5.01848 -5.57359 9
      vertex 5.01848 -5.57359 0
      vertex 3.75 -6.49519 9
    endloop
  endfacet
  facet normal -0.587785 0.809017 0
    outer loop
      vertex 3.75 -6.49519 9
      vertex 5.01848 -5.57359 0
      vertex 3.75 -6.49519 0
    endloop
  endfacet
  facet normal -0.406736 0.913546 0
    outer loop
      vertex 3.75 -6.49519 9
      vertex 3.75 -6.49519 0
      vertex 2.31763 -7.13292 9
    endloop
  endfacet
  facet normal -0.406736 0.913546 0
    outer loop
      vertex 2.31763 -7.13292 9
      vertex 3.75 -6.49519 0
      vertex 2.31763 -7.13292 0
    endloop
  endfacet
  facet normal -0.207911 0.978148 0
    outer loop
      vertex 2.31763 -7.13292 9
      vertex 2.31763 -7.13292 0
      vertex 0.783963 -7.45891 9
    endloop
  endfacet
  facet normal -0.207911 0.978148 0
    outer loop
      vertex 0.783963 -7.45891 9
      vertex 2.31763 -7.13292 0
      vertex 0.783963 -7.45891 0
    endloop
  endfacet
  facet normal 0 1 0
    outer loop
      vertex 0.783963 -7.45891 9
      vertex 0.783963 -7.45891 0
      vertex -0.783963 -7.45891 9
    endloop
  endfacet
  facet normal 0 1 0
    outer loop
      vertex -0.783963 -7.45891 9
      vertex 0.783963 -7.45891 0
      vertex -0.783963 -7.45891 0
    endloop
  endfacet
  facet normal 0.207911 0.978148 0
    outer loop
      vertex -0.783963 -7.45891 9
      vertex -0.783963 -7.45891 0
      vertex -2.31763 -7.13292 9
    endloop
  endfacet
  facet normal 0.207911 0.978148 0
    outer loop
      vertex -2.31763 -7.13292 9
      vertex -0.783963 -7.45891 0
      vertex -2.31763 -7.13292 0
    endloop
  endfacet
  facet normal 0.406736 0.913546 0
    outer loop
      vertex -2.31763 -7.13292 9
      vertex -2.31763 -7.13292 0
      vertex -3.75 -6.49519 9
    endloop
  endfacet
  facet normal 0.406736 0.913546 0
    outer loop
      vertex -3.75 -6.49519 9
      vertex -2.31763 -7.13292 0
      vertex -3.75 -6.49519 0
    endloop
  endfacet
  facet normal 0.587785 0.809017 0
    outer loop
      vertex -3.75 -6.49519 9
      vertex -3.75 -6.49519 0
      vertex -5.01848 -5.57359 9
    endloop
  endfacet
  facet normal 0.587785 0.809017 0
    outer loop
      vertex -5.01848 -5.57359 9
      vertex -3.75 -6.49519 0
      vertex -5.01848 -5.57359 0
    endloop
  endfacet
  facet normal 0.743145 0.66913 0
    outer loop
      vertex -6.06763 -4.40839 9
      vertex -5.01848 -5.57359 9
      vertex -5.01848 -5.57359 0
    endloop
  endfacet
  facet normal 0.743145 0.66913 0
    outer loop
      vertex -6.06763 -4.40839 0
      vertex -6.06763 -4.40839 9
      vertex -5.01848 -5.57359 0
    endloop
  endfacet
  facet normal 0.866025 0.5 0
    outer loop
      vertex -6.85159 -3.05052 9
      vertex -6.06763 -4.40839 9
      vertex -6.06763 -4.40839 0
    endloop
  endfacet
  facet normal 0.866025 0.5 0
    outer loop
      vertex -6.85159 -3.05052 0
      vertex -6.85159 -3.05052 9
      vertex -6.06763 -4.40839 0
    endloop
  endfacet
  facet normal 0.951057 0.309017 0
    outer loop
      vertex -7.33611 -1.55934 9
      vertex -6.85159 -3.05052 9
      vertex -6.85159 -3.05052 0
    endloop
  endfacet
  facet normal 0.951057 0.309017 0
    outer loop
      vertex -7.33611 -1.55934 0
      vertex -7.33611 -1.55934 9
      vertex -6.85159 -3.05052 0
    endloop
  endfacet
  facet normal 0.994522 0.104528 0
    outer loop
      vertex -7.5 0 9
      vertex -7.33611 -1.55934 9
      vertex -7.33611 -1.55934 0
    endloop
  endfacet
  facet normal 0.994522 0.104528 0
    outer loop
      vertex -7.5 0 0
      vertex -7.5 0 9
      vertex -7.33611 -1.55934 0
    endloop
  endfacet
  facet normal 0.994522 -0.104528 0
    outer loop
      vertex -7.33611 1.55934 0
      vertex -7.33611 1.55934 9
      vertex -7.5 0 9
    endloop
  endfacet
  facet normal 0.994522 -0.104528 0
    outer loop
      vertex -7.5 0 0
      vertex -7.33611 1.55934 0
      vertex -7.5 0 9
    endloop
  endfacet
  facet normal 0.951057 -0.309017 0
    outer loop
      vertex -6.85159 3.05052 0
      vertex -6.85159 3.05052 9
      vertex -7.33611 1.55934 9
    endloop
  endfacet
  facet normal 0.951057 -0.309017 0
    outer loop
      vertex -7.33611 1.55934 0
      vertex -6.85159 3.05052 0
      vertex -7.33611 1.55934 9
    endloop
  endfacet
  facet normal 0.866025 -0.5 0
    outer loop
      vertex -6.06763 4.40839 0
      vertex -6.06763 4.40839 9
      vertex -6.85159 3.05052 9
    endloop
  endfacet
  facet normal 0.866025 -0.5 0
    outer loop
      vertex -6.85159 3.05052 0
      vertex -6.06763 4.40839 0
      vertex -6.85159 3.05052 9
    endloop
  endfacet
  facet normal 0.743145 -0.66913 0
    outer loop
      vertex -6 4.4835 0
      vertex -6 4.4835 9
      vertex -6.06763 4.40839 9
    endloop
  endfacet
  facet normal 0.743145 -0.66913 0
    outer loop
      vertex -6.06763 4.40839 0
      vertex -6 4.4835 0
      vertex -6.06763 4.40839 9
    endloop
  endfacet
  facet normal 1 0 0
    outer loop
      vertex -6 7.3 0
      vertex -6 7.3 9
      vertex -6 4.4835 9
    endloop
  endfacet
  facet normal 1 0 0
    outer loop
      vertex -6 4.4835 0
      vertex -6 7.3 0
      vertex -6 4.4835 9
    endloop
  endfacet
  facet normal 0 1 0
    outer loop
      vertex -9 7.3 0
      vertex -9 7.3 9
      vertex -6 7.3 0
    endloop
  endfacet
  facet normal 0 1 0
    outer loop
      vertex -6 7.3 0
      vertex -9 7.3 9
      vertex -6 7.3 9
    endloop
  endfacet
  facet normal 0 0 -1
    outer loop
      vertex -15.5 2.3 6
      vertex -15.5 7.3 6
      vertex -9.5 2.3 6
    endloop
  endfacet
  facet normal 0 0 -1
    outer loop
      vertex -9.5 2.3 6
      vertex -15.5 7.3 6
      vertex -9.5 7.3 6
    endloop
  endfacet
  facet normal -1 0 0
    outer loop
      vertex -9.5 2.3 3
      vertex -9.5 2.3 6
      vertex -9.5 7.3 3
    endloop
  endfacet
  facet normal -1 0 0
    outer loop
      vertex -9.5 7.3 3
      vertex -9.5 2.3 6
      vertex -9.5 7.3 6
    endloop
  endfacet
  facet normal 0.951056 0.309017 0
    outer loop
      vertex 10.2706 2.18307 7.18275
      vertex 10.2326 2.3 7.15515
      vertex 10.2326 2.3 9
    endloop
  endfacet
  facet normal 0.951056 0.309017 0
    outer loop
      vertex 10.2706 2.18307 9
      vertex 10.2706 2.18307 7.18275
      vertex 10.2326 2.3 9
    endloop
  endfacet
  facet normal 0.994522 0.104528 0
    outer loop
      vertex 10.5 0 7.34945
      vertex 10.2706 2.18307 7.18275
      vertex 10.2706 2.18307 9
    endloop
  endfacet
  facet normal 0.994522 0.104528 0
    outer loop
      vertex 10.5 0 9
      vertex 10.5 0 7.34945
      vertex 10.2706 2.18307 9
    endloop
  endfacet
  facet normal 0.994522 -0.104528 0
    outer loop
      vertex 10.2706 -2.18307 9
      vertex 10.2706 -2.18307 7.18275
      vertex 10.5 0 7.34945
    endloop
  endfacet
  facet normal 0.994522 -0.104528 0
    outer loop
      vertex 10.5 0 9
      vertex 10.2706 -2.18307 9
      vertex 10.5 0 7.34945
    endloop
  endfacet
  facet normal 0.951056 -0.309017 0
    outer loop
      vertex 9.59223 -4.27074 9
      vertex 9.59223 -4.27074 6.42524
      vertex 9.66844 -4.03617 6.55725
    endloop
  endfacet
  facet normal 0.951056 -0.309017 0
    outer loop
      vertex 10.158 -2.52933 7.10101
      vertex 9.59223 -4.27074 9
      vertex 9.66844 -4.03617 6.55725
    endloop
  endfacet
  facet normal 0.951056 -0.309017 0
    outer loop
      vertex 10.158 -2.52933 7.10101
      vertex 10.2706 -2.18307 7.18275
      vertex 9.59223 -4.27074 9
    endloop
  endfacet
  facet normal 0.951056 -0.309017 0
    outer loop
      vertex 10.2706 -2.18307 7.18275
      vertex 10.2706 -2.18307 9
      vertex 9.59223 -4.27074 9
    endloop
  endfacet
  facet normal -0.951056 -0.309017 0
    outer loop
      vertex -10.2706 -2.18307 7.18275
      vertex -10.158 -2.52933 7.10101
      vertex -10.2706 -2.18307 9
    endloop
  endfacet
  facet normal -0.951056 -0.309017 0
    outer loop
      vertex -10.2706 -2.18307 9
      vertex -10.158 -2.52933 7.10101
      vertex -9.66844 -4.03617 6.55725
    endloop
  endfacet
  facet normal -0.951056 -0.309017 0
    outer loop
      vertex -9.66844 -4.03617 6.55725
      vertex -9.59223 -4.27074 6.42524
      vertex -10.2706 -2.18307 9
    endloop
  endfacet
  facet normal -0.951056 -0.309017 0
    outer loop
      vertex -10.2706 -2.18307 9
      vertex -9.59223 -4.27074 6.42524
      vertex -9.59223 -4.27074 9
    endloop
  endfacet
  facet normal -0.994522 -0.104528 0
    outer loop
      vertex -10.5 0 7.34945
      vertex -10.2706 -2.18307 7.18275
      vertex -10.5 0 9
    endloop
  endfacet
  facet normal -0.994522 -0.104528 0
    outer loop
      vertex -10.5 0 9
      vertex -10.2706 -2.18307 7.18275
      vertex -10.2706 -2.18307 9
    endloop
  endfacet
  facet normal -0.994522 0.104528 0
    outer loop
      vertex -10.5 0 7.34945
      vertex -10.5 0 9
      vertex -10.2706 2.18307 7.18275
    endloop
  endfacet
  facet normal -0.994522 0.104528 0
    outer loop
      vertex -10.2706 2.18307 7.18275
      vertex -10.5 0 9
      vertex -10.2706 2.18307 9
    endloop
  endfacet
  facet normal -0.743145 -1.48577e-016 -0.66913
    outer loop
      vertex -10.158 -2.52933 7.10101
      vertex -10.158 2.3 7.10101
      vertex -9.66844 -4.03617 6.55725
    endloop
  endfacet
  facet normal -0.743145 -1.48577e-016 -0.66913
    outer loop
      vertex -9.66844 -4.03617 6.55725
      vertex -10.158 2.3 7.10101
      vertex -9.66844 2.3 6.55725
    endloop
  endfacet
  facet normal -0.866025 -1.11022e-016 -0.5
    outer loop
      vertex -9.66844 -4.03617 6.55725
      vertex -9.66844 2.3 6.55725
      vertex -9.59223 -4.27074 6.42524
    endloop
  endfacet
  facet normal -0.866025 -1.11022e-016 -0.5
    outer loop
      vertex -9.59223 -4.27074 6.42524
      vertex -9.66844 2.3 6.55725
      vertex -9.30259 2.3 5.92358
    endloop
  endfacet
  facet normal -0.866025 -1.11022e-016 -0.5
    outer loop
      vertex -9.59223 -4.27074 6.42524
      vertex -9.30259 2.3 5.92358
      vertex -9.30259 -4.7724 5.92358
    endloop
  endfacet
  facet normal -0.951056 -6.86157e-017 -0.309018
    outer loop
      vertex -9.30259 -4.7724 5.92358
      vertex -9.30259 2.3 5.92358
      vertex -9.07648 -5.16403 5.22769
    endloop
  endfacet
  facet normal -0.951056 -6.86157e-017 -0.309018
    outer loop
      vertex -9.07648 -5.16403 5.22769
      vertex -9.30259 2.3 5.92358
      vertex -9.07648 2.3 5.22769
    endloop
  endfacet
  facet normal -0.994522 -2.32099e-017 -0.104528
    outer loop
      vertex -9.07648 -5.16403 5.22769
      vertex -9.07648 2.3 5.22769
      vertex -9 -5.2965 4.5
    endloop
  endfacet
  facet normal -0.994522 -2.32099e-017 -0.104528
    outer loop
      vertex -9 -5.2965 4.5
      vertex -9.07648 2.3 5.22769
      vertex -9 2.3 4.5
    endloop
  endfacet
  facet normal -0.994522 2.32099e-017 0.104528
    outer loop
      vertex -9.07648 -5.16403 3.77231
      vertex -9 -5.2965 4.5
      vertex -9.07648 2.3 3.77231
    endloop
  endfacet
  facet normal -0.994522 2.32099e-017 0.104528
    outer loop
      vertex -9.07648 2.3 3.77231
      vertex -9 -5.2965 4.5
      vertex -9 2.3 4.5
    endloop
  endfacet
  facet normal -0.951056 6.86157e-017 0.309018
    outer loop
      vertex -9.30259 -4.7724 3.07642
      vertex -9.07648 -5.16403 3.77231
      vertex -9.30259 2.3 3.07642
    endloop
  endfacet
  facet normal -0.951056 6.86157e-017 0.309018
    outer loop
      vertex -9.30259 2.3 3.07642
      vertex -9.07648 -5.16403 3.77231
      vertex -9.07648 2.3 3.77231
    endloop
  endfacet
  facet normal -0.866025 1.11022e-016 0.5
    outer loop
      vertex -9.66844 -4.03617 2.44275
      vertex -9.59223 -4.27074 2.57476
      vertex -9.66844 2.3 2.44275
    endloop
  endfacet
  facet normal -0.866025 1.11022e-016 0.5
    outer loop
      vertex -9.66844 2.3 2.44275
      vertex -9.59223 -4.27074 2.57476
      vertex -9.30259 -4.7724 3.07642
    endloop
  endfacet
  facet normal -0.866025 1.11022e-016 0.5
    outer loop
      vertex -9.66844 2.3 2.44275
      vertex -9.30259 -4.7724 3.07642
      vertex -9.30259 2.3 3.07642
    endloop
  endfacet
  facet normal -0.743145 1.48577e-016 0.66913
    outer loop
      vertex -10.158 -2.52933 1.89899
      vertex -9.66844 -4.03617 2.44275
      vertex -10.158 2.3 1.89899
    endloop
  endfacet
  facet normal -0.743145 1.48577e-016 0.66913
    outer loop
      vertex -10.158 2.3 1.89899
      vertex -9.66844 -4.03617 2.44275
      vertex -9.66844 2.3 2.44275
    endloop
  endfacet
  facet normal -0.587785 1.79638e-016 0.809017
    outer loop
      vertex -10.2706 2.18307 1.81725
      vertex -10.5 0 1.65055
      vertex -10.2706 -2.18307 1.81725
    endloop
  endfacet
  facet normal -0.587785 1.79638e-016 0.809017
    outer loop
      vertex -10.158 2.3 1.89899
      vertex -10.2706 2.18307 1.81725
      vertex -10.158 -2.52933 1.89899
    endloop
  endfacet
  facet normal -0.587785 1.79638e-016 0.809017
    outer loop
      vertex -10.158 -2.52933 1.89899
      vertex -10.2706 2.18307 1.81725
      vertex -10.2706 -2.18307 1.81725
    endloop
  endfacet
  facet normal -0.587785 1.79638e-016 0.809017
    outer loop
      vertex -10.2326 2.3 1.84485
      vertex -10.2706 2.18307 1.81725
      vertex -10.158 2.3 1.89899
    endloop
  endfacet
  facet normal 0.866025 -1.11022e-016 -0.5
    outer loop
      vertex 9.30259 2.3 5.92358
      vertex 9.66844 2.3 6.55725
      vertex 9.66844 -4.03617 6.55725
    endloop
  endfacet
  facet normal 0.866025 -1.11022e-016 -0.5
    outer loop
      vertex 9.30259 -4.7724 5.92358
      vertex 9.30259 2.3 5.92358
      vertex 9.59223 -4.27074 6.42524
    endloop
  endfacet
  facet normal 0.866025 -1.11022e-016 -0.5
    outer loop
      vertex 9.59223 -4.27074 6.42524
      vertex 9.30259 2.3 5.92358
      vertex 9.66844 -4.03617 6.55725
    endloop
  endfacet
  facet normal 0.951056 -6.86157e-017 -0.309018
    outer loop
      vertex 9.07648 2.3 5.22769
      vertex 9.30259 2.3 5.92358
      vertex 9.30259 -4.7724 5.92358
    endloop
  endfacet
  facet normal 0.951056 -6.86157e-017 -0.309018
    outer loop
      vertex 9.07648 -5.16403 5.22769
      vertex 9.07648 2.3 5.22769
      vertex 9.30259 -4.7724 5.92358
    endloop
  endfacet
  facet normal 0.994522 -2.32099e-017 -0.104528
    outer loop
      vertex 9 2.3 4.5
      vertex 9.07648 2.3 5.22769
      vertex 9.07648 -5.16403 5.22769
    endloop
  endfacet
  facet normal 0.994522 -2.32099e-017 -0.104528
    outer loop
      vertex 9 -5.2965 4.5
      vertex 9 2.3 4.5
      vertex 9.07648 -5.16403 5.22769
    endloop
  endfacet
  facet normal 0.994522 2.32099e-017 0.104528
    outer loop
      vertex 9.07648 -5.16403 3.77231
      vertex 9.07648 2.3 3.77231
      vertex 9 2.3 4.5
    endloop
  endfacet
  facet normal 0.994522 2.32099e-017 0.104528
    outer loop
      vertex 9 -5.2965 4.5
      vertex 9.07648 -5.16403 3.77231
      vertex 9 2.3 4.5
    endloop
  endfacet
  facet normal 0.951056 6.86157e-017 0.309018
    outer loop
      vertex 9.30259 -4.7724 3.07642
      vertex 9.30259 2.3 3.07642
      vertex 9.07648 2.3 3.77231
    endloop
  endfacet
  facet normal 0.951056 6.86157e-017 0.309018
    outer loop
      vertex 9.07648 -5.16403 3.77231
      vertex 9.30259 -4.7724 3.07642
      vertex 9.07648 2.3 3.77231
    endloop
  endfacet
  facet normal 0.866025 1.11022e-016 0.5
    outer loop
      vertex 9.59223 -4.27074 2.57476
      vertex 9.66844 -4.03617 2.44275
      vertex 9.66844 2.3 2.44275
    endloop
  endfacet
  facet normal 0.866025 1.11022e-016 0.5
    outer loop
      vertex 9.30259 -4.7724 3.07642
      vertex 9.59223 -4.27074 2.57476
      vertex 9.30259 2.3 3.07642
    endloop
  endfacet
  facet normal 0.866025 1.11022e-016 0.5
    outer loop
      vertex 9.30259 2.3 3.07642
      vertex 9.59223 -4.27074 2.57476
      vertex 9.66844 2.3 2.44275
    endloop
  endfacet
  facet normal 0.743145 1.48577e-016 0.66913
    outer loop
      vertex 10.158 -2.52933 1.89899
      vertex 10.158 2.3 1.89899
      vertex 9.66844 2.3 2.44275
    endloop
  endfacet
  facet normal 0.743145 1.48577e-016 0.66913
    outer loop
      vertex 9.66844 -4.03617 2.44275
      vertex 10.158 -2.52933 1.89899
      vertex 9.66844 2.3 2.44275
    endloop
  endfacet
  facet normal 0.587785 1.79638e-016 0.809017
    outer loop
      vertex 10.2706 -2.18307 1.81725
      vertex 10.5 0 1.65055
      vertex 10.2706 2.18307 1.81725
    endloop
  endfacet
  facet normal 0.587785 1.79638e-016 0.809017
    outer loop
      vertex 10.158 2.3 1.89899
      vertex 10.2706 -2.18307 1.81725
      vertex 10.2326 2.3 1.84485
    endloop
  endfacet
  facet normal 0.587785 1.79638e-016 0.809017
    outer loop
      vertex 10.2326 2.3 1.84485
      vertex 10.2706 -2.18307 1.81725
      vertex 10.2706 2.18307 1.81725
    endloop
  endfacet
  facet normal 0.587785 1.79638e-016 0.809017
    outer loop
      vertex 10.158 -2.52933 1.89899
      vertex 10.2706 -2.18307 1.81725
      vertex 10.158 2.3 1.89899
    endloop
  endfacet
  facet normal 0 -1 2.22045e-016
    outer loop
      vertex 9.07648 2.3 3.77231
      vertex 9.30259 2.3 3.07642
      vertex 9.66844 2.3 2.44275
    endloop
  endfacet
  facet normal 0 -1 2.22045e-016
    outer loop
      vertex 9.5 2.3 3
      vertex 9.5 2.3 6
      vertex 9.07648 2.3 3.77231
    endloop
  endfacet
  facet normal 0 -1 2.22045e-016
    outer loop
      vertex 9.5 2.3 3
      vertex 9.07648 2.3 3.77231
      vertex 9.66844 2.3 2.44275
    endloop
  endfacet
  facet normal 0 -1 2.22045e-016
    outer loop
      vertex 10.158 2.3 1.89899
      vertex 9.5 2.3 3
      vertex 9.66844 2.3 2.44275
    endloop
  endfacet
  facet normal 0 -1 2.22045e-016
    outer loop
      vertex 9.30259 2.3 5.92358
      vertex 9.07648 2.3 3.77231
      vertex 9.5 2.3 6
    endloop
  endfacet
  facet normal 0 -1 2.22045e-016
    outer loop
      vertex 15.3316 2.3 6.55725
      vertex 9.5 2.3 6
      vertex 15.5 2.3 6
    endloop
  endfacet
  facet normal 0 -1 2.22045e-016
    outer loop
      vertex 16 2.3 4.5
      vertex 15.5 2.3 6
      vertex 15.5 2.3 4.5
    endloop
  endfacet
  facet normal 0 -1 2.22045e-016
    outer loop
      vertex 15.9235 2.3 5.22769
      vertex 15.5 2.3 6
      vertex 16 2.3 4.5
    endloop
  endfacet
  facet normal 0 -1 2.22045e-016
    outer loop
      vertex 15.6974 2.3 5.92358
      vertex 15.5 2.3 6
      vertex 15.9235 2.3 5.22769
    endloop
  endfacet
  facet normal 0 -1 2.22045e-016
    outer loop
      vertex 15.3316 2.3 6.55725
      vertex 15.5 2.3 6
      vertex 15.6974 2.3 5.92358
    endloop
  endfacet
  facet normal 0 -1 2.22045e-016
    outer loop
      vertex 14.842 2.3 7.10101
      vertex 9.5 2.3 6
      vertex 15.3316 2.3 6.55725
    endloop
  endfacet
  facet normal 0 -1 2.22045e-016
    outer loop
      vertex 14.25 2.3 7.53109
      vertex 9.5 2.3 6
      vertex 14.842 2.3 7.10101
    endloop
  endfacet
  facet normal 0 -1 2.22045e-016
    outer loop
      vertex 13.5816 2.3 7.8287
      vertex 9.5 2.3 6
      vertex 14.25 2.3 7.53109
    endloop
  endfacet
  facet normal 0 -1 2.22045e-016
    outer loop
      vertex 12.8659 2.3 7.98083
      vertex 9.5 2.3 6
      vertex 13.5816 2.3 7.8287
    endloop
  endfacet
  facet normal 0 -1 2.22045e-016
    outer loop
      vertex 12.1341 2.3 7.98083
      vertex 9.5 2.3 6
      vertex 12.8659 2.3 7.98083
    endloop
  endfacet
  facet normal 0 -1 2.22045e-016
    outer loop
      vertex 11.4184 2.3 7.8287
      vertex 9.5 2.3 6
      vertex 12.1341 2.3 7.98083
    endloop
  endfacet
  facet normal 0 -1 2.22045e-016
    outer loop
      vertex 10.75 2.3 7.53109
      vertex 9.5 2.3 6
      vertex 11.4184 2.3 7.8287
    endloop
  endfacet
  facet normal 0 -1 2.22045e-016
    outer loop
      vertex 10.158 2.3 7.10101
      vertex 9.5 2.3 6
      vertex 10.75 2.3 7.53109
    endloop
  endfacet
  facet normal 0 -1 2.22045e-016
    outer loop
      vertex 9.66844 2.3 6.55725
      vertex 9.5 2.3 6
      vertex 10.158 2.3 7.10101
    endloop
  endfacet
  facet normal 0 -1 2.22045e-016
    outer loop
      vertex 9.30259 2.3 5.92358
      vertex 9.5 2.3 6
      vertex 9.66844 2.3 6.55725
    endloop
  endfacet
  facet normal 0 -1 2.22045e-016
    outer loop
      vertex 9.07648 2.3 5.22769
      vertex 9.07648 2.3 3.77231
      vertex 9.30259 2.3 5.92358
    endloop
  endfacet
  facet normal 0 -1 2.22045e-016
    outer loop
      vertex 9 2.3 4.5
      vertex 9.07648 2.3 3.77231
      vertex 9.07648 2.3 5.22769
    endloop
  endfacet
  facet normal 0 -1 2.22045e-016
    outer loop
      vertex 10.2326 2.3 3
      vertex 10.158 2.3 1.89899
      vertex 10.2326 2.3 1.84485
    endloop
  endfacet
  facet normal 0 -1 2.22045e-016
    outer loop
      vertex 10.2326 2.3 3
      vertex 9.5 2.3 3
      vertex 10.158 2.3 1.89899
    endloop
  endfacet
  facet normal 0 0 1
    outer loop
      vertex 15.5 7.3 3
      vertex 10.2326 2.3 3
      vertex 15.5 2.3 3
    endloop
  endfacet
  facet normal 0 0 1
    outer loop
      vertex 9.5 7.3 3
      vertex 10.2326 2.3 3
      vertex 15.5 7.3 3
    endloop
  endfacet
  facet normal 0 0 1
    outer loop
      vertex 9.5 2.3 3
      vertex 10.2326 2.3 3
      vertex 9.5 7.3 3
    endloop
  endfacet
  facet normal -1 0 0
    outer loop
      vertex 15.5 2.3 6
      vertex 15.5 7.3 6
      vertex 15.5 2.3 4.5
    endloop
  endfacet
  facet normal -1 0 0
    outer loop
      vertex 15.5 2.3 4.5
      vertex 15.5 7.3 6
      vertex 15.5 7.3 3
    endloop
  endfacet
  facet normal -1 0 0
    outer loop
      vertex 15.5 2.3 4.5
      vertex 15.5 7.3 3
      vertex 15.5 2.3 3
    endloop
  endfacet
  facet normal 0.587785 -1.79638e-016 -0.809017
    outer loop
      vertex 10.158 2.3 7.10101
      vertex 10.75 2.3 7.53109
      vertex 10.2326 2.3 7.15515
    endloop
  endfacet
  facet normal 0.587785 -1.79638e-016 -0.809017
    outer loop
      vertex 10.158 2.3 7.10101
      vertex 10.2326 2.3 7.15515
      vertex 10.2706 2.18307 7.18275
    endloop
  endfacet
  facet normal 0.587785 -1.79638e-016 -0.809017
    outer loop
      vertex 10.158 2.3 7.10101
      vertex 10.2706 2.18307 7.18275
      vertex 10.5 0 7.34945
    endloop
  endfacet
  facet normal 0.587785 -1.79638e-016 -0.809017
    outer loop
      vertex 10.158 2.3 7.10101
      vertex 10.5 0 7.34945
      vertex 10.2706 -2.18307 7.18275
    endloop
  endfacet
  facet normal 0.587785 -1.79638e-016 -0.809017
    outer loop
      vertex 10.158 2.3 7.10101
      vertex 10.2706 -2.18307 7.18275
      vertex 10.158 -2.52933 7.10101
    endloop
  endfacet
  facet normal 0 0 -1
    outer loop
      vertex 15.5 7.3 6
      vertex 15.5 2.3 6
      vertex 9.5 7.3 6
    endloop
  endfacet
  facet normal 0 0 -1
    outer loop
      vertex 9.5 7.3 6
      vertex 15.5 2.3 6
      vertex 9.5 2.3 6
    endloop
  endfacet
  facet normal 1 0 0
    outer loop
      vertex 9.5 7.3 3
      vertex 9.5 7.3 6
      vertex 9.5 2.3 6
    endloop
  endfacet
  facet normal 1 0 0
    outer loop
      vertex 9.5 2.3 3
      vertex 9.5 7.3 3
      vertex 9.5 2.3 6
    endloop
  endfacet
  facet normal 0.743145 -1.48577e-016 -0.66913
    outer loop
      vertex 9.66844 2.3 6.55725
      vertex 10.158 2.3 7.10101
      vertex 10.158 -2.52933 7.10101
    endloop
  endfacet
  facet normal 0.743145 -1.48577e-016 -0.66913
    outer loop
      vertex 9.66844 -4.03617 6.55725
      vertex 9.66844 2.3 6.55725
      vertex 10.158 -2.52933 7.10101
    endloop
  endfacet
endsolid OpenSCAD_Model
