                                                                        S      1
,,20HY-Axis LM8UU Bearing,27HNo Iges File Name specified,22HAutodesk InvG      1
entor 2013,37HAutoDesk Inventor Iges Exporter R2013,32,38,6,99,15,20HY-AG      2
xis LM8UU Bearing,1.0D0,1,2HIN,1,.08D0,15H20130613.173246,              G      3
3.93700787401575D-4,10000.0D0,13HNathan Bronec,,11,0,,;                 G      4
     406       1       0       0       1       0       0       000000000D      1
     406       0       0       1       3                               0D      2
     128       2       0       0       0       0       0       000010000D      3
     128       0       0      25       0                               0D      4
     504      27       0       0       0       0       0       000010001D      5
     504       0       0       9       1                               0D      6
     502      36       0       0       0       0       0       000010000D      7
     502       0       0      22       1                               0D      8
     126      58       0       0       0       0       0       000010000D      9
     126       0       0      13       2                               0D     10
     508      71       0       0       0       0       0       000010000D     11
     508       0       0       1       1                               0D     12
     126      72       0       0       0       0       0       000010000D     13
     126       0       0      11       2                               0D     14
     508      83       0       0       0       0       0       000010000D     15
     508       0       0       1       1                               0D     16
     510      84       0       0       0       0       0       000010000D     17
     510       0    -199       1       1                               0D     18
     128      85       0       0       0       0       0       000010000D     19
     128       0       0       7       0                               0D     20
     126      92       0       0       0       0       0       000010000D     21
     126       0       0       4       1                               0D     22
     126      96       0       0       0       0       0       000010000D     23
     126       0       0       3       1                               0D     24
     126      99       0       0       0       0       0       000010000D     25
     126       0       0       3       1                               0D     26
     126     102       0       0       0       0       0       000010000D     27
     126       0       0       4       1                               0D     28
     508     106       0       0       0       0       0       000010000D     29
     508       0       0       1       1                               0D     30
     510     107       0       0       0       0       0       000010000D     31
     510       0    -199       1       1                               0D     32
     128     108       0       0       0       0       0       000010000D     33
     128       0       0       8       0                               0D     34
     126     116       0       0       0       0       0       000010000D     35
     126       0       0       4       1                               0D     36
     126     120       0       0       0       0       0       000010000D     37
     126       0       0       4       1                               0D     38
     126     124       0       0       0       0       0       000010000D     39
     126       0       0       4       1                               0D     40
     126     128       0       0       0       0       0       000010000D     41
     126       0       0       3       1                               0D     42
     508     131       0       0       0       0       0       000010000D     43
     508       0       0       1       1                               0D     44
     510     132       0       0       0       0       0       000010000D     45
     510       0    -199       1       1                               0D     46
     128     133       0       0       0       0       0       000010000D     47
     128       0       0      25       0                               0D     48
     126     158       0       0       0       0       0       000010000D     49
     126       0       0      13       2                               0D     50
     508     171       0       0       0       0       0       000010000D     51
     508       0       0       1       1                               0D     52
     126     172       0       0       0       0       0       000010000D     53
     126       0       0      11       2                               0D     54
     508     183       0       0       0       0       0       000010000D     55
     508       0       0       1       1                               0D     56
     510     184       0       0       0       0       0       000010000D     57
     510       0    -199       1       1                               0D     58
     128     185       0       0       0       0       0       000010000D     59
     128       0       0       6       0                               0D     60
     126     191       0       0       0       0       0       000010000D     61
     126       0       0      12       2                               0D     62
     126     203       0       0       0       0       0       000010000D     63
     126       0       0       3       1                               0D     64
     126     206       0       0       0       0       0       000010000D     65
     126       0       0       3       1                               0D     66
     126     209       0       0       0       0       0       000010000D     67
     126       0       0       3       1                               0D     68
     126     212       0       0       0       0       0       000010000D     69
     126       0       0       5       2                               0D     70
     126     217       0       0       0       0       0       000010000D     71
     126       0       0      11       2                               0D     72
     126     228       0       0       0       0       0       000010000D     73
     126       0       0       5       2                               0D     74
     126     233       0       0       0       0       0       000010000D     75
     126       0       0       3       1                               0D     76
     126     236       0       0       0       0       0       000010000D     77
     126       0       0       3       1                               0D     78
     126     239       0       0       0       0       0       000010000D     79
     126       0       0       3       1                               0D     80
     508     242       0       0       0       0       0       000010000D     81
     508       0       0       3       1                               0D     82
     510     245       0       0       0       0       0       000010000D     83
     510       0    -199       1       1                               0D     84
     128     246       0       0       0       0       0       000010000D     85
     128       0       0       7       0                               0D     86
     126     253       0       0       0       0       0       000010000D     87
     126       0       0       3       1                               0D     88
     126     256       0       0       0       0       0       000010000D     89
     126       0       0       3       1                               0D     90
     508     259       0       0       0       0       0       000010000D     91
     508       0       0       1       1                               0D     92
     508     260       0       0       0       0       0       000010000D     93
     508       0       0       1       1                               0D     94
     510     261       0       0       0       0       0       000010000D     95
     510       0    -199       1       1                               0D     96
     128     262       0       0       0       0       0       000010000D     97
     128       0       0       6       0                               0D     98
     126     268       0       0       0       0       0       000010000D     99
     126       0       0       3       1                               0D    100
     126     271       0       0       0       0       0       000010000D    101
     126       0       0       3       1                               0D    102
     508     274       0       0       0       0       0       000010000D    103
     508       0       0       1       1                               0D    104
     508     275       0       0       0       0       0       000010000D    105
     508       0       0       1       1                               0D    106
     510     276       0       0       0       0       0       000010000D    107
     510       0    -199       1       1                               0D    108
     128     277       0       0       0       0       0       000010000D    109
     128       0       0       6       0                               0D    110
     126     283       0       0       0       0       0       000010000D    111
     126       0       0       3       1                               0D    112
     126     286       0       0       0       0       0       000010000D    113
     126       0       0       3       1                               0D    114
     508     289       0       0       0       0       0       000010000D    115
     508       0       0       1       1                               0D    116
     510     290       0       0       0       0       0       000010000D    117
     510       0    -199       1       1                               0D    118
     128     291       0       0       0       0       0       000010000D    119
     128       0       0       7       0                               0D    120
     126     298       0       0       0       0       0       000010000D    121
     126       0       0       4       1                               0D    122
     126     302       0       0       0       0       0       000010000D    123
     126       0       0       4       1                               0D    124
     508     306       0       0       0       0       0       000010000D    125
     508       0       0       1       1                               0D    126
     508     307       0       0       0       0       0       000010000D    127
     508       0       0       1       1                               0D    128
     510     308       0       0       0       0       0       000010000D    129
     510       0    -199       1       1                               0D    130
     128     309       0       0       0       0       0       000010000D    131
     128       0       0      27       0                               0D    132
     126     336       0       0       0       0       0       000010000D    133
     126       0       0       5       2                               0D    134
     126     341       0       0       0       0       0       000010000D    135
     126       0       0       4       1                               0D    136
     508     345       0       0       0       0       0       000010000D    137
     508       0       0       1       1                               0D    138
     510     346       0       0       0       0       0       000010000D    139
     510       0    -199       1       1                               0D    140
     128     347       0       0       0       0       0       000010000D    141
     128       0       0      28       0                               0D    142
     126     375       0       0       0       0       0       000010000D    143
     126       0       0      12       2                               0D    144
     126     387       0       0       0       0       0       000010000D    145
     126       0       0       4       1                               0D    146
     508     391       0       0       0       0       0       000010000D    147
     508       0       0       1       1                               0D    148
     510     392       0       0       0       0       0       000010000D    149
     510       0    -199       1       1                               0D    150
     128     393       0       0       0       0       0       000010000D    151
     128       0       0      27       0                               0D    152
     126     420       0       0       0       0       0       000010000D    153
     126       0       0       5       2                               0D    154
     126     425       0       0       0       0       0       000010000D    155
     126       0       0       4       1                               0D    156
     508     429       0       0       0       0       0       000010000D    157
     508       0       0       1       1                               0D    158
     510     430       0       0       0       0       0       000010000D    159
     510       0    -199       1       1                               0D    160
     128     431       0       0       0       0       0       000010000D    161
     128       0       0       8       0                               0D    162
     126     439       0       0       0       0       0       000010000D    163
     126       0       0       4       1                               0D    164
     126     443       0       0       0       0       0       000010000D    165
     126       0       0       4       1                               0D    166
     508     447       0       0       0       0       0       000010000D    167
     508       0       0       1       1                               0D    168
     508     448       0       0       0       0       0       000010000D    169
     508       0       0       1       1                               0D    170
     510     449       0       0       0       0       0       000010000D    171
     510       0    -199       1       1                               0D    172
     128     450       0       0       0       0       0       000010000D    173
     128       0       0       7       0                               0D    174
     126     457       0       0       0       0       0       000010000D    175
     126       0       0       4       1                               0D    176
     508     461       0       0       0       0       0       000010000D    177
     508       0       0       1       1                               0D    178
     510     462       0       0       0       0       0       000010000D    179
     510       0    -199       1       1                               0D    180
     128     463       0       0       0       0       0       000010000D    181
     128       0       0      27       0                               0D    182
     126     490       0       0       0       0       0       000010000D    183
     126       0       0      13       2                               0D    184
     508     503       0       0       0       0       0       000010000D    185
     508       0       0       1       1                               0D    186
     510     504       0       0       0       0       0       000010000D    187
     510       0    -199       1       1                               0D    188
     128     505       0       0       0       0       0       000010000D    189
     128       0       0       7       0                               0D    190
     508     512       0       0       0       0       0       000010000D    191
     508       0       0       3       1                               0D    192
     510     515       0       0       0       0       0       000010000D    193
     510       0    -199       1       1                               0D    194
     514     516       0       0       0       0       0       000010000D    195
     514       0       0       2       1                               0D    196
     186     518       0       0       1       0       0       000000000D    197
     186       0       0       1       0                  Solid1       0D    198
     314     519       0       0       0       0       0       000000000D    199
     314       0       8       1       0                               0D    200
406,2,0,20HY-Axis LM8UU Bearing;                                       1P      1
128,1,8,1,2,0,1,0,0,0,-2.66666666666667D0,-2.66666666666667D0,         3P      2
0.0D0,0.0D0,0.0D0,0.0D0,0.0D0,.139145343908997D0,                      3P      3
.139145343908997D0,.278290687817994D0,.278290687817994D0,              3P      4
.41743603172699D0,.41743603172699D0,.556581375635987D0,                3P      5
.556581375635987D0,.556581375635987D0,1.0D0,1.0D0,                     3P      6
.707106781186548D0,.707106781186548D0,1.0D0,1.0D0,                     3P      7
.707106781186548D0,.707106781186548D0,1.0D0,1.0D0,                     3P      8
.707106781186548D0,.707106781186548D0,1.0D0,1.0D0,                     3P      9
.707106781186548D0,.707106781186548D0,1.0D0,1.0D0,                     3P     10
.324803149606299D0,.47244094488189D0,0.0D0,.324803149606299D0,         3P     11
.47244094488189D0,-.236220472440945D0,.324803149606299D0,              3P     12
.383858267716536D0,0.0D0,.324803149606299D0,.383858267716536D0,        3P     13
-.236220472440945D0,.236220472440945D0,.383858267716536D0,0.0D0,       3P     14
.236220472440945D0,.383858267716536D0,-.236220472440945D0,             3P     15
.147637795275591D0,.383858267716536D0,0.0D0,.147637795275591D0,        3P     16
.383858267716536D0,-.236220472440945D0,.147637795275591D0,             3P     17
.47244094488189D0,0.0D0,.147637795275591D0,.47244094488189D0,          3P     18
-.236220472440945D0,.147637795275591D0,.561023622047244D0,0.0D0,       3P     19
.147637795275591D0,.561023622047244D0,-.236220472440945D0,             3P     20
.236220472440945D0,.561023622047244D0,0.0D0,.236220472440945D0,        3P     21
.561023622047244D0,-.236220472440945D0,.324803149606299D0,             3P     22
.561023622047244D0,0.0D0,.324803149606299D0,.561023622047244D0,        3P     23
-.236220472440945D0,.324803149606299D0,.47244094488189D0,0.0D0,        3P     24
.324803149606299D0,.47244094488189D0,-.236220472440945D0,              3P     25
-2.66666666666667D0,0.0D0,0.0D0,.556581375635987D0;                    3P     26
504,40,9,7,1,7,1,13,7,2,7,2,21,7,3,7,4,23,7,5,7,3,25,7,6,7,5,27,       5P     27
7,4,7,6,35,7,7,7,8,37,7,9,7,7,39,7,10,7,9,41,7,8,7,10,49,7,11,7,       5P     28
11,53,7,12,7,12,61,7,8,7,3,63,7,13,7,10,65,7,14,7,13,67,7,15,7,        5P     29
14,69,7,16,7,15,71,7,17,7,16,73,7,18,7,17,75,7,19,7,18,77,7,20,        5P     30
7,19,79,7,5,7,20,87,7,21,7,9,89,7,13,7,21,99,7,20,7,22,101,7,6,        5P     31
7,22,111,7,23,7,21,113,7,14,7,23,121,7,24,7,23,123,7,15,7,24,          5P     32
133,7,25,7,24,135,7,16,7,25,143,7,26,7,25,145,7,17,7,26,153,7,         5P     33
27,7,26,155,7,18,7,27,163,7,28,7,27,165,7,19,7,28,175,7,22,7,28,       5P     34
183,7,7,7,4;                                                           5P     35
502,28,.324803149606299D0,.47244094488189D0,-.236220472440945D0,       7P     36
.324803149606299D0,.47244094488189D0,0.0D0,.945615484670193D0,         7P     37
0.0D0,-9.80037743626661D-2,.945615484670193D0,.94488188976378D0,       7P     38
-9.80037743626661D-2,.945615484670193D0,0.0D0,0.0D0,                   7P     39
.945615484670193D0,.94488188976378D0,0.0D0,.906245405930036D0,         7P     40
.94488188976378D0,-9.80037743626661D-2,.906245405930035D0,0.0D0,       7P     41
-9.80037743626661D-2,.906245405930036D0,.94488188976378D0,0.0D0,       7P     42
.906245405930035D0,0.0D0,0.0D0,1.70422309532464D0,                     7P     43
.47244094488189D0,-.236220472440945D0,1.70422309532464D0,              7P     44
.47244094488189D0,0.0D0,0.0D0,0.0D0,0.0D0,0.0D0,0.0D0,                 7P     45
-.236220472440945D0,.334645669291339D0,0.0D0,                          7P     46
-.236220472440945D0,.531336511407167D0,0.0D0,-.39354563037811D0,       7P     47
1.32052577384239D0,0.0D0,-.394560298316997D0,1.51574803149606D0,       7P     48
0.0D0,-.236220472440945D0,1.8503937007874D0,0.0D0,                     7P     49
-.236220472440945D0,1.8503937007874D0,0.0D0,0.0D0,0.0D0,               7P     50
.94488188976378D0,0.0D0,1.8503937007874D0,.94488188976378D0,           7P     51
0.0D0,0.0D0,.94488188976378D0,-.236220472440945D0,                     7P     52
.334645669291339D0,.94488188976378D0,-.236220472440945D0,              7P     53
.531336511407167D0,.94488188976378D0,-.39354563037811D0,               7P     54
1.32052577384239D0,.94488188976378D0,-.394560298316997D0,              7P     55
1.51574803149606D0,.94488188976378D0,-.236220472440945D0,              7P     56
1.8503937007874D0,.94488188976378D0,-.236220472440945D0;               7P     57
126,8,2,1,1,0,0,0.0D0,0.0D0,0.0D0,.25D0,.25D0,.5D0,.5D0,.75D0,         9P     58
.75D0,1.0D0,1.0D0,1.0D0,1.0D0,.707106781186548D0,1.0D0,                9P     59
.707106781186548D0,1.0D0,.707106781186548D0,1.0D0,                     9P     60
.707106781186548D0,1.0D0,.324803149606299D0,.47244094488189D0,         9P     61
-.236220472440945D0,.324803149606299D0,.561023622047244D0,             9P     62
-.236220472440945D0,.236220472440945D0,.561023622047244D0,             9P     63
-.236220472440945D0,.147637795275591D0,.561023622047244D0,             9P     64
-.236220472440945D0,.147637795275591D0,.47244094488189D0,              9P     65
-.236220472440945D0,.147637795275591D0,.383858267716536D0,             9P     66
-.236220472440945D0,.236220472440945D0,.383858267716536D0,             9P     67
-.236220472440945D0,.324803149606299D0,.383858267716536D0,             9P     68
-.236220472440945D0,.324803149606299D0,.47244094488189D0,              9P     69
-.236220472440945D0,0.0D0,1.0D0,0.0D0,0.0D0,1.0D0;                     9P     70
508,1,0,5,1,0,0;                                                      11P     71
126,8,2,1,1,0,0,0.0D0,0.0D0,0.0D0,.25D0,.25D0,.5D0,.5D0,.75D0,        13P     72
.75D0,1.0D0,1.0D0,1.0D0,1.0D0,.707106781186548D0,1.0D0,               13P     73
.707106781186548D0,1.0D0,.707106781186548D0,1.0D0,                    13P     74
.707106781186548D0,1.0D0,.324803149606299D0,.47244094488189D0,        13P     75
0.0D0,.324803149606299D0,.383858267716536D0,0.0D0,                    13P     76
.236220472440945D0,.383858267716536D0,0.0D0,.147637795275591D0,       13P     77
.383858267716536D0,0.0D0,.147637795275591D0,.47244094488189D0,        13P     78
0.0D0,.147637795275591D0,.561023622047244D0,0.0D0,                    13P     79
.236220472440945D0,.561023622047244D0,0.0D0,.324803149606299D0,       13P     80
.561023622047244D0,0.0D0,.324803149606299D0,.47244094488189D0,        13P     81
0.0D0,0.0D0,1.0D0,0.0D0,0.0D0,-1.0D0;                                 13P     82
508,1,0,5,2,0,0;                                                      15P     83
510,3,2,1,11,15;                                                      17P     84
128,1,1,1,1,0,0,1,0,0,0.0D0,0.0D0,.94488188976378D0,                  19P     85
.94488188976378D0,0.0D0,0.0D0,9.80037743626661D-2,                    19P     86
9.80037743626661D-2,1.0D0,1.0D0,1.0D0,1.0D0,.945615484670193D0,       19P     87
0.0D0,0.0D0,.945615484670193D0,.94488188976378D0,0.0D0,               19P     88
.945615484670193D0,0.0D0,-9.80037743626661D-2,                        19P     89
.945615484670193D0,.94488188976378D0,-9.80037743626661D-2,0.0D0,      19P     90
.94488188976378D0,0.0D0,9.80037743626661D-2;                          19P     91
126,1,1,0,0,1,0,0.0D0,0.0D0,1.0D0,1.0D0,1.0D0,1.0D0,                  21P     92
.945615484670193D0,0.0D0,-9.80037743626661D-2,                        21P     93
.945615484670193D0,.94488188976378D0,-9.80037743626661D-2,0.0D0,      21P     94
1.0D0,0.0D0,0.0D0,0.0D0;                                              21P     95
126,1,1,0,0,1,0,0.0D0,0.0D0,1.0D0,1.0D0,1.0D0,1.0D0,                  23P     96
.945615484670193D0,0.0D0,0.0D0,.945615484670193D0,0.0D0,              23P     97
-9.80037743626661D-2,0.0D0,1.0D0,0.0D0,0.0D0,0.0D0;                   23P     98
126,1,1,0,0,1,0,0.0D0,0.0D0,1.0D0,1.0D0,1.0D0,1.0D0,                  25P     99
.945615484670193D0,.94488188976378D0,0.0D0,.945615484670193D0,        25P    100
0.0D0,0.0D0,0.0D0,1.0D0,0.0D0,0.0D0,0.0D0;                            25P    101
126,1,1,0,0,1,0,0.0D0,0.0D0,1.0D0,1.0D0,1.0D0,1.0D0,                  27P    102
.945615484670193D0,.94488188976378D0,-9.80037743626661D-2,            27P    103
.945615484670193D0,.94488188976378D0,0.0D0,0.0D0,1.0D0,0.0D0,         27P    104
0.0D0,0.0D0;                                                          27P    105
508,4,0,5,3,0,0,0,5,4,0,0,0,5,5,0,0,0,5,6,0,0;                        29P    106
510,19,1,1,29;                                                        31P    107
128,1,1,1,1,0,0,1,0,0,0.0D0,0.0D0,.94488188976378D0,                  33P    108
.94488188976378D0,0.0D0,0.0D0,9.80037743626661D-2,                    33P    109
9.80037743626661D-2,1.0D0,1.0D0,1.0D0,1.0D0,.906245405930036D0,       33P    110
.94488188976378D0,1.67110601187961D-19,.906245405930035D0,0.0D0,      33P    111
1.67110601187961D-19,.906245405930036D0,.94488188976378D0,            33P    112
-9.80037743626661D-2,.906245405930035D0,0.0D0,                        33P    113
-9.80037743626661D-2,0.0D0,.94488188976378D0,0.0D0,                   33P    114
9.80037743626661D-2;                                                  33P    115
126,1,1,0,0,1,0,0.0D0,0.0D0,1.0D0,1.0D0,1.0D0,1.0D0,                  35P    116
.906245405930035D0,.94488188976378D0,-9.80037743626661D-2,            35P    117
.906245405930035D0,0.0D0,-9.80037743626661D-2,0.0D0,1.0D0,0.0D0,      35P    118
0.0D0,0.0D0;                                                          35P    119
126,1,1,0,0,1,0,0.0D0,0.0D0,1.0D0,1.0D0,1.0D0,1.0D0,                  37P    120
.906245405930036D0,.94488188976378D0,0.0D0,.906245405930036D0,        37P    121
.94488188976378D0,-9.80037743626661D-2,0.0D0,1.0D0,0.0D0,0.0D0,       37P    122
0.0D0;                                                                37P    123
126,1,1,0,0,1,0,0.0D0,0.0D0,1.0D0,1.0D0,1.0D0,1.0D0,                  39P    124
.906245405930035D0,0.0D0,1.67110601187961D-19,                        39P    125
.906245405930036D0,.94488188976378D0,1.67110601187961D-19,0.0D0,      39P    126
1.0D0,0.0D0,0.0D0,0.0D0;                                              39P    127
126,1,1,0,0,1,0,0.0D0,0.0D0,1.0D0,1.0D0,1.0D0,1.0D0,                  41P    128
.906245405930036D0,0.0D0,-9.80037743626661D-2,                        41P    129
.906245405930036D0,0.0D0,0.0D0,0.0D0,1.0D0,0.0D0,0.0D0,0.0D0;         41P    130
508,4,0,5,7,0,0,0,5,8,0,0,0,5,9,0,0,0,5,10,0,0;                       43P    131
510,33,1,1,43;                                                        45P    132
128,1,8,1,2,0,1,0,0,0,-2.66666666666667D0,-2.66666666666667D0,        47P    133
0.0D0,0.0D0,0.0D0,0.0D0,0.0D0,.139145343908997D0,                     47P    134
.139145343908997D0,.278290687817994D0,.278290687817994D0,             47P    135
.41743603172699D0,.41743603172699D0,.556581375635987D0,               47P    136
.556581375635987D0,.556581375635987D0,1.0D0,1.0D0,                    47P    137
.707106781186548D0,.707106781186548D0,1.0D0,1.0D0,                    47P    138
.707106781186548D0,.707106781186548D0,1.0D0,1.0D0,                    47P    139
.707106781186548D0,.707106781186548D0,1.0D0,1.0D0,                    47P    140
.707106781186548D0,.707106781186548D0,1.0D0,1.0D0,                    47P    141
1.70422309532464D0,.47244094488189D0,0.0D0,1.70422309532464D0,        47P    142
.47244094488189D0,-.236220472440945D0,1.70422309532464D0,             47P    143
.383858267716535D0,0.0D0,1.70422309532464D0,.383858267716535D0,       47P    144
-.236220472440945D0,1.61564041815928D0,.383858267716535D0,0.0D0,      47P    145
1.61564041815928D0,.383858267716535D0,-.236220472440945D0,            47P    146
1.52705774099393D0,.383858267716535D0,0.0D0,1.52705774099393D0,       47P    147
.383858267716535D0,-.236220472440945D0,1.52705774099393D0,            47P    148
.47244094488189D0,0.0D0,1.52705774099393D0,.47244094488189D0,         47P    149
-.236220472440945D0,1.52705774099393D0,.561023622047244D0,0.0D0,      47P    150
1.52705774099393D0,.561023622047244D0,-.236220472440945D0,            47P    151
1.61564041815928D0,.561023622047244D0,0.0D0,1.61564041815928D0,       47P    152
.561023622047244D0,-.236220472440945D0,1.70422309532464D0,            47P    153
.561023622047244D0,0.0D0,1.70422309532464D0,.561023622047244D0,       47P    154
-.236220472440945D0,1.70422309532464D0,.47244094488189D0,0.0D0,       47P    155
1.70422309532464D0,.47244094488189D0,-.236220472440945D0,             47P    156
-2.66666666666667D0,0.0D0,0.0D0,.556581375635987D0;                   47P    157
126,8,2,1,1,0,0,0.0D0,0.0D0,0.0D0,.25D0,.25D0,.5D0,.5D0,.75D0,        49P    158
.75D0,1.0D0,1.0D0,1.0D0,1.0D0,.707106781186548D0,1.0D0,               49P    159
.707106781186548D0,1.0D0,.707106781186548D0,1.0D0,                    49P    160
.707106781186548D0,1.0D0,1.70422309532464D0,.47244094488189D0,        49P    161
-.236220472440945D0,1.70422309532464D0,.561023622047244D0,            49P    162
-.236220472440945D0,1.61564041815928D0,.561023622047244D0,            49P    163
-.236220472440945D0,1.52705774099393D0,.561023622047244D0,            49P    164
-.236220472440945D0,1.52705774099393D0,.47244094488189D0,             49P    165
-.236220472440945D0,1.52705774099393D0,.383858267716536D0,            49P    166
-.236220472440945D0,1.61564041815928D0,.383858267716536D0,            49P    167
-.236220472440945D0,1.70422309532464D0,.383858267716536D0,            49P    168
-.236220472440945D0,1.70422309532464D0,.47244094488189D0,             49P    169
-.236220472440945D0,0.0D0,1.0D0,0.0D0,0.0D0,1.0D0;                    49P    170
508,1,0,5,11,0,0;                                                     51P    171
126,8,2,1,1,0,0,0.0D0,0.0D0,0.0D0,.25D0,.25D0,.5D0,.5D0,.75D0,        53P    172
.75D0,1.0D0,1.0D0,1.0D0,1.0D0,.707106781186548D0,1.0D0,               53P    173
.707106781186548D0,1.0D0,.707106781186548D0,1.0D0,                    53P    174
.707106781186548D0,1.0D0,1.70422309532464D0,.47244094488189D0,        53P    175
0.0D0,1.70422309532464D0,.383858267716536D0,0.0D0,                    53P    176
1.61564041815928D0,.383858267716536D0,0.0D0,1.52705774099393D0,       53P    177
.383858267716536D0,0.0D0,1.52705774099393D0,.47244094488189D0,        53P    178
0.0D0,1.52705774099393D0,.561023622047244D0,0.0D0,                    53P    179
1.61564041815928D0,.561023622047244D0,0.0D0,1.70422309532464D0,       53P    180
.561023622047244D0,0.0D0,1.70422309532464D0,.47244094488189D0,        53P    181
0.0D0,0.0D0,1.0D0,0.0D0,0.0D0,-1.0D0;                                 53P    182
508,1,0,5,12,0,0;                                                     55P    183
510,47,2,1,51,55;                                                     57P    184
128,1,1,1,1,0,0,1,0,0,0.0D0,0.0D0,.789190660194638D0,                 59P    185
.789190660194638D0,0.0D0,0.0D0,1.8503937007874D0,                     59P    186
1.8503937007874D0,1.0D0,1.0D0,1.0D0,1.0D0,0.0D0,0.0D0,0.0D0,          59P    187
0.0D0,0.0D0,-.789190660194638D0,1.8503937007874D0,0.0D0,0.0D0,        59P    188
1.8503937007874D0,0.0D0,-.789190660194638D0,0.0D0,                    59P    189
.789190660194638D0,0.0D0,1.8503937007874D0;                           59P    190
126,8,2,1,0,0,0,0.0D0,0.0D0,0.0D0,.25D0,.25D0,.5D0,.5D0,.75D0,        61P    191
.75D0,1.0D0,1.0D0,1.0D0,1.0D0,.718724832858666D0,1.0D0,               61P    192
.718724832858666D0,1.0D0,.718724832858666D0,1.0D0,                    61P    193
.718724832858666D0,1.0D0,.906245405930036D0,0.0D0,                    61P    194
-9.80037743626661D-2,.619322643701394D0,0.0D0,                        61P    195
-.11704708750303D0,.62884953029101D0,0.0D0,-.404443256044269D0,       61P    196
.638376416880626D0,0.0D0,-.691839424585508D0,.925930445300114D0,      61P    197
0.0D0,-.691839424585508D0,1.2134844737196D0,0.0D0,                    61P    198
-.691839424585508D0,1.22301136030922D0,0.0D0,                         61P    199
-.404443256044269D0,1.23253824689884D0,0.0D0,-.11704708750303D0,      61P    200
.945615484670193D0,0.0D0,-9.80037743626661D-2,0.0D0,1.0D0,0.0D0,      61P    201
-1.0D0,0.0D0;                                                         61P    202
126,1,1,0,0,1,0,0.0D0,0.0D0,1.0D0,1.0D0,1.0D0,1.0D0,0.0D0,0.0D0,      63P    203
0.0D0,.906245405930035D0,0.0D0,1.67110601187961D-19,0.0D0,1.0D0,      63P    204
0.0D0,0.0D0,0.0D0;                                                    63P    205
126,1,1,0,0,1,0,0.0D0,0.0D0,1.0D0,1.0D0,1.0D0,1.0D0,0.0D0,0.0D0,      65P    206
-.236220472440945D0,0.0D0,0.0D0,0.0D0,0.0D0,1.0D0,0.0D0,0.0D0,        65P    207
0.0D0;                                                                65P    208
126,1,1,0,0,1,0,0.0D0,0.0D0,1.0D0,1.0D0,1.0D0,1.0D0,                  67P    209
.334645669291339D0,0.0D0,-.236220472440945D0,0.0D0,0.0D0,             67P    210
-.236220472440945D0,0.0D0,1.0D0,0.0D0,0.0D0,0.0D0;                    67P    211
126,2,2,1,0,0,0,0.0D0,0.0D0,0.0D0,1.0D0,1.0D0,1.0D0,1.0D0,            69P    212
.780922097268363D0,1.0D0,.531336511407167D0,0.0D0,                    69P    213
-.39354563037811D0,.495910149146556D0,0.0D0,-.236220472440945D0,      69P    214
.334645669291339D0,0.0D0,-.236220472440945D0,0.0D0,1.0D0,0.0D0,       69P    215
-1.0D0,0.0D0;                                                         69P    216
126,6,2,1,0,0,0,0.0D0,0.0D0,0.0D0,.333333333333333D0,                 71P    217
.333333333333333D0,.666666666666667D0,.666666666666667D0,1.0D0,       71P    218
1.0D0,1.0D0,1.0D0,.865796231639041D0,1.0D0,.865796231639041D0,        71P    219
1.0D0,.865796231639041D0,1.0D0,1.32052577384239D0,0.0D0,              71P    220
-.394560298316997D0,1.32054602085619D0,0.0D0,                         71P    221
-.622621132987182D0,1.12294524586584D0,0.0D0,                         71P    222
-.736488066043347D0,.925344470875491D0,0.0D0,                         71P    223
-.850354999099513D0,.728037148226703D0,0.0D0,                         71P    224
-.735980329047225D0,.530729825577914D0,0.0D0,                         71P    225
-.621605658994936D0,.531336511407167D0,0.0D0,-.39354563037811D0,      71P    226
0.0D0,1.0D0,0.0D0,1.0D0,0.0D0;                                        71P    227
126,2,2,1,0,0,0,0.0D0,0.0D0,0.0D0,1.0D0,1.0D0,1.0D0,1.0D0,            73P    228
.776655492313789D0,1.0D0,1.51574803149606D0,0.0D0,                    73P    229
-.236220472440945D0,1.3539241926028D0,0.0D0,-.236220472440945D0,      73P    230
1.32052577384239D0,0.0D0,-.394560298316997D0,0.0D0,1.0D0,0.0D0,       73P    231
-1.0D0,0.0D0;                                                         73P    232
126,1,1,0,0,1,0,0.0D0,0.0D0,1.0D0,1.0D0,1.0D0,1.0D0,                  75P    233
1.8503937007874D0,0.0D0,-.236220472440945D0,1.51574803149606D0,       75P    234
0.0D0,-.236220472440945D0,0.0D0,1.0D0,0.0D0,0.0D0,0.0D0;              75P    235
126,1,1,0,0,1,0,0.0D0,0.0D0,1.0D0,1.0D0,1.0D0,1.0D0,                  77P    236
1.8503937007874D0,0.0D0,0.0D0,1.8503937007874D0,0.0D0,                77P    237
-.236220472440945D0,0.0D0,1.0D0,0.0D0,0.0D0,0.0D0;                    77P    238
126,1,1,0,0,1,0,0.0D0,0.0D0,1.0D0,1.0D0,1.0D0,1.0D0,                  79P    239
.945615484670193D0,0.0D0,0.0D0,1.8503937007874D0,0.0D0,0.0D0,         79P    240
0.0D0,1.0D0,0.0D0,0.0D0,0.0D0;                                        79P    241
508,12,0,5,4,1,0,0,5,13,0,0,0,5,10,1,0,0,5,14,0,0,0,5,15,0,0,0,       81P    242
5,16,0,0,0,5,17,0,0,0,5,18,0,0,0,5,19,0,0,0,5,20,0,0,0,5,21,0,0,      81P    243
0,5,22,0,0;                                                           81P    244
510,59,1,1,81;                                                        83P    245
128,1,1,1,1,0,0,1,0,0,0.0D0,0.0D0,.906245405930036D0,                 85P    246
.906245405930036D0,0.0D0,0.0D0,.94488188976378D0,                     85P    247
.94488188976378D0,1.0D0,1.0D0,1.0D0,1.0D0,0.0D0,0.0D0,0.0D0,          85P    248
.906245405930036D0,0.0D0,1.67110601187961D-19,0.0D0,                  85P    249
.94488188976378D0,0.0D0,.906245405930036D0,.94488188976378D0,         85P    250
1.67110601187961D-19,0.0D0,.906245405930036D0,0.0D0,                  85P    251
.94488188976378D0;                                                    85P    252
126,1,1,0,0,1,0,0.0D0,0.0D0,1.0D0,1.0D0,1.0D0,1.0D0,0.0D0,            87P    253
.94488188976378D0,0.0D0,.906245405930036D0,.94488188976378D0,         87P    254
1.67110601187961D-19,0.0D0,1.0D0,0.0D0,0.0D0,0.0D0;                   87P    255
126,1,1,0,0,1,0,0.0D0,0.0D0,1.0D0,1.0D0,1.0D0,1.0D0,0.0D0,0.0D0,      89P    256
0.0D0,0.0D0,.94488188976378D0,0.0D0,0.0D0,1.0D0,0.0D0,0.0D0,          89P    257
0.0D0;                                                                89P    258
508,4,0,5,9,1,0,0,5,23,0,0,0,5,24,0,0,0,5,14,1,0;                     91P    259
508,1,0,5,2,1,0;                                                      93P    260
510,85,2,1,91,93;                                                     95P    261
128,1,1,1,1,0,0,1,0,0,0.0D0,0.0D0,.904778216117209D0,                 97P    262
.904778216117209D0,0.0D0,0.0D0,.94488188976378D0,                     97P    263
.94488188976378D0,1.0D0,1.0D0,1.0D0,1.0D0,.945615484670193D0,         97P    264
0.0D0,0.0D0,1.8503937007874D0,0.0D0,0.0D0,.945615484670193D0,         97P    265
.94488188976378D0,0.0D0,1.8503937007874D0,.94488188976378D0,          97P    266
0.0D0,0.0D0,.904778216117209D0,0.0D0,.94488188976378D0;               97P    267
126,1,1,0,0,1,0,0.0D0,0.0D0,1.0D0,1.0D0,1.0D0,1.0D0,                  99P    268
1.8503937007874D0,0.0D0,0.0D0,1.8503937007874D0,                      99P    269
.94488188976378D0,0.0D0,0.0D0,1.0D0,0.0D0,0.0D0,0.0D0;                99P    270
126,1,1,0,0,1,0,0.0D0,0.0D0,1.0D0,1.0D0,1.0D0,1.0D0,                 101P    271
.945615484670193D0,.94488188976378D0,0.0D0,1.8503937007874D0,        101P    272
.94488188976378D0,0.0D0,0.0D0,1.0D0,0.0D0,0.0D0,0.0D0;               101P    273
508,4,0,5,5,1,0,0,5,22,1,0,0,5,25,1,0,0,5,26,0,0;                    103P    274
508,1,0,5,12,1,0;                                                    105P    275
510,97,2,1,103,105;                                                  107P    276
128,1,1,1,1,0,0,1,0,0,0.0D0,0.0D0,.236220472440945D0,                109P    277
.236220472440945D0,0.0D0,0.0D0,.94488188976378D0,                    109P    278
.94488188976378D0,1.0D0,1.0D0,1.0D0,1.0D0,0.0D0,0.0D0,               109P    279
-.236220472440945D0,0.0D0,0.0D0,0.0D0,0.0D0,.94488188976378D0,       109P    280
-.236220472440945D0,0.0D0,.94488188976378D0,0.0D0,0.0D0,             109P    281
.236220472440945D0,0.0D0,.94488188976378D0;                          109P    282
126,1,1,0,0,1,0,0.0D0,0.0D0,1.0D0,1.0D0,1.0D0,1.0D0,0.0D0,           111P    283
.94488188976378D0,-.236220472440945D0,0.0D0,.94488188976378D0,       111P    284
0.0D0,0.0D0,1.0D0,0.0D0,0.0D0,0.0D0;                                 111P    285
126,1,1,0,0,1,0,0.0D0,0.0D0,1.0D0,1.0D0,1.0D0,1.0D0,0.0D0,0.0D0,     113P    286
-.236220472440945D0,0.0D0,.94488188976378D0,-.236220472440945D0,     113P    287
0.0D0,1.0D0,0.0D0,0.0D0,0.0D0;                                       113P    288
508,4,0,5,15,1,0,0,5,24,1,0,0,5,27,0,0,0,5,28,0,0;                   115P    289
510,109,1,1,115;                                                     117P    290
128,1,1,1,1,0,0,1,0,0,0.0D0,0.0D0,.334645669291339D0,                119P    291
.334645669291339D0,0.0D0,0.0D0,.94488188976378D0,                    119P    292
.94488188976378D0,1.0D0,1.0D0,1.0D0,1.0D0,.334645669291339D0,        119P    293
0.0D0,-.236220472440945D0,0.0D0,0.0D0,-.236220472440945D0,           119P    294
.334645669291339D0,.94488188976378D0,-.236220472440945D0,0.0D0,      119P    295
.94488188976378D0,-.236220472440945D0,0.0D0,.334645669291339D0,      119P    296
0.0D0,.94488188976378D0;                                             119P    297
126,1,1,0,0,1,0,0.0D0,0.0D0,1.0D0,1.0D0,1.0D0,1.0D0,                 121P    298
.334645669291339D0,.94488188976378D0,-.236220472440945D0,0.0D0,      121P    299
.94488188976378D0,-.236220472440945D0,0.0D0,1.0D0,0.0D0,0.0D0,       121P    300
0.0D0;                                                               121P    301
126,1,1,0,0,1,0,0.0D0,0.0D0,1.0D0,1.0D0,1.0D0,1.0D0,                 123P    302
.334645669291339D0,0.0D0,-.236220472440945D0,.334645669291339D0,     123P    303
.94488188976378D0,-.236220472440945D0,0.0D0,1.0D0,0.0D0,0.0D0,       123P    304
0.0D0;                                                               123P    305
508,4,0,5,16,1,0,0,5,28,1,0,0,5,29,0,0,0,5,30,0,0;                   125P    306
508,1,0,5,1,1,0;                                                     127P    307
510,119,2,1,125,127;                                                 129P    308
128,1,8,1,2,0,1,0,0,0,-4.68654554137477D0,-4.68654554137477D0,       131P    309
0.0D0,0.0D0,0.0D0,0.0D0,0.0D0,.316697445611631D0,                    131P    310
.316697445611631D0,.633394891223262D0,.633394891223262D0,            131P    311
.950092336834892D0,.950092336834892D0,1.26678978244652D0,            131P    312
1.26678978244652D0,1.26678978244652D0,1.0D0,1.0D0,                   131P    313
.707106781186548D0,.707106781186548D0,1.0D0,1.0D0,                   131P    314
.707106781186548D0,.707106781186548D0,1.0D0,1.0D0,                   131P    315
.707106781186548D0,.707106781186548D0,1.0D0,1.0D0,                   131P    316
.707106781186548D0,.707106781186548D0,1.0D0,1.0D0,                   131P    317
.334645669291339D0,0.0D0,-.236220472440945D0,.334645669291339D0,     131P    318
.94488188976378D0,-.236220472440945D0,.536261525026009D0,0.0D0,      131P    319
-.236220472440945D0,.536261525026009D0,.94488188976378D0,            131P    320
-.236220472440945D0,.53626152502601D0,0.0D0,-.437836328175616D0,     131P    321
.53626152502601D0,.94488188976378D0,-.437836328175616D0,             131P    322
.536261525026009D0,0.0D0,-.639452183910287D0,.536261525026009D0,     131P    323
.94488188976378D0,-.639452183910287D0,.334645669291339D0,0.0D0,      131P    324
-.639452183910287D0,.334645669291339D0,.94488188976378D0,            131P    325
-.639452183910287D0,.133029813556668D0,0.0D0,                        131P    326
-.639452183910287D0,.133029813556668D0,.94488188976378D0,            131P    327
-.639452183910287D0,.133029813556668D0,0.0D0,                        131P    328
-.437836328175616D0,.133029813556668D0,.94488188976378D0,            131P    329
-.437836328175616D0,.133029813556668D0,0.0D0,                        131P    330
-.236220472440945D0,.133029813556668D0,.94488188976378D0,            131P    331
-.236220472440945D0,.334645669291339D0,0.0D0,                        131P    332
-.236220472440945D0,.334645669291339D0,.94488188976378D0,            131P    333
-.236220472440945D0,-4.68654554137477D0,0.0D0,0.0D0,                 131P    334
1.26678978244652D0;                                                  131P    335
126,2,2,1,0,0,0,0.0D0,0.0D0,0.0D0,1.0D0,1.0D0,1.0D0,1.0D0,           133P    336
.780922097268363D0,1.0D0,.531336511407167D0,.94488188976378D0,       133P    337
-.39354563037811D0,.495910149146556D0,.94488188976378D0,             133P    338
-.236220472440945D0,.334645669291339D0,.94488188976378D0,            133P    339
-.236220472440945D0,0.0D0,1.0D0,0.0D0,-1.0D0,0.0D0;                  133P    340
126,1,1,0,0,1,0,0.0D0,0.0D0,1.0D0,1.0D0,1.0D0,1.0D0,                 135P    341
.531336511407167D0,0.0D0,-.39354563037811D0,.531336511407167D0,      135P    342
.94488188976378D0,-.39354563037811D0,0.0D0,1.0D0,0.0D0,0.0D0,        135P    343
0.0D0;                                                               135P    344
508,4,0,5,17,1,0,0,5,30,1,0,0,5,31,0,0,0,5,32,0,0;                   137P    345
510,131,1,1,137;                                                     139P    346
128,1,8,1,2,0,1,0,0,0,-2.39455922990965D0,-2.39455922990965D0,       141P    347
0.0D0,0.0D0,0.0D0,0.0D0,0.0D0,.619828895087289D0,                    141P    348
.619828895087289D0,1.23965779017458D0,1.23965779017458D0,            141P    349
1.85948668526187D0,1.85948668526187D0,2.47931558034915D0,            141P    350
2.47931558034915D0,2.47931558034915D0,1.0D0,1.0D0,                   141P    351
.707106781186548D0,.707106781186548D0,1.0D0,1.0D0,                   141P    352
.707106781186548D0,.707106781186548D0,1.0D0,1.0D0,                   141P    353
.707106781186548D0,.707106781186548D0,1.0D0,1.0D0,                   141P    354
.707106781186548D0,.707106781186548D0,1.0D0,1.0D0,                   141P    355
.531335116757839D0,.94488188976378D0,-.394630361877642D0,            141P    356
.531335116757839D0,0.0D0,-.394630361877642D0,.531300084977516D0,     141P    357
.94488188976378D0,-3.50333353658638D-5,.531300084977516D0,0.0D0,     141P    358
-3.50333353658638D-5,.925895413519792D0,.94488188976378D0,           141P    359
-1.55504342735924D-9,.925895413519792D0,0.0D0,                       141P    360
-1.55504342735924D-9,1.32049074206207D0,.94488188976378D0,           141P    361
3.50302252787871D-5,1.32049074206207D0,0.0D0,                        141P    362
3.50302252787871D-5,1.32052577384239D0,.94488188976378D0,            141P    363
-.394560298316997D0,1.32052577384239D0,0.0D0,                        141P    364
-.394560298316997D0,1.32056080562271D0,.94488188976378D0,            141P    365
-.789155626859273D0,1.32056080562271D0,0.0D0,                        141P    366
-.789155626859273D0,.925965477080437D0,.94488188976378D0,            141P    367
-.789190658639595D0,.925965477080437D0,0.0D0,                        141P    368
-.789190658639595D0,.531370148538161D0,.94488188976378D0,            141P    369
-.789225690419917D0,.531370148538161D0,0.0D0,                        141P    370
-.789225690419917D0,.531335116757839D0,.94488188976378D0,            141P    371
-.394630361877642D0,.531335116757839D0,0.0D0,                        141P    372
-.394630361877642D0,-2.39455922990965D0,0.0D0,0.0D0,                 141P    373
2.47931558034915D0;                                                  141P    374
126,6,2,1,0,0,0,0.0D0,0.0D0,0.0D0,.333333333333333D0,                143P    375
.333333333333333D0,.666666666666667D0,.666666666666667D0,1.0D0,      143P    376
1.0D0,1.0D0,1.0D0,.865796231639041D0,1.0D0,.865796231639041D0,       143P    377
1.0D0,.865796231639041D0,1.0D0,1.32052577384239D0,                   143P    378
.94488188976378D0,-.394560298316997D0,1.32054602085619D0,            143P    379
.94488188976378D0,-.622621132987182D0,1.12294524586584D0,            143P    380
.94488188976378D0,-.736488066043347D0,.925344470875491D0,            143P    381
.94488188976378D0,-.850354999099513D0,.728037148226703D0,            143P    382
.94488188976378D0,-.735980329047225D0,.530729825577914D0,            143P    383
.94488188976378D0,-.621605658994936D0,.531336511407167D0,            143P    384
.94488188976378D0,-.39354563037811D0,0.0D0,1.0D0,0.0D0,1.0D0,        143P    385
0.0D0;                                                               143P    386
126,1,1,0,0,1,0,0.0D0,0.0D0,1.0D0,1.0D0,1.0D0,1.0D0,                 145P    387
1.32052577384239D0,0.0D0,-.394560298316997D0,1.32052577384239D0,     145P    388
.94488188976378D0,-.394560298316997D0,0.0D0,1.0D0,0.0D0,0.0D0,       145P    389
0.0D0;                                                               145P    390
508,4,0,5,18,1,0,0,5,32,1,0,0,5,33,0,0,0,5,34,0,0;                   147P    391
510,141,1,1,147;                                                     149P    392
128,1,8,1,2,0,1,0,0,0,-4.73582731016276D0,-4.73582731016276D0,       151P    393
0.0D0,0.0D0,0.0D0,0.0D0,0.0D0,.313401841851568D0,                    151P    394
.313401841851568D0,.626803683703135D0,.626803683703135D0,            151P    395
.940205525554703D0,.940205525554703D0,1.25360736740627D0,            151P    396
1.25360736740627D0,1.25360736740627D0,1.0D0,1.0D0,                   151P    397
.707106781186548D0,.707106781186548D0,1.0D0,1.0D0,                   151P    398
.707106781186548D0,.707106781186548D0,1.0D0,1.0D0,                   151P    399
.707106781186548D0,.707106781186548D0,1.0D0,1.0D0,                   151P    400
.707106781186548D0,.707106781186548D0,1.0D0,1.0D0,                   151P    401
1.32052577384239D0,0.0D0,-.394560298316997D0,1.32052577384239D0,     151P    402
.94488188976378D0,-.394560298316997D0,1.36170375718546D0,0.0D0,      151P    403
-.199338040663324D0,1.36170375718546D0,.94488188976378D0,            151P    404
-.199338040663324D0,1.55692601483914D0,0.0D0,                        151P    405
-.240516024006398D0,1.55692601483914D0,.94488188976378D0,            151P    406
-.240516024006398D0,1.75214827249281D0,0.0D0,                        151P    407
-.281694007349472D0,1.75214827249281D0,.94488188976378D0,            151P    408
-.281694007349472D0,1.71097028914974D0,0.0D0,                        151P    409
-.476916265003144D0,1.71097028914974D0,.94488188976378D0,            151P    410
-.476916265003144D0,1.66979230580666D0,0.0D0,                        151P    411
-.672138522656817D0,1.66979230580666D0,.94488188976378D0,            151P    412
-.672138522656817D0,1.47457004815299D0,0.0D0,                        151P    413
-.630960539313743D0,1.47457004815299D0,.94488188976378D0,            151P    414
-.630960539313743D0,1.27934779049932D0,0.0D0,-.58978255597067D0,     151P    415
1.27934779049932D0,.94488188976378D0,-.58978255597067D0,             151P    416
1.32052577384239D0,0.0D0,-.394560298316997D0,1.32052577384239D0,     151P    417
.94488188976378D0,-.394560298316997D0,-4.73582731016276D0,0.0D0,     151P    418
0.0D0,1.25360736740627D0;                                            151P    419
126,2,2,1,0,0,0,0.0D0,0.0D0,0.0D0,1.0D0,1.0D0,1.0D0,1.0D0,           153P    420
.776655492313789D0,1.0D0,1.51574803149606D0,.94488188976378D0,       153P    421
-.236220472440945D0,1.3539241926028D0,.94488188976378D0,             153P    422
-.236220472440945D0,1.32052577384239D0,.94488188976378D0,            153P    423
-.394560298316997D0,0.0D0,1.0D0,0.0D0,-1.0D0,0.0D0;                  153P    424
126,1,1,0,0,1,0,0.0D0,0.0D0,1.0D0,1.0D0,1.0D0,1.0D0,                 155P    425
1.51574803149606D0,0.0D0,-.236220472440945D0,1.51574803149606D0,     155P    426
.94488188976378D0,-.236220472440945D0,0.0D0,1.0D0,0.0D0,0.0D0,       155P    427
0.0D0;                                                               155P    428
508,4,0,5,19,1,0,0,5,34,1,0,0,5,35,0,0,0,5,36,0,0;                   157P    429
510,151,1,1,157;                                                     159P    430
128,1,1,1,1,0,0,1,0,0,0.0D0,0.0D0,.334645669291339D0,                161P    431
.334645669291339D0,0.0D0,0.0D0,.94488188976378D0,                    161P    432
.94488188976378D0,1.0D0,1.0D0,1.0D0,1.0D0,1.8503937007874D0,         161P    433
0.0D0,-.236220472440945D0,1.51574803149606D0,0.0D0,                  161P    434
-.236220472440945D0,1.8503937007874D0,.94488188976378D0,             161P    435
-.236220472440945D0,1.51574803149606D0,.94488188976378D0,            161P    436
-.236220472440945D0,0.0D0,.334645669291339D0,0.0D0,                  161P    437
.94488188976378D0;                                                   161P    438
126,1,1,0,0,1,0,0.0D0,0.0D0,1.0D0,1.0D0,1.0D0,1.0D0,                 163P    439
1.8503937007874D0,.94488188976378D0,-.236220472440945D0,             163P    440
1.51574803149606D0,.94488188976378D0,-.236220472440945D0,0.0D0,      163P    441
1.0D0,0.0D0,0.0D0,0.0D0;                                             163P    442
126,1,1,0,0,1,0,0.0D0,0.0D0,1.0D0,1.0D0,1.0D0,1.0D0,                 165P    443
1.8503937007874D0,0.0D0,-.236220472440945D0,1.8503937007874D0,       165P    444
.94488188976378D0,-.236220472440945D0,0.0D0,1.0D0,0.0D0,0.0D0,       165P    445
0.0D0;                                                               165P    446
508,4,0,5,20,1,0,0,5,36,1,0,0,5,37,0,0,0,5,38,0,0;                   167P    447
508,1,0,5,11,1,0;                                                    169P    448
510,161,2,1,167,169;                                                 171P    449
128,1,1,1,1,0,0,1,0,0,0.0D0,0.0D0,.236220472440945D0,                173P    450
.236220472440945D0,0.0D0,0.0D0,.94488188976378D0,                    173P    451
.94488188976378D0,1.0D0,1.0D0,1.0D0,1.0D0,1.8503937007874D0,         173P    452
0.0D0,0.0D0,1.8503937007874D0,0.0D0,-.236220472440945D0,             173P    453
1.8503937007874D0,.94488188976378D0,0.0D0,1.8503937007874D0,         173P    454
.94488188976378D0,-.236220472440945D0,0.0D0,.236220472440945D0,      173P    455
0.0D0,.94488188976378D0;                                             173P    456
126,1,1,0,0,1,0,0.0D0,0.0D0,1.0D0,1.0D0,1.0D0,1.0D0,                 175P    457
1.8503937007874D0,.94488188976378D0,0.0D0,1.8503937007874D0,         175P    458
.94488188976378D0,-.236220472440945D0,0.0D0,1.0D0,0.0D0,0.0D0,       175P    459
0.0D0;                                                               175P    460
508,4,0,5,21,1,0,0,5,38,1,0,0,5,39,0,0,0,5,25,0,0;                   177P    461
510,173,1,1,177;                                                     179P    462
128,1,8,1,2,0,1,0,0,0,-3.17880794701987D0,-3.17880794701987D0,       181P    463
0.0D0,0.0D0,0.0D0,0.0D0,0.0D0,.466909931783523D0,                    181P    464
.466909931783523D0,.933819863567045D0,.933819863567045D0,            181P    465
1.40072979535057D0,1.40072979535057D0,1.86763972713409D0,            181P    466
1.86763972713409D0,1.86763972713409D0,1.0D0,1.0D0,                   181P    467
.707106781186548D0,.707106781186548D0,1.0D0,1.0D0,                   181P    468
.707106781186548D0,.707106781186548D0,1.0D0,1.0D0,                   181P    469
.707106781186548D0,.707106781186548D0,1.0D0,1.0D0,                   181P    470
.707106781186548D0,.707106781186548D0,1.0D0,1.0D0,                   181P    471
.935711670707987D0,0.0D0,-9.75122115301011D-2,                       181P    472
.935711670707987D0,.94488188976378D0,-9.75122115301011D-2,           181P    473
1.2327947892752D0,0.0D0,-.107293436937974D0,1.2327947892752D0,       181P    474
.94488188976378D0,-.107293436937974D0,1.22301356386733D0,0.0D0,      181P    475
-.404376555505192D0,1.22301356386733D0,.94488188976378D0,            181P    476
-.404376555505192D0,1.21323233845946D0,0.0D0,-.70145967407241D0,     181P    477
1.21323233845946D0,.94488188976378D0,-.70145967407241D0,             181P    478
.916149219892242D0,0.0D0,-.691678448664538D0,.916149219892242D0,     181P    479
.94488188976378D0,-.691678448664538D0,.619066101325024D0,0.0D0,      181P    480
-.681897223256665D0,.619066101325024D0,.94488188976378D0,            181P    481
-.681897223256665D0,.628847326732896D0,0.0D0,                        181P    482
-.384814104689447D0,.628847326732896D0,.94488188976378D0,            181P    483
-.384814104689447D0,.638628552140769D0,0.0D0,                        181P    484
-8.77309861222286D-2,.638628552140769D0,.94488188976378D0,           181P    485
-8.77309861222286D-2,.935711670707987D0,0.0D0,                       181P    486
-9.75122115301011D-2,.935711670707987D0,.94488188976378D0,           181P    487
-9.75122115301011D-2,-3.17880794701987D0,0.0D0,0.0D0,                181P    488
1.86763972713409D0;                                                  181P    489
126,8,2,1,0,0,0,0.0D0,0.0D0,0.0D0,.25D0,.25D0,.5D0,.5D0,.75D0,       183P    490
.75D0,1.0D0,1.0D0,1.0D0,1.0D0,.718724832858666D0,1.0D0,              183P    491
.718724832858666D0,1.0D0,.718724832858666D0,1.0D0,                   183P    492
.718724832858666D0,1.0D0,.906245405930036D0,.94488188976378D0,       183P    493
-9.80037743626661D-2,.619322643701394D0,.94488188976378D0,           183P    494
-.117047087503029D0,.62884953029101D0,.94488188976378D0,             183P    495
-.404443256044269D0,.638376416880626D0,.94488188976378D0,            183P    496
-.691839424585508D0,.925930445300114D0,.94488188976378D0,            183P    497
-.691839424585508D0,1.2134844737196D0,.94488188976378D0,             183P    498
-.691839424585508D0,1.22301136030922D0,.94488188976378D0,            183P    499
-.404443256044269D0,1.23253824689884D0,.94488188976378D0,            183P    500
-.11704708750303D0,.945615484670193D0,.94488188976378D0,             183P    501
-9.80037743626661D-2,0.0D0,1.0D0,0.0D0,-1.0D0,0.0D0;                 183P    502
508,4,0,5,3,1,0,0,5,40,0,0,0,5,7,1,0,0,5,13,1,0;                     185P    503
510,181,1,1,185;                                                     187P    504
128,1,1,1,1,0,0,1,0,0,0.0D0,0.0D0,.789190660194638D0,                189P    505
.789190660194638D0,0.0D0,0.0D0,1.8503937007874D0,                    189P    506
1.8503937007874D0,1.0D0,1.0D0,1.0D0,1.0D0,0.0D0,                     189P    507
.94488188976378D0,-.789190660194638D0,0.0D0,.94488188976378D0,       189P    508
0.0D0,1.8503937007874D0,.94488188976378D0,-.789190660194638D0,       189P    509
1.8503937007874D0,.94488188976378D0,0.0D0,0.0D0,                     189P    510
.789190660194638D0,0.0D0,1.8503937007874D0;                          189P    511
508,12,0,5,6,1,0,0,5,26,1,0,0,5,39,1,0,0,5,37,1,0,0,5,35,1,0,0,      191P    512
5,33,1,0,0,5,31,1,0,0,5,29,1,0,0,5,27,1,0,0,5,23,1,0,0,5,8,1,0,      191P    513
0,5,40,1,0;                                                          191P    514
510,189,1,1,191;                                                     193P    515
514,16,17,1,31,1,45,1,57,1,83,1,95,1,107,1,117,1,129,1,139,1,        195P    516
149,1,159,1,171,1,179,1,187,1,193,1;                                 195P    517
186,195,1,0;                                                         197P    518
314,100.0D0,88.9999985694885D0,70.9999978542328D0,;                  199P    519
S      1G      4D    200P    519                                        T      1
