solid OpenSCAD_Model
  facet normal -1 -0 -0
    outer loop
      vertex -19 0 0
      vertex -19 0 10
      vertex -19 4 0
    endloop
  endfacet
  facet normal -1 0 0
    outer loop
      vertex -19 4 0
      vertex -19 0 10
      vertex -19 4 10
    endloop
  endfacet
  facet normal 0 -1 0
    outer loop
      vertex -13.0674 0 3.66852
      vertex -19 0 0
      vertex 23.3 0 0
    endloop
  endfacet
  facet normal 0 -1 0
    outer loop
      vertex 16.3665 0 3.05033
      vertex -19 0 10
      vertex 23.3 0 0
    endloop
  endfacet
  facet normal 0 -1 0
    outer loop
      vertex -19 0 10
      vertex -19 0 0
      vertex -14.6326 0 4.1771
    endloop
  endfacet
  facet normal 0 -1 0
    outer loop
      vertex -12.3674 0 4.1771
      vertex -13.0674 0 3.66852
      vertex 23.3 0 0
    endloop
  endfacet
  facet normal 0 -1 0
    outer loop
      vertex -19 0 10
      vertex -14.6326 0 4.1771
      vertex -14.9 0 5
    endloop
  endfacet
  facet normal 0 -1 0
    outer loop
      vertex -4.43262 0 3.66852
      vertex -12.3674 0 4.1771
      vertex 23.3 0 0
    endloop
  endfacet
  facet normal 0 -1 0
    outer loop
      vertex -19 0 10
      vertex -14.9 0 5
      vertex -14.6326 0 5.8229
    endloop
  endfacet
  facet normal -0 -1 0
    outer loop
      vertex 16.3665 0 6.94967
      vertex 17.6335 0 6.94967
      vertex 23.3 0 10
    endloop
  endfacet
  facet normal 0 -1 0
    outer loop
      vertex -19 0 10
      vertex -14.6326 0 5.8229
      vertex -13.9326 0 6.33148
    endloop
  endfacet
  facet normal 0 -1 0
    outer loop
      vertex -19 0 10
      vertex -13.9326 0 6.33148
      vertex -13.0674 0 6.33148
    endloop
  endfacet
  facet normal 0 -1 0
    outer loop
      vertex -13.9326 0 3.66852
      vertex -19 0 0
      vertex -13.0674 0 3.66852
    endloop
  endfacet
  facet normal 0 -1 0
    outer loop
      vertex -14.6326 0 4.1771
      vertex -19 0 0
      vertex -13.9326 0 3.66852
    endloop
  endfacet
  facet normal 0 -1 0
    outer loop
      vertex -5.13262 0 4.1771
      vertex -13.0674 0 6.33148
      vertex -12.3674 0 5.8229
    endloop
  endfacet
  facet normal 0 -1 0
    outer loop
      vertex -2.86738 0 4.1771
      vertex -3.56738 0 3.66852
      vertex 23.3 0 0
    endloop
  endfacet
  facet normal 0 -1 0
    outer loop
      vertex -19 0 10
      vertex -13.0674 0 6.33148
      vertex -5.4 0 5
    endloop
  endfacet
  facet normal 0 -1 0
    outer loop
      vertex -2.6 0 5
      vertex -2.86738 0 4.1771
      vertex 23.3 0 0
    endloop
  endfacet
  facet normal 0 -1 0
    outer loop
      vertex -19 0 10
      vertex -5.4 0 5
      vertex -5.13262 0 5.8229
    endloop
  endfacet
  facet normal 0 -1 0
    outer loop
      vertex -2.86738 0 5.8229
      vertex -2.6 0 5
      vertex 23.3 0 0
    endloop
  endfacet
  facet normal 0 -1 0
    outer loop
      vertex -19 0 10
      vertex -5.13262 0 5.8229
      vertex -4.43262 0 6.33148
    endloop
  endfacet
  facet normal 0 -1 0
    outer loop
      vertex -19 0 10
      vertex -3.56738 0 6.33148
      vertex 23.3 0 0
    endloop
  endfacet
  facet normal 0 -1 0
    outer loop
      vertex -19 0 10
      vertex -4.43262 0 6.33148
      vertex -3.56738 0 6.33148
    endloop
  endfacet
  facet normal -0 -1 0
    outer loop
      vertex 17.6335 0 6.94967
      vertex 18.6585 0 6.20496
      vertex 23.3 0 10
    endloop
  endfacet
  facet normal 0 -1 0
    outer loop
      vertex -12.1 0 5
      vertex -12.3674 0 4.1771
      vertex -4.43262 0 3.66852
    endloop
  endfacet
  facet normal 0 -1 0
    outer loop
      vertex -5.13262 0 4.1771
      vertex -5.4 0 5
      vertex -13.0674 0 6.33148
    endloop
  endfacet
  facet normal 0 -1 0
    outer loop
      vertex -3.56738 0 3.66852
      vertex -4.43262 0 3.66852
      vertex 23.3 0 0
    endloop
  endfacet
  facet normal 0 -1 0
    outer loop
      vertex -4.43262 0 3.66852
      vertex -5.13262 0 4.1771
      vertex -12.1 0 5
    endloop
  endfacet
  facet normal 0 -1 0
    outer loop
      vertex 14.95 0 5
      vertex -19 0 10
      vertex 15.3415 0 3.79504
    endloop
  endfacet
  facet normal 0 -1 0
    outer loop
      vertex 17.6335 0 3.05033
      vertex 16.3665 0 3.05033
      vertex 23.3 0 0
    endloop
  endfacet
  facet normal 0 -1 0
    outer loop
      vertex 15.3415 0 6.20496
      vertex -19 0 10
      vertex 14.95 0 5
    endloop
  endfacet
  facet normal 0 -1 0
    outer loop
      vertex 16.3665 0 6.94967
      vertex -19 0 10
      vertex 15.3415 0 6.20496
    endloop
  endfacet
  facet normal 0 -1 0
    outer loop
      vertex 23.3 0 10
      vertex -19 0 10
      vertex 16.3665 0 6.94967
    endloop
  endfacet
  facet normal 0 -1 0
    outer loop
      vertex 23.3 0 10
      vertex 18.6585 0 6.20496
      vertex 23.3 0 0
    endloop
  endfacet
  facet normal 0 -1 0
    outer loop
      vertex 18.6585 0 6.20496
      vertex 19.05 0 5
      vertex 23.3 0 0
    endloop
  endfacet
  facet normal 0 -1 0
    outer loop
      vertex 19.05 0 5
      vertex 18.6585 0 3.79504
      vertex 23.3 0 0
    endloop
  endfacet
  facet normal 0 -1 0
    outer loop
      vertex 18.6585 0 3.79504
      vertex 17.6335 0 3.05033
      vertex 23.3 0 0
    endloop
  endfacet
  facet normal 0 -1 0
    outer loop
      vertex 15.3415 0 3.79504
      vertex -19 0 10
      vertex 16.3665 0 3.05033
    endloop
  endfacet
  facet normal 0 -1 0
    outer loop
      vertex -3.56738 0 6.33148
      vertex -2.86738 0 5.8229
      vertex 23.3 0 0
    endloop
  endfacet
  facet normal 0 -1 0
    outer loop
      vertex -12.3674 0 5.8229
      vertex -12.1 0 5
      vertex -5.13262 0 4.1771
    endloop
  endfacet
  facet normal -0 -0 -1
    outer loop
      vertex -19 0 0
      vertex -19 4 0
      vertex 23.3 0 0
    endloop
  endfacet
  facet normal 0 0 -1
    outer loop
      vertex 23.3 0 0
      vertex -19 4 0
      vertex 1.08983 4 0
    endloop
  endfacet
  facet normal 0 0 -1
    outer loop
      vertex 5.55 3.90289 0
      vertex 1.08983 4 0
      vertex 0.381759 5.38967 0
    endloop
  endfacet
  facet normal 0 0 -1
    outer loop
      vertex 3.57138 6.26091 0
      vertex 0.381759 5.38967 0
      vertex 0 7.8 0
    endloop
  endfacet
  facet normal 0 0 -1
    outer loop
      vertex 3.3 7.8 0
      vertex 0 7.8 0
      vertex 0.381759 10.2103 0
    endloop
  endfacet
  facet normal 0 0 -1
    outer loop
      vertex 4.3528 10.6925 0
      vertex 0.381759 10.2103 0
      vertex 1.48967 12.3847 0
    endloop
  endfacet
  facet normal 0 0 -1
    outer loop
      vertex 5.55 11.6971 0
      vertex 1.48967 12.3847 0
      vertex 3.21528 14.1103 0
    endloop
  endfacet
  facet normal 0 0 -1
    outer loop
      vertex 8.58142 12.2316 0
      vertex 3.21528 14.1103 0
      vertex 5.38967 15.2182 0
    endloop
  endfacet
  facet normal 0 0 -1
    outer loop
      vertex 10.05 11.6971 0
      vertex 5.38967 15.2182 0
      vertex 7.8 15.6 0
    endloop
  endfacet
  facet normal 0 0 -1
    outer loop
      vertex 23.3 11.55 0
      vertex 7.8 15.6 0
      vertex 23.3 15.6 0
    endloop
  endfacet
  facet normal -0 -0 -1
    outer loop
      vertex 8.58142 12.2316 0
      vertex 5.38967 15.2182 0
      vertex 10.05 11.6971 0
    endloop
  endfacet
  facet normal 0 0 -1
    outer loop
      vertex 10.2253 11.55 0
      vertex 10.05 11.6971 0
      vertex 7.8 15.6 0
    endloop
  endfacet
  facet normal -0 -0 -1
    outer loop
      vertex 7.01858 12.2316 0
      vertex 3.21528 14.1103 0
      vertex 8.58142 12.2316 0
    endloop
  endfacet
  facet normal 0 -0 -1
    outer loop
      vertex 5.55 11.6971 0
      vertex 3.21528 14.1103 0
      vertex 7.01858 12.2316 0
    endloop
  endfacet
  facet normal 0 -0 -1
    outer loop
      vertex 4.3528 10.6925 0
      vertex 1.48967 12.3847 0
      vertex 5.55 11.6971 0
    endloop
  endfacet
  facet normal 0 -0 -1
    outer loop
      vertex 3.57138 9.33909 0
      vertex 0.381759 10.2103 0
      vertex 4.3528 10.6925 0
    endloop
  endfacet
  facet normal 0 -0 -1
    outer loop
      vertex 3.3 7.8 0
      vertex 0.381759 10.2103 0
      vertex 3.57138 9.33909 0
    endloop
  endfacet
  facet normal 0 0 -1
    outer loop
      vertex 3.57138 6.26091 0
      vertex 0 7.8 0
      vertex 3.3 7.8 0
    endloop
  endfacet
  facet normal 0 0 -1
    outer loop
      vertex 4.3528 4.90746 0
      vertex 0.381759 5.38967 0
      vertex 3.57138 6.26091 0
    endloop
  endfacet
  facet normal 0 0 -1
    outer loop
      vertex 5.55 3.90289 0
      vertex 0.381759 5.38967 0
      vertex 4.3528 4.90746 0
    endloop
  endfacet
  facet normal 0 0 -1
    outer loop
      vertex 7.01858 3.36836 0
      vertex 1.08983 4 0
      vertex 5.55 3.90289 0
    endloop
  endfacet
  facet normal 0 0 -1
    outer loop
      vertex 8.58142 3.36836 0
      vertex 23.3 0 0
      vertex 7.01858 3.36836 0
    endloop
  endfacet
  facet normal 0 0 -1
    outer loop
      vertex 23.3 0 0
      vertex 1.08983 4 0
      vertex 7.01858 3.36836 0
    endloop
  endfacet
  facet normal 0 0 -1
    outer loop
      vertex 10.05 3.90289 0
      vertex 23.3 0 0
      vertex 8.58142 3.36836 0
    endloop
  endfacet
  facet normal 0 0 -1
    outer loop
      vertex 23.3 4.05 0
      vertex 23.3 0 0
      vertex 10.2253 4.05 0
    endloop
  endfacet
  facet normal 0 0 -1
    outer loop
      vertex 23.3 0 0
      vertex 10.05 3.90289 0
      vertex 10.2253 4.05 0
    endloop
  endfacet
  facet normal -0 -0 -1
    outer loop
      vertex 10.2253 11.55 0
      vertex 7.8 15.6 0
      vertex 23.3 11.55 0
    endloop
  endfacet
  facet normal 0 1 0
    outer loop
      vertex -12.125 4 7.38157
      vertex -19 4 10
      vertex 1.08983 4 10
    endloop
  endfacet
  facet normal 0 1 0
    outer loop
      vertex -19 4 0
      vertex -19 4 10
      vertex -16.25 4 5
    endloop
  endfacet
  facet normal 0 1 0
    outer loop
      vertex -19 4 0
      vertex -16.25 4 5
      vertex -14.875 4 2.61843
    endloop
  endfacet
  facet normal 0 1 0
    outer loop
      vertex -19 4 0
      vertex -14.875 4 2.61843
      vertex 1.08983 4 0
    endloop
  endfacet
  facet normal 0 1 0
    outer loop
      vertex -14.875 4 2.61843
      vertex -12.125 4 2.61843
      vertex 1.08983 4 0
    endloop
  endfacet
  facet normal 0 1 0
    outer loop
      vertex -5.375 4 2.61843
      vertex -10.75 4 5
      vertex -12.125 4 7.38157
    endloop
  endfacet
  facet normal 0 1 -0
    outer loop
      vertex -2.625 4 2.61843
      vertex 1.08983 4 0
      vertex -5.375 4 2.61843
    endloop
  endfacet
  facet normal 0 1 0
    outer loop
      vertex -14.875 4 7.38157
      vertex -19 4 10
      vertex -12.125 4 7.38157
    endloop
  endfacet
  facet normal -0 1 0
    outer loop
      vertex -5.375 4 7.38157
      vertex -12.125 4 7.38157
      vertex 1.08983 4 10
    endloop
  endfacet
  facet normal 0 1 0
    outer loop
      vertex -16.25 4 5
      vertex -19 4 10
      vertex -14.875 4 7.38157
    endloop
  endfacet
  facet normal 0 1 0
    outer loop
      vertex -5.375 4 2.61843
      vertex -12.125 4 7.38157
      vertex -6.75 4 5
    endloop
  endfacet
  facet normal 0 1 0
    outer loop
      vertex -2.625 4 7.38157
      vertex 1.08983 4 10
      vertex -1.25 4 5
    endloop
  endfacet
  facet normal 0 1 0
    outer loop
      vertex 1.08983 4 0
      vertex -2.625 4 2.61843
      vertex -1.25 4 5
    endloop
  endfacet
  facet normal 0 1 0
    outer loop
      vertex 1.08983 4 0
      vertex -1.25 4 5
      vertex 1.08983 4 10
    endloop
  endfacet
  facet normal 0 1 0
    outer loop
      vertex -5.375 4 7.38157
      vertex 1.08983 4 10
      vertex -2.625 4 7.38157
    endloop
  endfacet
  facet normal 0 1 0
    outer loop
      vertex -6.75 4 5
      vertex -12.125 4 7.38157
      vertex -5.375 4 7.38157
    endloop
  endfacet
  facet normal 0 1 -0
    outer loop
      vertex -5.375 4 2.61843
      vertex 1.08983 4 0
      vertex -12.125 4 2.61843
    endloop
  endfacet
  facet normal 0 1 -0
    outer loop
      vertex -10.75 4 5
      vertex -5.375 4 2.61843
      vertex -12.125 4 2.61843
    endloop
  endfacet
  facet normal 0 -0 1
    outer loop
      vertex -19 4 10
      vertex -19 0 10
      vertex 23.3 0 10
    endloop
  endfacet
  facet normal 0 0 1
    outer loop
      vertex 5.55 3.90289 10
      vertex 1.08983 4 10
      vertex -19 4 10
    endloop
  endfacet
  facet normal -0 -0 1
    outer loop
      vertex 7.01858 3.36836 10
      vertex -19 4 10
      vertex 23.3 0 10
    endloop
  endfacet
  facet normal 0 0 1
    outer loop
      vertex 23.3 4.05 10
      vertex 10.05 3.90289 10
      vertex 23.3 0 10
    endloop
  endfacet
  facet normal 0 0 1
    outer loop
      vertex 0.381759 10.2103 10
      vertex 3.57138 9.33909 10
      vertex 4.3528 10.6925 10
    endloop
  endfacet
  facet normal 0 -0 1
    outer loop
      vertex 10.05 3.90289 10
      vertex 8.58142 3.36836 10
      vertex 23.3 0 10
    endloop
  endfacet
  facet normal 0 -0 1
    outer loop
      vertex 8.58142 3.36836 10
      vertex 7.01858 3.36836 10
      vertex 23.3 0 10
    endloop
  endfacet
  facet normal 0 -0 1
    outer loop
      vertex 0.381759 10.2103 10
      vertex 0 7.8 10
      vertex 3.57138 9.33909 10
    endloop
  endfacet
  facet normal 0 0 1
    outer loop
      vertex 0.381759 5.38967 10
      vertex 1.08983 4 10
      vertex 4.3528 4.90746 10
    endloop
  endfacet
  facet normal 0 0 1
    outer loop
      vertex 0 7.8 10
      vertex 3.57138 6.26091 10
      vertex 3.3 7.8 10
    endloop
  endfacet
  facet normal 0 0 1
    outer loop
      vertex 0 7.8 10
      vertex 0.381759 5.38967 10
      vertex 3.57138 6.26091 10
    endloop
  endfacet
  facet normal 0 0 1
    outer loop
      vertex 23.3 15.6 10
      vertex 7.01858 12.2316 10
      vertex 8.58142 12.2316 10
    endloop
  endfacet
  facet normal 0 0 1
    outer loop
      vertex 23.3 11.55 10
      vertex 8.58142 12.2316 10
      vertex 10.05 11.6971 10
    endloop
  endfacet
  facet normal 0 -0 1
    outer loop
      vertex 3.21528 14.1103 10
      vertex 1.48967 12.3847 10
      vertex 7.8 15.6 10
    endloop
  endfacet
  facet normal 0 0 1
    outer loop
      vertex 23.3 15.6 10
      vertex 8.58142 12.2316 10
      vertex 23.3 11.55 10
    endloop
  endfacet
  facet normal 0 -0 1
    outer loop
      vertex 7.8 15.6 10
      vertex 7.01858 12.2316 10
      vertex 23.3 15.6 10
    endloop
  endfacet
  facet normal 0 0 1
    outer loop
      vertex 0.381759 10.2103 10
      vertex 5.55 11.6971 10
      vertex 7.01858 12.2316 10
    endloop
  endfacet
  facet normal 0 -0 1
    outer loop
      vertex 5.38967 15.2182 10
      vertex 3.21528 14.1103 10
      vertex 7.8 15.6 10
    endloop
  endfacet
  facet normal 0 0 1
    outer loop
      vertex 7.8 15.6 10
      vertex 1.48967 12.3847 10
      vertex 7.01858 12.2316 10
    endloop
  endfacet
  facet normal 0 -0 1
    outer loop
      vertex 1.48967 12.3847 10
      vertex 0.381759 10.2103 10
      vertex 7.01858 12.2316 10
    endloop
  endfacet
  facet normal 0 0 1
    outer loop
      vertex 3.57138 9.33909 10
      vertex 0 7.8 10
      vertex 3.3 7.8 10
    endloop
  endfacet
  facet normal 0 -0 1
    outer loop
      vertex 3.57138 6.26091 10
      vertex 0.381759 5.38967 10
      vertex 4.3528 4.90746 10
    endloop
  endfacet
  facet normal 0 0 1
    outer loop
      vertex 7.01858 3.36836 10
      vertex 5.55 3.90289 10
      vertex -19 4 10
    endloop
  endfacet
  facet normal 0 0 1
    outer loop
      vertex 10.2253 11.55 10
      vertex 23.3 11.55 10
      vertex 10.05 11.6971 10
    endloop
  endfacet
  facet normal 0 0 1
    outer loop
      vertex 0.381759 10.2103 10
      vertex 4.3528 10.6925 10
      vertex 5.55 11.6971 10
    endloop
  endfacet
  facet normal 0 -0 1
    outer loop
      vertex 10.2253 4.05 10
      vertex 10.05 3.90289 10
      vertex 23.3 4.05 10
    endloop
  endfacet
  facet normal 0 0 1
    outer loop
      vertex 5.55 3.90289 10
      vertex 4.3528 4.90746 10
      vertex 1.08983 4 10
    endloop
  endfacet
  facet normal 1 0 -0
    outer loop
      vertex 23.3 0 10
      vertex 23.3 0 0
      vertex 23.3 4.05 0
    endloop
  endfacet
  facet normal 1 0 0
    outer loop
      vertex 23.3 4.05 10
      vertex 23.3 0 10
      vertex 23.3 4.05 0
    endloop
  endfacet
  facet normal 0.951057 0 0.309017
    outer loop
      vertex -14.6326 0 4.1771
      vertex -14.6326 1.9 4.1771
      vertex -14.9 1.9 5
    endloop
  endfacet
  facet normal 0.951057 1.44454e-16 0.309017
    outer loop
      vertex -14.9 0 5
      vertex -14.6326 0 4.1771
      vertex -14.9 1.9 5
    endloop
  endfacet
  facet normal 0.587785 1.89092e-16 0.809017
    outer loop
      vertex -13.9326 0 3.66852
      vertex -13.9326 1.9 3.66852
      vertex -14.6326 1.9 4.1771
    endloop
  endfacet
  facet normal 0.587785 0 0.809017
    outer loop
      vertex -14.6326 0 4.1771
      vertex -13.9326 0 3.66852
      vertex -14.6326 1.9 4.1771
    endloop
  endfacet
  facet normal 0 2.33731e-16 1
    outer loop
      vertex -13.0674 0 3.66852
      vertex -13.0674 1.9 3.66852
      vertex -13.9326 1.9 3.66852
    endloop
  endfacet
  facet normal 0 2.33731e-16 1
    outer loop
      vertex -13.9326 0 3.66852
      vertex -13.0674 0 3.66852
      vertex -13.9326 1.9 3.66852
    endloop
  endfacet
  facet normal -0.587785 0 0.809017
    outer loop
      vertex -12.3674 0 4.1771
      vertex -12.3674 1.9 4.1771
      vertex -13.0674 1.9 3.66852
    endloop
  endfacet
  facet normal -0.587785 1.89092e-16 0.809017
    outer loop
      vertex -13.0674 0 3.66852
      vertex -12.3674 0 4.1771
      vertex -13.0674 1.9 3.66852
    endloop
  endfacet
  facet normal -0.951057 1.44454e-16 0.309017
    outer loop
      vertex -12.1 1.9 5
      vertex -12.3674 1.9 4.1771
      vertex -12.1 0 5
    endloop
  endfacet
  facet normal -0.951057 0 0.309017
    outer loop
      vertex -12.1 0 5
      vertex -12.3674 1.9 4.1771
      vertex -12.3674 0 4.1771
    endloop
  endfacet
  facet normal -0.951057 -1.44454e-16 -0.309017
    outer loop
      vertex -12.1 1.9 5
      vertex -12.1 0 5
      vertex -12.3674 1.9 5.8229
    endloop
  endfacet
  facet normal -0.951057 0 -0.309017
    outer loop
      vertex -12.3674 1.9 5.8229
      vertex -12.1 0 5
      vertex -12.3674 0 5.8229
    endloop
  endfacet
  facet normal -0.587785 0 -0.809017
    outer loop
      vertex -12.3674 1.9 5.8229
      vertex -12.3674 0 5.8229
      vertex -13.0674 1.9 6.33148
    endloop
  endfacet
  facet normal -0.587785 -3.78185e-16 -0.809017
    outer loop
      vertex -13.0674 1.9 6.33148
      vertex -12.3674 0 5.8229
      vertex -13.0674 0 6.33148
    endloop
  endfacet
  facet normal 0 -4.67462e-16 -1
    outer loop
      vertex -13.0674 1.9 6.33148
      vertex -13.0674 0 6.33148
      vertex -13.9326 1.9 6.33148
    endloop
  endfacet
  facet normal 0 -4.67462e-16 -1
    outer loop
      vertex -13.9326 1.9 6.33148
      vertex -13.0674 0 6.33148
      vertex -13.9326 0 6.33148
    endloop
  endfacet
  facet normal 0.587785 -3.78185e-16 -0.809017
    outer loop
      vertex -13.9326 1.9 6.33148
      vertex -13.9326 0 6.33148
      vertex -14.6326 1.9 5.8229
    endloop
  endfacet
  facet normal 0.587785 0 -0.809017
    outer loop
      vertex -14.6326 1.9 5.8229
      vertex -13.9326 0 6.33148
      vertex -14.6326 0 5.8229
    endloop
  endfacet
  facet normal 0.951057 0 -0.309017
    outer loop
      vertex -14.9 1.9 5
      vertex -14.6326 1.9 5.8229
      vertex -14.6326 0 5.8229
    endloop
  endfacet
  facet normal 0.951057 -1.44454e-16 -0.309017
    outer loop
      vertex -14.9 0 5
      vertex -14.9 1.9 5
      vertex -14.6326 0 5.8229
    endloop
  endfacet
  facet normal 0.587785 1.89092e-16 0.809017
    outer loop
      vertex -4.43262 0 3.66852
      vertex -4.43262 1.9 3.66852
      vertex -5.13262 1.9 4.1771
    endloop
  endfacet
  facet normal 0.587785 0 0.809017
    outer loop
      vertex -5.13262 0 4.1771
      vertex -4.43262 0 3.66852
      vertex -5.13262 1.9 4.1771
    endloop
  endfacet
  facet normal 0.951057 0 0.309017
    outer loop
      vertex -5.13262 0 4.1771
      vertex -5.13262 1.9 4.1771
      vertex -5.4 1.9 5
    endloop
  endfacet
  facet normal 0.951057 1.44454e-16 0.309017
    outer loop
      vertex -5.4 0 5
      vertex -5.13262 0 4.1771
      vertex -5.4 1.9 5
    endloop
  endfacet
  facet normal 0 2.33731e-16 1
    outer loop
      vertex -3.56738 0 3.66852
      vertex -3.56738 1.9 3.66852
      vertex -4.43262 1.9 3.66852
    endloop
  endfacet
  facet normal 0 2.33731e-16 1
    outer loop
      vertex -4.43262 0 3.66852
      vertex -3.56738 0 3.66852
      vertex -4.43262 1.9 3.66852
    endloop
  endfacet
  facet normal -0.587785 0 0.809017
    outer loop
      vertex -2.86738 0 4.1771
      vertex -2.86738 1.9 4.1771
      vertex -3.56738 1.9 3.66852
    endloop
  endfacet
  facet normal -0.587785 1.89092e-16 0.809017
    outer loop
      vertex -3.56738 0 3.66852
      vertex -2.86738 0 4.1771
      vertex -3.56738 1.9 3.66852
    endloop
  endfacet
  facet normal -0.951057 1.44454e-16 0.309017
    outer loop
      vertex -2.6 1.9 5
      vertex -2.86738 1.9 4.1771
      vertex -2.6 0 5
    endloop
  endfacet
  facet normal -0.951057 0 0.309017
    outer loop
      vertex -2.6 0 5
      vertex -2.86738 1.9 4.1771
      vertex -2.86738 0 4.1771
    endloop
  endfacet
  facet normal -0.951057 -1.44454e-16 -0.309017
    outer loop
      vertex -2.6 1.9 5
      vertex -2.6 0 5
      vertex -2.86738 1.9 5.8229
    endloop
  endfacet
  facet normal -0.951057 0 -0.309017
    outer loop
      vertex -2.86738 1.9 5.8229
      vertex -2.6 0 5
      vertex -2.86738 0 5.8229
    endloop
  endfacet
  facet normal -0.587785 0 -0.809017
    outer loop
      vertex -2.86738 1.9 5.8229
      vertex -2.86738 0 5.8229
      vertex -3.56738 1.9 6.33148
    endloop
  endfacet
  facet normal -0.587785 -3.78185e-16 -0.809017
    outer loop
      vertex -3.56738 1.9 6.33148
      vertex -2.86738 0 5.8229
      vertex -3.56738 0 6.33148
    endloop
  endfacet
  facet normal 0 -4.67462e-16 -1
    outer loop
      vertex -3.56738 1.9 6.33148
      vertex -3.56738 0 6.33148
      vertex -4.43262 1.9 6.33148
    endloop
  endfacet
  facet normal 0 -4.67462e-16 -1
    outer loop
      vertex -4.43262 1.9 6.33148
      vertex -3.56738 0 6.33148
      vertex -4.43262 0 6.33148
    endloop
  endfacet
  facet normal 0.587785 -3.78185e-16 -0.809017
    outer loop
      vertex -4.43262 1.9 6.33148
      vertex -4.43262 0 6.33148
      vertex -5.13262 1.9 5.8229
    endloop
  endfacet
  facet normal 0.587785 0 -0.809017
    outer loop
      vertex -5.13262 1.9 5.8229
      vertex -4.43262 0 6.33148
      vertex -5.13262 0 5.8229
    endloop
  endfacet
  facet normal 0.951057 0 -0.309017
    outer loop
      vertex -5.4 1.9 5
      vertex -5.13262 1.9 5.8229
      vertex -5.13262 0 5.8229
    endloop
  endfacet
  facet normal 0.951057 -1.44454e-16 -0.309017
    outer loop
      vertex -5.4 0 5
      vertex -5.4 1.9 5
      vertex -5.13262 0 5.8229
    endloop
  endfacet
  facet normal 0.951057 6.77684e-17 0.309017
    outer loop
      vertex 15.3415 0 3.79504
      vertex 15.3415 4.05 3.79504
      vertex 14.95 4.05 5
    endloop
  endfacet
  facet normal 0.951057 6.77684e-17 0.309017
    outer loop
      vertex 14.95 0 5
      vertex 15.3415 0 3.79504
      vertex 14.95 4.05 5
    endloop
  endfacet
  facet normal 0.587785 1.7742e-16 0.809017
    outer loop
      vertex 16.3665 0 3.05033
      vertex 16.3665 4.05 3.05033
      vertex 15.3415 4.05 3.79504
    endloop
  endfacet
  facet normal 0.587785 1.7742e-16 0.809017
    outer loop
      vertex 15.3415 0 3.79504
      vertex 16.3665 0 3.05033
      vertex 15.3415 4.05 3.79504
    endloop
  endfacet
  facet normal 0 2.19303e-16 1
    outer loop
      vertex 17.6335 0 3.05033
      vertex 17.6335 4.05 3.05033
      vertex 16.3665 4.05 3.05033
    endloop
  endfacet
  facet normal 0 2.19303e-16 1
    outer loop
      vertex 16.3665 0 3.05033
      vertex 17.6335 0 3.05033
      vertex 16.3665 4.05 3.05033
    endloop
  endfacet
  facet normal -0.587785 1.7742e-16 0.809017
    outer loop
      vertex 18.6585 0 3.79504
      vertex 18.6585 4.05 3.79504
      vertex 17.6335 4.05 3.05033
    endloop
  endfacet
  facet normal -0.587785 1.7742e-16 0.809017
    outer loop
      vertex 17.6335 0 3.05033
      vertex 18.6585 0 3.79504
      vertex 17.6335 4.05 3.05033
    endloop
  endfacet
  facet normal -0.951057 6.77684e-17 0.309017
    outer loop
      vertex 19.05 4.05 5
      vertex 18.6585 4.05 3.79504
      vertex 19.05 0 5
    endloop
  endfacet
  facet normal -0.951057 6.65427e-17 0.309017
    outer loop
      vertex 19.05 0 5
      vertex 18.6585 4.05 3.79504
      vertex 18.6585 0 3.79504
    endloop
  endfacet
  facet normal -0.951057 -6.77684e-17 -0.309017
    outer loop
      vertex 19.05 4.05 5
      vertex 19.05 0 5
      vertex 18.6585 4.05 6.20496
    endloop
  endfacet
  facet normal -0.951057 -6.77684e-17 -0.309017
    outer loop
      vertex 18.6585 4.05 6.20496
      vertex 19.05 0 5
      vertex 18.6585 0 6.20496
    endloop
  endfacet
  facet normal -0.587785 -1.7742e-16 -0.809017
    outer loop
      vertex 18.6585 4.05 6.20496
      vertex 18.6585 0 6.20496
      vertex 17.6335 4.05 6.94967
    endloop
  endfacet
  facet normal -0.587785 -1.7742e-16 -0.809017
    outer loop
      vertex 17.6335 4.05 6.94967
      vertex 18.6585 0 6.20496
      vertex 17.6335 0 6.94967
    endloop
  endfacet
  facet normal 0 -2.19303e-16 -1
    outer loop
      vertex 17.6335 4.05 6.94967
      vertex 17.6335 0 6.94967
      vertex 16.3665 4.05 6.94967
    endloop
  endfacet
  facet normal 0 -2.19303e-16 -1
    outer loop
      vertex 16.3665 4.05 6.94967
      vertex 17.6335 0 6.94967
      vertex 16.3665 0 6.94967
    endloop
  endfacet
  facet normal 0.587785 -1.7742e-16 -0.809017
    outer loop
      vertex 16.3665 4.05 6.94967
      vertex 16.3665 0 6.94967
      vertex 15.3415 4.05 6.20496
    endloop
  endfacet
  facet normal 0.587785 -1.7742e-16 -0.809017
    outer loop
      vertex 15.3415 4.05 6.20496
      vertex 16.3665 0 6.94967
      vertex 15.3415 0 6.20496
    endloop
  endfacet
  facet normal 0.951057 -6.65427e-17 -0.309017
    outer loop
      vertex 14.95 4.05 5
      vertex 15.3415 4.05 6.20496
      vertex 15.3415 0 6.20496
    endloop
  endfacet
  facet normal 0.951057 -6.77684e-17 -0.309017
    outer loop
      vertex 14.95 0 5
      vertex 14.95 4.05 5
      vertex 15.3415 0 6.20496
    endloop
  endfacet
  facet normal 0 1 -0
    outer loop
      vertex 16.3665 4.05 3.05033
      vertex 23.3 4.05 0
      vertex 10.2253 4.05 0
    endloop
  endfacet
  facet normal 0 1 -0
    outer loop
      vertex 18.6585 4.05 3.79504
      vertex 23.3 4.05 0
      vertex 17.6335 4.05 3.05033
    endloop
  endfacet
  facet normal 0 1 -0
    outer loop
      vertex 10.2253 4.05 10
      vertex 15.3415 4.05 3.79504
      vertex 10.2253 4.05 0
    endloop
  endfacet
  facet normal 0 1 -0
    outer loop
      vertex 15.3415 4.05 3.79504
      vertex 16.3665 4.05 3.05033
      vertex 10.2253 4.05 0
    endloop
  endfacet
  facet normal 0 1 0
    outer loop
      vertex 23.3 4.05 10
      vertex 23.3 4.05 0
      vertex 18.6585 4.05 3.79504
    endloop
  endfacet
  facet normal 0 1 0
    outer loop
      vertex 23.3 4.05 10
      vertex 18.6585 4.05 3.79504
      vertex 19.05 4.05 5
    endloop
  endfacet
  facet normal 0 1 0
    outer loop
      vertex 23.3 4.05 10
      vertex 19.05 4.05 5
      vertex 18.6585 4.05 6.20496
    endloop
  endfacet
  facet normal 0 1 0
    outer loop
      vertex 23.3 4.05 10
      vertex 18.6585 4.05 6.20496
      vertex 17.6335 4.05 6.94967
    endloop
  endfacet
  facet normal 0 1 0
    outer loop
      vertex 23.3 4.05 10
      vertex 17.6335 4.05 6.94967
      vertex 10.2253 4.05 10
    endloop
  endfacet
  facet normal 0 1 0
    outer loop
      vertex 15.3415 4.05 6.20496
      vertex 10.2253 4.05 10
      vertex 16.3665 4.05 6.94967
    endloop
  endfacet
  facet normal 0 1 0
    outer loop
      vertex 16.3665 4.05 6.94967
      vertex 10.2253 4.05 10
      vertex 17.6335 4.05 6.94967
    endloop
  endfacet
  facet normal 0 1 0
    outer loop
      vertex 14.95 4.05 5
      vertex 10.2253 4.05 10
      vertex 15.3415 4.05 6.20496
    endloop
  endfacet
  facet normal 0 1 0
    outer loop
      vertex 10.2253 4.05 10
      vertex 14.95 4.05 5
      vertex 15.3415 4.05 3.79504
    endloop
  endfacet
  facet normal 0 1 -0
    outer loop
      vertex 17.6335 4.05 3.05033
      vertex 23.3 4.05 0
      vertex 16.3665 4.05 3.05033
    endloop
  endfacet
  facet normal -0.642788 0.766044 0
    outer loop
      vertex 10.2253 4.05 10
      vertex 10.2253 4.05 0
      vertex 10.05 3.90289 10
    endloop
  endfacet
  facet normal -0.642788 0.766044 0
    outer loop
      vertex 10.05 3.90289 10
      vertex 10.2253 4.05 0
      vertex 10.05 3.90289 0
    endloop
  endfacet
  facet normal -0.34202 0.939693 0
    outer loop
      vertex 10.05 3.90289 10
      vertex 10.05 3.90289 0
      vertex 8.58142 3.36836 10
    endloop
  endfacet
  facet normal -0.34202 0.939693 0
    outer loop
      vertex 8.58142 3.36836 10
      vertex 10.05 3.90289 0
      vertex 8.58142 3.36836 0
    endloop
  endfacet
  facet normal 0 1 0
    outer loop
      vertex 8.58142 3.36836 10
      vertex 8.58142 3.36836 0
      vertex 7.01858 3.36836 10
    endloop
  endfacet
  facet normal 0 1 -0
    outer loop
      vertex 7.01858 3.36836 10
      vertex 8.58142 3.36836 0
      vertex 7.01858 3.36836 0
    endloop
  endfacet
  facet normal 0.34202 0.939693 -0
    outer loop
      vertex 7.01858 3.36836 10
      vertex 7.01858 3.36836 0
      vertex 5.55 3.90289 10
    endloop
  endfacet
  facet normal 0.34202 0.939693 -0
    outer loop
      vertex 5.55 3.90289 10
      vertex 7.01858 3.36836 0
      vertex 5.55 3.90289 0
    endloop
  endfacet
  facet normal 0.642788 0.766044 -0
    outer loop
      vertex 5.55 3.90289 10
      vertex 5.55 3.90289 0
      vertex 4.3528 4.90746 10
    endloop
  endfacet
  facet normal 0.642788 0.766044 -0
    outer loop
      vertex 4.3528 4.90746 10
      vertex 5.55 3.90289 0
      vertex 4.3528 4.90746 0
    endloop
  endfacet
  facet normal 0.866025 0.5 0
    outer loop
      vertex 3.57138 6.26091 10
      vertex 4.3528 4.90746 10
      vertex 4.3528 4.90746 0
    endloop
  endfacet
  facet normal 0.866025 0.5 0
    outer loop
      vertex 3.57138 6.26091 0
      vertex 3.57138 6.26091 10
      vertex 4.3528 4.90746 0
    endloop
  endfacet
  facet normal 0.984808 0.173648 0
    outer loop
      vertex 3.3 7.8 10
      vertex 3.57138 6.26091 10
      vertex 3.57138 6.26091 0
    endloop
  endfacet
  facet normal 0.984808 0.173648 0
    outer loop
      vertex 3.3 7.8 0
      vertex 3.3 7.8 10
      vertex 3.57138 6.26091 0
    endloop
  endfacet
  facet normal 0.984808 -0.173648 0
    outer loop
      vertex 3.57138 9.33909 0
      vertex 3.57138 9.33909 10
      vertex 3.3 7.8 10
    endloop
  endfacet
  facet normal 0.984808 -0.173648 0
    outer loop
      vertex 3.3 7.8 0
      vertex 3.57138 9.33909 0
      vertex 3.3 7.8 10
    endloop
  endfacet
  facet normal 0.866025 -0.5 0
    outer loop
      vertex 4.3528 10.6925 0
      vertex 4.3528 10.6925 10
      vertex 3.57138 9.33909 10
    endloop
  endfacet
  facet normal 0.866025 -0.5 0
    outer loop
      vertex 3.57138 9.33909 0
      vertex 4.3528 10.6925 0
      vertex 3.57138 9.33909 10
    endloop
  endfacet
  facet normal 0.642788 -0.766044 0
    outer loop
      vertex 5.55 11.6971 0
      vertex 5.55 11.6971 10
      vertex 4.3528 10.6925 10
    endloop
  endfacet
  facet normal 0.642788 -0.766044 0
    outer loop
      vertex 4.3528 10.6925 0
      vertex 5.55 11.6971 0
      vertex 4.3528 10.6925 10
    endloop
  endfacet
  facet normal 0.34202 -0.939693 0
    outer loop
      vertex 7.01858 12.2316 0
      vertex 7.01858 12.2316 10
      vertex 5.55 11.6971 10
    endloop
  endfacet
  facet normal 0.34202 -0.939693 0
    outer loop
      vertex 5.55 11.6971 0
      vertex 7.01858 12.2316 0
      vertex 5.55 11.6971 10
    endloop
  endfacet
  facet normal 0 -1 0
    outer loop
      vertex 8.58142 12.2316 0
      vertex 8.58142 12.2316 10
      vertex 7.01858 12.2316 10
    endloop
  endfacet
  facet normal -0 -1 -0
    outer loop
      vertex 7.01858 12.2316 0
      vertex 8.58142 12.2316 0
      vertex 7.01858 12.2316 10
    endloop
  endfacet
  facet normal -0.34202 -0.939693 -0
    outer loop
      vertex 10.05 11.6971 0
      vertex 10.05 11.6971 10
      vertex 8.58142 12.2316 10
    endloop
  endfacet
  facet normal -0.34202 -0.939693 -0
    outer loop
      vertex 8.58142 12.2316 0
      vertex 10.05 11.6971 0
      vertex 8.58142 12.2316 10
    endloop
  endfacet
  facet normal -0.642788 -0.766044 -0
    outer loop
      vertex 10.2253 11.55 0
      vertex 10.2253 11.55 10
      vertex 10.05 11.6971 10
    endloop
  endfacet
  facet normal -0.642788 -0.766044 -0
    outer loop
      vertex 10.05 11.6971 0
      vertex 10.2253 11.55 0
      vertex 10.05 11.6971 10
    endloop
  endfacet
  facet normal 0 -1 -0
    outer loop
      vertex 16.3665 11.55 6.94967
      vertex 23.3 11.55 10
      vertex 10.2253 11.55 10
    endloop
  endfacet
  facet normal -0 -1 0
    outer loop
      vertex 16.3665 11.55 6.94967
      vertex 17.6335 11.55 6.94967
      vertex 23.3 11.55 10
    endloop
  endfacet
  facet normal 0 -1 -0
    outer loop
      vertex 10.2253 11.55 0
      vertex 14.95 11.55 5
      vertex 10.2253 11.55 10
    endloop
  endfacet
  facet normal 0 -1 -0
    outer loop
      vertex 15.3415 11.55 6.20496
      vertex 16.3665 11.55 6.94967
      vertex 10.2253 11.55 10
    endloop
  endfacet
  facet normal 0 -1 0
    outer loop
      vertex 18.6585 11.55 6.20496
      vertex 19.05 11.55 5
      vertex 23.3 11.55 0
    endloop
  endfacet
  facet normal 0 -1 -0
    outer loop
      vertex 18.6585 11.55 6.20496
      vertex 23.3 11.55 10
      vertex 17.6335 11.55 6.94967
    endloop
  endfacet
  facet normal 0 -1 0
    outer loop
      vertex 23.3 11.55 0
      vertex 23.3 11.55 10
      vertex 18.6585 11.55 6.20496
    endloop
  endfacet
  facet normal 0 -1 0
    outer loop
      vertex 23.3 11.55 0
      vertex 19.05 11.55 5
      vertex 18.6585 11.55 3.79504
    endloop
  endfacet
  facet normal -0 -1 0
    outer loop
      vertex 10.2253 11.55 0
      vertex 23.3 11.55 0
      vertex 17.6335 11.55 3.05033
    endloop
  endfacet
  facet normal 0 -1 0
    outer loop
      vertex 10.2253 11.55 0
      vertex 17.6335 11.55 3.05033
      vertex 16.3665 11.55 3.05033
    endloop
  endfacet
  facet normal 0 -1 0
    outer loop
      vertex 10.2253 11.55 0
      vertex 15.3415 11.55 3.79504
      vertex 14.95 11.55 5
    endloop
  endfacet
  facet normal 0 -1 0
    outer loop
      vertex 10.2253 11.55 0
      vertex 16.3665 11.55 3.05033
      vertex 15.3415 11.55 3.79504
    endloop
  endfacet
  facet normal 0 -1 -0
    outer loop
      vertex 14.95 11.55 5
      vertex 15.3415 11.55 6.20496
      vertex 10.2253 11.55 10
    endloop
  endfacet
  facet normal 0 -1 0
    outer loop
      vertex 18.6585 11.55 3.79504
      vertex 17.6335 11.55 3.05033
      vertex 23.3 11.55 0
    endloop
  endfacet
  facet normal 1 0 -0
    outer loop
      vertex 23.3 11.55 10
      vertex 23.3 11.55 0
      vertex 23.3 15.6 0
    endloop
  endfacet
  facet normal 1 0 0
    outer loop
      vertex 23.3 15.6 10
      vertex 23.3 11.55 10
      vertex 23.3 15.6 0
    endloop
  endfacet
  facet normal 0 1 -0
    outer loop
      vertex 17.6335 15.6 3.05033
      vertex 23.3 15.6 0
      vertex 16.3665 15.6 3.05033
    endloop
  endfacet
  facet normal 0 1 0
    outer loop
      vertex 17.6335 15.6 6.94967
      vertex 7.8 15.6 10
      vertex 23.3 15.6 10
    endloop
  endfacet
  facet normal 0 1 0
    outer loop
      vertex 7.8 15.6 0
      vertex 7.8 15.6 10
      vertex 14.95 15.6 5
    endloop
  endfacet
  facet normal 0 1 0
    outer loop
      vertex 7.8 15.6 0
      vertex 14.95 15.6 5
      vertex 15.3415 15.6 3.79504
    endloop
  endfacet
  facet normal 0 1 0
    outer loop
      vertex 7.8 15.6 0
      vertex 15.3415 15.6 3.79504
      vertex 16.3665 15.6 3.05033
    endloop
  endfacet
  facet normal 0 1 0
    outer loop
      vertex 7.8 15.6 0
      vertex 16.3665 15.6 3.05033
      vertex 23.3 15.6 0
    endloop
  endfacet
  facet normal 0 1 -0
    outer loop
      vertex 18.6585 15.6 3.79504
      vertex 23.3 15.6 0
      vertex 17.6335 15.6 3.05033
    endloop
  endfacet
  facet normal 0 1 0
    outer loop
      vertex 23.3 15.6 0
      vertex 18.6585 15.6 3.79504
      vertex 23.3 15.6 10
    endloop
  endfacet
  facet normal 0 1 0
    outer loop
      vertex 18.6585 15.6 3.79504
      vertex 19.05 15.6 5
      vertex 23.3 15.6 10
    endloop
  endfacet
  facet normal 0 1 0
    outer loop
      vertex 15.3415 15.6 6.20496
      vertex 7.8 15.6 10
      vertex 16.3665 15.6 6.94967
    endloop
  endfacet
  facet normal 0 1 0
    outer loop
      vertex 19.05 15.6 5
      vertex 18.6585 15.6 6.20496
      vertex 23.3 15.6 10
    endloop
  endfacet
  facet normal 0 1 0
    outer loop
      vertex 18.6585 15.6 6.20496
      vertex 17.6335 15.6 6.94967
      vertex 23.3 15.6 10
    endloop
  endfacet
  facet normal 0 1 0
    outer loop
      vertex 14.95 15.6 5
      vertex 7.8 15.6 10
      vertex 15.3415 15.6 6.20496
    endloop
  endfacet
  facet normal 0 1 0
    outer loop
      vertex 16.3665 15.6 6.94967
      vertex 7.8 15.6 10
      vertex 17.6335 15.6 6.94967
    endloop
  endfacet
  facet normal -0.156434 0.987688 0
    outer loop
      vertex 5.38967 15.2182 0
      vertex 5.38967 15.2182 10
      vertex 7.8 15.6 0
    endloop
  endfacet
  facet normal -0.156434 0.987688 0
    outer loop
      vertex 7.8 15.6 0
      vertex 5.38967 15.2182 10
      vertex 7.8 15.6 10
    endloop
  endfacet
  facet normal -0.45399 0.891007 0
    outer loop
      vertex 3.21528 14.1103 0
      vertex 3.21528 14.1103 10
      vertex 5.38967 15.2182 0
    endloop
  endfacet
  facet normal -0.45399 0.891007 0
    outer loop
      vertex 5.38967 15.2182 0
      vertex 3.21528 14.1103 10
      vertex 5.38967 15.2182 10
    endloop
  endfacet
  facet normal -0.707107 0.707107 0
    outer loop
      vertex 1.48967 12.3847 0
      vertex 1.48967 12.3847 10
      vertex 3.21528 14.1103 0
    endloop
  endfacet
  facet normal -0.707107 0.707107 0
    outer loop
      vertex 3.21528 14.1103 0
      vertex 1.48967 12.3847 10
      vertex 3.21528 14.1103 10
    endloop
  endfacet
  facet normal -0.891007 0.45399 0
    outer loop
      vertex 0.381759 10.2103 0
      vertex 0.381759 10.2103 10
      vertex 1.48967 12.3847 0
    endloop
  endfacet
  facet normal -0.891007 0.45399 0
    outer loop
      vertex 1.48967 12.3847 0
      vertex 0.381759 10.2103 10
      vertex 1.48967 12.3847 10
    endloop
  endfacet
  facet normal -0.987688 0.156434 0
    outer loop
      vertex 0 7.8 0
      vertex 0 7.8 10
      vertex 0.381759 10.2103 0
    endloop
  endfacet
  facet normal -0.987688 0.156434 0
    outer loop
      vertex 0.381759 10.2103 0
      vertex 0 7.8 10
      vertex 0.381759 10.2103 10
    endloop
  endfacet
  facet normal -0.987688 -0.156434 -0
    outer loop
      vertex 0 7.8 0
      vertex 0.381759 5.38967 0
      vertex 0 7.8 10
    endloop
  endfacet
  facet normal -0.987688 -0.156434 0
    outer loop
      vertex 0 7.8 10
      vertex 0.381759 5.38967 0
      vertex 0.381759 5.38967 10
    endloop
  endfacet
  facet normal -0.891007 -0.45399 -0
    outer loop
      vertex 0.381759 5.38967 0
      vertex 1.08983 4 0
      vertex 0.381759 5.38967 10
    endloop
  endfacet
  facet normal -0.891007 -0.45399 0
    outer loop
      vertex 0.381759 5.38967 10
      vertex 1.08983 4 0
      vertex 1.08983 4 10
    endloop
  endfacet
  facet normal 0.866025 0 -0.5
    outer loop
      vertex -16.25 4 5
      vertex -14.875 4 7.38157
      vertex -14.875 1.9 7.38157
    endloop
  endfacet
  facet normal 0.866025 0 -0.5
    outer loop
      vertex -16.25 1.9 5
      vertex -16.25 4 5
      vertex -14.875 1.9 7.38157
    endloop
  endfacet
  facet normal 0.866025 1.05736e-16 0.5
    outer loop
      vertex -14.875 1.9 2.61843
      vertex -14.875 4 2.61843
      vertex -16.25 4 5
    endloop
  endfacet
  facet normal 0.866025 0 0.5
    outer loop
      vertex -16.25 1.9 5
      vertex -14.875 1.9 2.61843
      vertex -16.25 4 5
    endloop
  endfacet
  facet normal 0 0 -1
    outer loop
      vertex -12.125 4 7.38157
      vertex -12.125 1.9 7.38157
      vertex -14.875 4 7.38157
    endloop
  endfacet
  facet normal 0 0 -1
    outer loop
      vertex -14.875 4 7.38157
      vertex -12.125 1.9 7.38157
      vertex -14.875 1.9 7.38157
    endloop
  endfacet
  facet normal -0.866025 0 -0.5
    outer loop
      vertex -10.75 4 5
      vertex -10.75 1.9 5
      vertex -12.125 4 7.38157
    endloop
  endfacet
  facet normal -0.866025 0 -0.5
    outer loop
      vertex -12.125 4 7.38157
      vertex -10.75 1.9 5
      vertex -12.125 1.9 7.38157
    endloop
  endfacet
  facet normal -0.866025 0 0.5
    outer loop
      vertex -10.75 4 5
      vertex -12.125 4 2.61843
      vertex -10.75 1.9 5
    endloop
  endfacet
  facet normal -0.866025 1.0904e-16 0.5
    outer loop
      vertex -10.75 1.9 5
      vertex -12.125 4 2.61843
      vertex -12.125 1.9 2.61843
    endloop
  endfacet
  facet normal 0 2.11471e-16 1
    outer loop
      vertex -12.125 1.9 2.61843
      vertex -12.125 4 2.61843
      vertex -14.875 4 2.61843
    endloop
  endfacet
  facet normal 0 2.11471e-16 1
    outer loop
      vertex -14.875 1.9 2.61843
      vertex -12.125 1.9 2.61843
      vertex -14.875 4 2.61843
    endloop
  endfacet
  facet normal 0.866025 0 -0.5
    outer loop
      vertex -6.75 4 5
      vertex -5.375 4 7.38157
      vertex -5.375 1.9 7.38157
    endloop
  endfacet
  facet normal 0.866025 0 -0.5
    outer loop
      vertex -6.75 1.9 5
      vertex -6.75 4 5
      vertex -5.375 1.9 7.38157
    endloop
  endfacet
  facet normal 0.866025 1.05736e-16 0.5
    outer loop
      vertex -5.375 1.9 2.61843
      vertex -5.375 4 2.61843
      vertex -6.75 4 5
    endloop
  endfacet
  facet normal 0.866025 0 0.5
    outer loop
      vertex -6.75 1.9 5
      vertex -5.375 1.9 2.61843
      vertex -6.75 4 5
    endloop
  endfacet
  facet normal 0 0 -1
    outer loop
      vertex -2.625 4 7.38157
      vertex -2.625 1.9 7.38157
      vertex -5.375 4 7.38157
    endloop
  endfacet
  facet normal 0 0 -1
    outer loop
      vertex -5.375 4 7.38157
      vertex -2.625 1.9 7.38157
      vertex -5.375 1.9 7.38157
    endloop
  endfacet
  facet normal -0.866025 0 -0.5
    outer loop
      vertex -1.25 4 5
      vertex -1.25 1.9 5
      vertex -2.625 4 7.38157
    endloop
  endfacet
  facet normal -0.866025 0 -0.5
    outer loop
      vertex -2.625 4 7.38157
      vertex -1.25 1.9 5
      vertex -2.625 1.9 7.38157
    endloop
  endfacet
  facet normal -0.866025 0 0.5
    outer loop
      vertex -1.25 4 5
      vertex -2.625 4 2.61843
      vertex -1.25 1.9 5
    endloop
  endfacet
  facet normal -0.866025 1.0904e-16 0.5
    outer loop
      vertex -1.25 1.9 5
      vertex -2.625 4 2.61843
      vertex -2.625 1.9 2.61843
    endloop
  endfacet
  facet normal 0 2.11471e-16 1
    outer loop
      vertex -2.625 1.9 2.61843
      vertex -2.625 4 2.61843
      vertex -5.375 4 2.61843
    endloop
  endfacet
  facet normal 0 2.11471e-16 1
    outer loop
      vertex -5.375 1.9 2.61843
      vertex -2.625 1.9 2.61843
      vertex -5.375 4 2.61843
    endloop
  endfacet
  facet normal 0 1 -1.86469e-16
    outer loop
      vertex -12.125 1.9 7.38157
      vertex -10.75 1.9 5
      vertex -14.875 1.9 7.38157
    endloop
  endfacet
  facet normal 7.11146e-18 1 -2.83809e-16
    outer loop
      vertex -12.3674 1.9 4.1771
      vertex -10.75 1.9 5
      vertex -12.125 1.9 2.61843
    endloop
  endfacet
  facet normal 0 1 -2.11453e-16
    outer loop
      vertex -13.9326 1.9 3.66852
      vertex -12.125 1.9 2.61843
      vertex -14.875 1.9 2.61843
    endloop
  endfacet
  facet normal 5.52059e-31 1 -2.79704e-16
    outer loop
      vertex -14.9 1.9 5
      vertex -14.875 1.9 2.61843
      vertex -16.25 1.9 5
    endloop
  endfacet
  facet normal -9.90166e-17 1 -3.00313e-16
    outer loop
      vertex -12.3674 1.9 4.1771
      vertex -12.125 1.9 2.61843
      vertex -13.0674 1.9 3.66852
    endloop
  endfacet
  facet normal 0 1 -2.11453e-16
    outer loop
      vertex -13.0674 1.9 3.66852
      vertex -12.125 1.9 2.61843
      vertex -13.9326 1.9 3.66852
    endloop
  endfacet
  facet normal 9.90166e-17 1 -3.00313e-16
    outer loop
      vertex -14.6326 1.9 4.1771
      vertex -13.9326 1.9 3.66852
      vertex -14.875 1.9 2.61843
    endloop
  endfacet
  facet normal -5.32576e-31 1 -2.69832e-16
    outer loop
      vertex -12.1 1.9 5
      vertex -10.75 1.9 5
      vertex -12.3674 1.9 4.1771
    endloop
  endfacet
  facet normal 0 1 -2.11453e-16
    outer loop
      vertex -13.9326 1.9 6.33148
      vertex -14.875 1.9 7.38157
      vertex -13.0674 1.9 6.33148
    endloop
  endfacet
  facet normal 0 1 0
    outer loop
      vertex -12.3674 1.9 5.8229
      vertex -10.75 1.9 5
      vertex -12.1 1.9 5
    endloop
  endfacet
  facet normal -7.41151e-16 1 -1.4567e-15
    outer loop
      vertex -13.0674 1.9 6.33148
      vertex -10.75 1.9 5
      vertex -12.3674 1.9 5.8229
    endloop
  endfacet
  facet normal -2.34517e-15 1 -4.24842e-15
    outer loop
      vertex -14.875 1.9 7.38157
      vertex -10.75 1.9 5
      vertex -13.0674 1.9 6.33148
    endloop
  endfacet
  facet normal -9.90166e-17 1 -3.00313e-16
    outer loop
      vertex -14.6326 1.9 5.8229
      vertex -14.875 1.9 7.38157
      vertex -13.9326 1.9 6.33148
    endloop
  endfacet
  facet normal 5.93053e-16 1 -1.92695e-16
    outer loop
      vertex -14.9 1.9 5
      vertex -14.875 1.9 7.38157
      vertex -14.6326 1.9 5.8229
    endloop
  endfacet
  facet normal 3.47912e-31 1 -1.86469e-16
    outer loop
      vertex -14.875 1.9 7.38157
      vertex -14.9 1.9 5
      vertex -16.25 1.9 5
    endloop
  endfacet
  facet normal -3.13957e-17 1 -2.80033e-16
    outer loop
      vertex -14.6326 1.9 4.1771
      vertex -14.875 1.9 2.61843
      vertex -14.9 1.9 5
    endloop
  endfacet
  facet normal 0 1 -1.86469e-16
    outer loop
      vertex -2.625 1.9 7.38157
      vertex -1.25 1.9 5
      vertex -5.375 1.9 7.38157
    endloop
  endfacet
  facet normal 7.11146e-18 1 -2.83809e-16
    outer loop
      vertex -2.86738 1.9 4.1771
      vertex -1.25 1.9 5
      vertex -2.625 1.9 2.61843
    endloop
  endfacet
  facet normal 0 1 -2.11453e-16
    outer loop
      vertex -4.43262 1.9 3.66852
      vertex -2.625 1.9 2.61843
      vertex -5.375 1.9 2.61843
    endloop
  endfacet
  facet normal 5.52059e-31 1 -2.79704e-16
    outer loop
      vertex -5.4 1.9 5
      vertex -5.375 1.9 2.61843
      vertex -6.75 1.9 5
    endloop
  endfacet
  facet normal -9.90166e-17 1 -3.00313e-16
    outer loop
      vertex -2.86738 1.9 4.1771
      vertex -2.625 1.9 2.61843
      vertex -3.56738 1.9 3.66852
    endloop
  endfacet
  facet normal 0 1 -2.11453e-16
    outer loop
      vertex -3.56738 1.9 3.66852
      vertex -2.625 1.9 2.61843
      vertex -4.43262 1.9 3.66852
    endloop
  endfacet
  facet normal 9.90166e-17 1 -3.00313e-16
    outer loop
      vertex -5.13262 1.9 4.1771
      vertex -4.43262 1.9 3.66852
      vertex -5.375 1.9 2.61843
    endloop
  endfacet
  facet normal -5.32576e-31 1 -2.69832e-16
    outer loop
      vertex -2.6 1.9 5
      vertex -1.25 1.9 5
      vertex -2.86738 1.9 4.1771
    endloop
  endfacet
  facet normal 0 1 -2.11453e-16
    outer loop
      vertex -4.43262 1.9 6.33148
      vertex -5.375 1.9 7.38157
      vertex -3.56738 1.9 6.33148
    endloop
  endfacet
  facet normal 0 1 0
    outer loop
      vertex -2.86738 1.9 5.8229
      vertex -1.25 1.9 5
      vertex -2.6 1.9 5
    endloop
  endfacet
  facet normal -7.41151e-16 1 -1.4567e-15
    outer loop
      vertex -3.56738 1.9 6.33148
      vertex -1.25 1.9 5
      vertex -2.86738 1.9 5.8229
    endloop
  endfacet
  facet normal -2.34517e-15 1 -4.24842e-15
    outer loop
      vertex -5.375 1.9 7.38157
      vertex -1.25 1.9 5
      vertex -3.56738 1.9 6.33148
    endloop
  endfacet
  facet normal -9.90166e-17 1 -3.00313e-16
    outer loop
      vertex -5.13262 1.9 5.8229
      vertex -5.375 1.9 7.38157
      vertex -4.43262 1.9 6.33148
    endloop
  endfacet
  facet normal 5.93053e-16 1 -1.92695e-16
    outer loop
      vertex -5.4 1.9 5
      vertex -5.375 1.9 7.38157
      vertex -5.13262 1.9 5.8229
    endloop
  endfacet
  facet normal 3.47912e-31 1 -1.86469e-16
    outer loop
      vertex -5.375 1.9 7.38157
      vertex -5.4 1.9 5
      vertex -6.75 1.9 5
    endloop
  endfacet
  facet normal -3.13957e-17 1 -2.80033e-16
    outer loop
      vertex -5.13262 1.9 4.1771
      vertex -5.375 1.9 2.61843
      vertex -5.4 1.9 5
    endloop
  endfacet
  facet normal 0.951057 -6.65427e-17 -0.309017
    outer loop
      vertex 14.95 15.6 5
      vertex 15.3415 15.6 6.20496
      vertex 15.3415 11.55 6.20496
    endloop
  endfacet
  facet normal 0.951057 -6.77684e-17 -0.309017
    outer loop
      vertex 14.95 11.55 5
      vertex 14.95 15.6 5
      vertex 15.3415 11.55 6.20496
    endloop
  endfacet
  facet normal 0.951057 6.77684e-17 0.309017
    outer loop
      vertex 15.3415 11.55 3.79504
      vertex 15.3415 15.6 3.79504
      vertex 14.95 15.6 5
    endloop
  endfacet
  facet normal 0.951057 6.77684e-17 0.309017
    outer loop
      vertex 14.95 11.55 5
      vertex 15.3415 11.55 3.79504
      vertex 14.95 15.6 5
    endloop
  endfacet
  facet normal 0.587785 1.7742e-16 0.809017
    outer loop
      vertex 16.3665 11.55 3.05033
      vertex 16.3665 15.6 3.05033
      vertex 15.3415 15.6 3.79504
    endloop
  endfacet
  facet normal 0.587785 1.7742e-16 0.809017
    outer loop
      vertex 15.3415 11.55 3.79504
      vertex 16.3665 11.55 3.05033
      vertex 15.3415 15.6 3.79504
    endloop
  endfacet
  facet normal 0 2.19303e-16 1
    outer loop
      vertex 17.6335 11.55 3.05033
      vertex 17.6335 15.6 3.05033
      vertex 16.3665 15.6 3.05033
    endloop
  endfacet
  facet normal 0 2.19303e-16 1
    outer loop
      vertex 16.3665 11.55 3.05033
      vertex 17.6335 11.55 3.05033
      vertex 16.3665 15.6 3.05033
    endloop
  endfacet
  facet normal -0.587785 1.7742e-16 0.809017
    outer loop
      vertex 18.6585 11.55 3.79504
      vertex 18.6585 15.6 3.79504
      vertex 17.6335 15.6 3.05033
    endloop
  endfacet
  facet normal -0.587785 1.7742e-16 0.809017
    outer loop
      vertex 17.6335 11.55 3.05033
      vertex 18.6585 11.55 3.79504
      vertex 17.6335 15.6 3.05033
    endloop
  endfacet
  facet normal -0.951057 6.77684e-17 0.309017
    outer loop
      vertex 19.05 15.6 5
      vertex 18.6585 15.6 3.79504
      vertex 19.05 11.55 5
    endloop
  endfacet
  facet normal -0.951057 6.65427e-17 0.309017
    outer loop
      vertex 19.05 11.55 5
      vertex 18.6585 15.6 3.79504
      vertex 18.6585 11.55 3.79504
    endloop
  endfacet
  facet normal -0.951057 -6.77684e-17 -0.309017
    outer loop
      vertex 19.05 15.6 5
      vertex 19.05 11.55 5
      vertex 18.6585 15.6 6.20496
    endloop
  endfacet
  facet normal -0.951057 -6.77684e-17 -0.309017
    outer loop
      vertex 18.6585 15.6 6.20496
      vertex 19.05 11.55 5
      vertex 18.6585 11.55 6.20496
    endloop
  endfacet
  facet normal -0.587785 -1.7742e-16 -0.809017
    outer loop
      vertex 18.6585 15.6 6.20496
      vertex 18.6585 11.55 6.20496
      vertex 17.6335 15.6 6.94967
    endloop
  endfacet
  facet normal -0.587785 -1.7742e-16 -0.809017
    outer loop
      vertex 17.6335 15.6 6.94967
      vertex 18.6585 11.55 6.20496
      vertex 17.6335 11.55 6.94967
    endloop
  endfacet
  facet normal 0 -2.19303e-16 -1
    outer loop
      vertex 17.6335 15.6 6.94967
      vertex 17.6335 11.55 6.94967
      vertex 16.3665 15.6 6.94967
    endloop
  endfacet
  facet normal 0 -2.19303e-16 -1
    outer loop
      vertex 16.3665 15.6 6.94967
      vertex 17.6335 11.55 6.94967
      vertex 16.3665 11.55 6.94967
    endloop
  endfacet
  facet normal 0.587785 -1.7742e-16 -0.809017
    outer loop
      vertex 16.3665 15.6 6.94967
      vertex 16.3665 11.55 6.94967
      vertex 15.3415 15.6 6.20496
    endloop
  endfacet
  facet normal 0.587785 -1.7742e-16 -0.809017
    outer loop
      vertex 15.3415 15.6 6.20496
      vertex 16.3665 11.55 6.94967
      vertex 15.3415 11.55 6.20496
    endloop
  endfacet
endsolid OpenSCAD_Model
